<?xml version="1.0" encoding="utf-8"?>
<!-- Generator: Adobe Illustrator 26.2.1, SVG Export Plug-In . SVG Version: 6.00 Build 0)  -->
<svg version="1.1" id="Capa_1" xmlns="http://www.w3.org/2000/svg" xmlns:xlink="http://www.w3.org/1999/xlink" x="0px" y="0px"
	 viewBox="0 0 415 123" style="enable-background:new 0 0 415 123;" xml:space="preserve">
<desc>Created with Sketch.</desc>
<g id="Page-1">
	<g id="Bienvenida-THDC-Copy-3" transform="translate(-512.000000, -182.000000)">
		<g id="Group-3" transform="translate(511.000000, 165.000000)">
			<g id="Group-Copy" transform="translate(0.600000, 0.400000)">
				<g style="enable-background:new    ;">
					<path style="fill:#363F52;" d="M31.6,16.6c0.6,0,1.1,0.1,1.6,0.2c0.4,0.1,0.8,0.4,1.1,0.8c0.3,0.4,0.4,1.2,0.4,2.1
						c0,1-0.1,1.7-0.4,2.1c-0.3,0.4-0.6,0.7-1.1,0.8c-0.5,0.1-1,0.1-1.6,0.1H20.8v31.2c0,0.7-0.1,1.3-0.2,1.8
						c-0.1,0.5-0.4,0.9-0.9,1.3c-0.5,0.3-1.3,0.5-2.4,0.5c-1.1,0-1.8-0.2-2.3-0.5c-0.5-0.3-0.8-0.8-0.9-1.3
						c-0.1-0.5-0.2-1.1-0.2-1.8V22.9H2.9c-0.5,0-1.1-0.1-1.5-0.2c-0.5-0.1-0.8-0.4-1.1-0.8c-0.3-0.4-0.4-1.1-0.4-2.1
						c0-1,0.1-1.7,0.4-2.1c0.3-0.4,0.7-0.7,1.1-0.8c0.5-0.1,1-0.2,1.6-0.2H31.6z"/>
					<path style="fill:#363F52;" d="M56.9,57.9c-2.7,0-5.2-0.5-7.3-1.5c-2.1-1-3.9-2.4-5.4-4.2c-1.4-1.8-2.5-3.8-3.3-6.1
						c-0.7-2.3-1.1-4.7-1.1-7.3V20.2c0-0.7,0.1-1.3,0.2-1.8c0.1-0.5,0.4-1,0.9-1.3c0.5-0.3,1.3-0.5,2.4-0.5c1.1,0,1.9,0.2,2.4,0.5
						c0.5,0.3,0.8,0.8,0.9,1.3c0.1,0.5,0.2,1.1,0.2,1.8v18.6c0,2.1,0.4,4.1,1.1,5.9c0.7,1.8,1.8,3.3,3.3,4.4
						c1.5,1.1,3.4,1.6,5.7,1.6c2.1,0,3.8-0.5,5.3-1.5c1.5-1,2.6-2.4,3.4-4.2c0.8-1.8,1.2-3.9,1.2-6.4V19.9c0-0.6,0.1-1.2,0.2-1.6
						c0.1-0.5,0.5-0.9,1-1.2c0.5-0.3,1.3-0.5,2.4-0.5c1.1,0,1.9,0.2,2.4,0.5c0.5,0.3,0.8,0.8,0.9,1.3s0.2,1.2,0.2,1.8V39
						c0,2.6-0.4,5-1.1,7.3c-0.7,2.3-1.9,4.3-3.3,6c-1.5,1.7-3.3,3.1-5.4,4.1C62.1,57.4,59.6,57.9,56.9,57.9z"/>
					<path style="fill:#363F52;" d="M127.9,18.4c-0.1-0.5-0.4-1-0.9-1.3c-0.5-0.3-1.3-0.5-2.4-0.5c-1.1,0-1.9,0.2-2.4,0.5
						c-0.5,0.3-0.8,0.7-0.9,1.3c-0.1,0.5-0.2,1.1-0.2,1.8v13.4h-18.6V20.2c0-0.7-0.1-1.3-0.2-1.8s-0.4-1-0.9-1.3
						c-0.5-0.3-1.3-0.5-2.4-0.5c-1.1,0-1.9,0.2-2.4,0.5c-0.5,0.3-0.8,0.7-1,1.3c-0.1,0.5-0.2,1.1-0.2,1.8V54c0,0.6,0.1,1.2,0.2,1.8
						c0.1,0.6,0.4,1,0.9,1.3c0.5,0.3,1.3,0.5,2.4,0.5c1.1,0,1.9-0.2,2.4-0.5c0.5-0.3,0.8-0.7,0.9-1.3c0.1-0.5,0.2-1.1,0.2-1.8V39.9
						H121V54c0,0.6,0.1,1.2,0.2,1.8c0.1,0.6,0.4,1,0.9,1.3c0.5,0.3,1.3,0.5,2.4,0.5c1.1,0,1.9-0.2,2.4-0.5c0.5-0.3,0.8-0.7,1-1.3
						c0.1-0.5,0.2-1.1,0.2-1.8V20.2C128.1,19.6,128,19,127.9,18.4z"/>
					<path style="fill:#363F52;" d="M152,57.9c-2.7,0-5.2-0.5-7.3-1.5c-2.1-1-3.9-2.4-5.4-4.2c-1.4-1.8-2.5-3.8-3.3-6.1
						c-0.7-2.3-1.1-4.7-1.1-7.3V20.2c0-0.7,0.1-1.3,0.2-1.8c0.1-0.5,0.4-1,0.9-1.3c0.5-0.3,1.3-0.5,2.4-0.5c1.1,0,1.9,0.2,2.4,0.5
						c0.5,0.3,0.8,0.8,0.9,1.3c0.1,0.5,0.2,1.1,0.2,1.8v18.6c0,2.1,0.4,4.1,1.1,5.9c0.7,1.8,1.8,3.3,3.3,4.4
						c1.5,1.1,3.4,1.6,5.7,1.6c2.1,0,3.8-0.5,5.3-1.5c1.5-1,2.6-2.4,3.4-4.2c0.8-1.8,1.2-3.9,1.2-6.4V19.9c0-0.6,0.1-1.2,0.2-1.6
						c0.1-0.5,0.5-0.9,1-1.2c0.5-0.3,1.3-0.5,2.4-0.5c1.1,0,1.9,0.2,2.4,0.5c0.5,0.3,0.8,0.8,0.9,1.3s0.2,1.2,0.2,1.8V39
						c0,2.6-0.4,5-1.1,7.3c-0.7,2.3-1.9,4.3-3.3,6c-1.5,1.7-3.3,3.1-5.4,4.1C157.2,57.4,154.7,57.9,152,57.9z"/>
					<path style="fill:#363F52;" d="M179.8,57.6c-1.1,0-1.9-0.2-2.4-0.5c-0.5-0.3-0.8-0.8-0.9-1.3c-0.1-0.5-0.2-1.2-0.2-1.8V20.2
						c0-1.3,0.3-2.2,0.8-2.8c0.5-0.5,1.5-0.8,2.9-0.8h22.8c0.7,0,1.3,0.1,1.8,0.2c0.5,0.1,0.9,0.4,1.3,0.9c0.3,0.5,0.5,1.3,0.5,2.4
						c0,1.1-0.2,1.9-0.5,2.4c-0.3,0.5-0.8,0.8-1.3,0.9c-0.5,0.1-1.1,0.2-1.8,0.2h-19.4v9.8h13.4c0.7,0,1.2,0.1,1.7,0.2
						c0.5,0.1,0.8,0.4,1.1,0.8c0.3,0.4,0.4,1.2,0.4,2.2c0,1-0.1,1.7-0.4,2.1c-0.3,0.4-0.7,0.7-1.2,0.8c-0.5,0.1-1.1,0.1-1.8,0.1
						h-13.2v10.5h19.4c0.7,0,1.3,0.1,1.8,0.2c0.5,0.1,0.9,0.5,1.3,1c0.3,0.5,0.5,1.3,0.5,2.4s-0.2,1.9-0.5,2.4
						c-0.3,0.5-0.8,0.8-1.3,1c-0.5,0.1-1.1,0.2-1.8,0.2H179.8z"/>
					<path style="fill:#363F52;" d="M215.8,57.6c-1.1,0-2-0.2-2.5-0.5s-0.8-0.8-1-1.3s-0.2-1.1-0.2-1.8V20.2c0-0.7,0.1-1.3,0.2-1.8
						s0.4-1,0.9-1.3c0.5-0.3,1.3-0.5,2.4-0.5c1.1,0,1.9,0.2,2.4,0.5c0.5,0.3,0.8,0.7,0.9,1.3s0.2,1.2,0.2,1.8v31h17.9
						c0.6,0,1.1,0,1.6,0.1c0.5,0.1,0.8,0.4,1.1,0.8c0.3,0.4,0.4,1.2,0.4,2.1s-0.1,1.7-0.4,2.1c-0.3,0.4-0.6,0.7-1.1,0.9
						c-0.5,0.1-1,0.2-1.6,0.2H215.8z"/>
					<path style="fill:#363F52;" d="M248.8,57.6c-1.1,0-2-0.2-2.5-0.5c-0.5-0.3-0.8-0.8-1-1.3c-0.1-0.5-0.2-1.1-0.2-1.8V20.2
						c0-0.7,0.1-1.3,0.2-1.8c0.1-0.5,0.4-1,0.9-1.3c0.5-0.3,1.3-0.5,2.4-0.5c1.1,0,1.9,0.2,2.4,0.5c0.5,0.3,0.8,0.7,0.9,1.3
						c0.1,0.5,0.2,1.2,0.2,1.8v31h17.9c0.6,0,1.1,0,1.6,0.1c0.5,0.1,0.8,0.4,1.1,0.8c0.3,0.4,0.4,1.2,0.4,2.1s-0.1,1.7-0.4,2.1
						c-0.3,0.4-0.6,0.7-1.1,0.9c-0.5,0.1-1,0.2-1.6,0.2H248.8z"/>
					<path style="fill:#363F52;" d="M314.7,52.6c0.4,0.7,0.6,1.4,0.6,2c0,0.6-0.1,1.1-0.5,1.5c-0.4,0.4-0.9,0.8-1.8,1.3
						c-1.2,0.6-2.2,0.7-2.9,0.5c-0.7-0.3-1.3-1-1.9-2.3l-13.1-27.6l-13,27.6c-0.6,1.2-1.2,1.9-1.9,2.2c-0.7,0.3-1.7,0.1-2.9-0.4
						c-0.8-0.4-1.4-0.8-1.7-1.2s-0.5-0.9-0.5-1.6c0.1-0.6,0.3-1.3,0.7-2.2L292,18.7c0.3-0.6,0.8-1.1,1.4-1.5
						c0.6-0.4,1.2-0.6,1.9-0.6c0.5,0,0.9,0.1,1.3,0.2c0.4,0.2,0.8,0.4,1.1,0.7c0.3,0.3,0.6,0.7,0.8,1.2L314.7,52.6z M284.8,46.9
						l2.8-6h15.3l2.8,6H284.8z"/>
					<path style="fill:#363F52;" d="M337,57.5c-1,0-1.8-0.2-2.3-0.5c-0.5-0.3-0.8-0.8-1-1.3c-0.2-0.5-0.2-1.1-0.2-1.8V20.1
						c0-0.6,0.1-1.2,0.2-1.7c0.1-0.5,0.5-1,1-1.3c0.5-0.3,1.3-0.5,2.4-0.5l11,0.1c2.8,0,5.5,0.5,7.9,1.5c2.4,1,4.5,2.4,6.2,4.2
						c1.8,1.8,3.1,3.9,4.1,6.4c1,2.5,1.4,5.2,1.4,8.2c0,3-0.5,5.8-1.5,8.4c-1,2.5-2.3,4.7-4.1,6.6c-1.8,1.8-3.8,3.2-6.2,4.2
						c-2.4,1-5.1,1.5-8,1.5H337z M340.6,50.4h7.5c2.5,0,4.7-0.6,6.6-1.7c1.9-1.1,3.3-2.7,4.4-4.7c1-2,1.6-4.3,1.6-7
						c0-2.7-0.5-5-1.6-7.1c-1-2-2.5-3.6-4.4-4.7c-1.9-1.1-4.1-1.7-6.6-1.7h-7.4V50.4z"/>
					<path style="fill:#363F52;" d="M377.5,57.6c-1.1,0-1.9-0.2-2.4-0.5c-0.5-0.3-0.8-0.8-0.9-1.3c-0.1-0.5-0.2-1.2-0.2-1.8V20.2
						c0-1.3,0.3-2.2,0.8-2.8c0.5-0.5,1.5-0.8,2.9-0.8h22.8c0.7,0,1.3,0.1,1.8,0.2s0.9,0.4,1.3,0.9c0.3,0.5,0.5,1.3,0.5,2.4
						c0,1.1-0.2,1.9-0.5,2.4c-0.3,0.5-0.8,0.8-1.3,0.9s-1.1,0.2-1.8,0.2H381v9.8h13.4c0.7,0,1.2,0.1,1.7,0.2
						c0.5,0.1,0.8,0.4,1.1,0.8c0.3,0.4,0.4,1.2,0.4,2.2c0,1-0.1,1.7-0.4,2.1c-0.3,0.4-0.7,0.7-1.2,0.8c-0.5,0.1-1.1,0.1-1.8,0.1H381
						v10.5h19.4c0.7,0,1.3,0.1,1.8,0.2s0.9,0.5,1.3,1c0.3,0.5,0.5,1.3,0.5,2.4s-0.2,1.9-0.5,2.4c-0.3,0.5-0.8,0.8-1.3,1
						c-0.5,0.1-1.1,0.2-1.8,0.2H377.5z"/>
				</g>
				<g style="enable-background:new    ;">
					<path style="fill:#F4785C;" d="M31.8,138.4c-2.3,0-4.8-0.4-7.6-1.1c-2.8-0.7-5.6-1.9-8.4-3.4c-2.8-1.6-5.4-3.6-7.7-6.1
						c-2.3-2.5-4.2-5.5-5.7-9c-1.4-3.5-2.1-7.5-2.1-12.1c0-4.4,0.7-8.3,2.1-11.7c1.4-3.4,3.3-6.3,5.6-8.7c2.3-2.4,4.9-4.4,7.7-5.9
						c2.8-1.5,5.6-2.6,8.5-3.3C27,76.4,29.7,76,32,76c3,0,5.6,0.4,7.8,1.1c2.3,0.7,4.1,1.5,5.5,2.3c1.4,0.8,2.3,1.3,2.7,1.5
						c1.2,0.8,2.2,1.6,3.3,2.5c1,0.9,1.5,2.1,1.5,3.6c0,0.8-0.2,1.5-0.5,2.3c-0.3,0.8-0.8,1.7-1.4,2.5c-1.2,1.6-2.2,2.8-3.3,3.6
						c-1,0.8-2,1.1-3,1.1c-0.8,0-1.5-0.2-2.2-0.5c-0.7-0.3-1.5-0.8-2.5-1.5c-0.4-0.3-0.9-0.6-1.6-1c-0.6-0.4-1.5-0.7-2.6-1
						c-1.1-0.3-2.6-0.5-4.3-0.5c-1.5,0-3.1,0.3-4.9,0.8c-1.8,0.6-3.4,1.4-5,2.6c-1.6,1.2-2.8,2.8-3.8,4.7c-1,1.9-1.5,4.3-1.5,7
						c0,2.8,0.5,5.1,1.5,7c1,1.9,2.3,3.5,3.9,4.7c1.6,1.2,3.2,2.1,5,2.6c1.8,0.6,3.4,0.8,4.8,0.8c1.5,0,2.8-0.1,3.8-0.4
						c1-0.3,2-0.6,2.8-1.1c0.8-0.5,1.6-0.9,2.3-1.4c0.6-0.5,1.3-0.9,2.1-1.2c0.8-0.3,1.5-0.5,2.3-0.5c1,0,2,0.4,3,1.2
						c1,0.8,2,2.1,3.1,3.7c0.6,1,1.1,1.9,1.4,2.7c0.3,0.8,0.5,1.6,0.5,2.3c0,1.4-0.5,2.6-1.5,3.5c-1,0.9-2.1,1.7-3.3,2.3
						c-0.4,0.2-1.3,0.8-2.6,1.6c-1.3,0.8-3.1,1.6-5.4,2.3C37.7,138,35,138.4,31.8,138.4z"/>
					<path style="fill:#F4785C;" d="M83.2,138.4c-4.4,0-8.3-0.9-11.6-2.7c-3.3-1.8-6.1-4.1-8.4-7c-2.3-2.9-4-6.1-5.1-9.6
						c-1.1-3.5-1.7-6.9-1.7-10.3V84.5c0-1.3,0.1-2.6,0.3-3.8c0.2-1.2,0.9-2.2,2-3c1.1-0.8,3-1.2,5.7-1.2c2.7,0,4.5,0.4,5.7,1.2
						c1.1,0.8,1.8,1.8,2,3c0.2,1.2,0.3,2.5,0.3,3.9v24.3c0,1.9,0.3,3.9,1,6c0.6,2.1,1.8,3.9,3.3,5.3c1.6,1.5,3.8,2.2,6.7,2.2
						c2.2,0,4.1-0.6,5.7-1.7c1.6-1.1,2.9-2.7,3.8-4.8c0.9-2.1,1.3-4.4,1.3-7.2V84.1c0-1.3,0.1-2.5,0.4-3.6c0.3-1.1,0.9-2.1,2-2.8
						c1.1-0.8,3-1.1,5.6-1.1c2.7,0,4.5,0.4,5.6,1.2c1.1,0.8,1.7,1.8,2,3c0.2,1.2,0.3,2.5,0.3,3.8v24.4c0,3.5-0.6,6.9-1.7,10.4
						c-1.2,3.5-2.9,6.6-5.2,9.5c-2.3,2.9-5.1,5.2-8.5,6.9C91.5,137.6,87.6,138.4,83.2,138.4z"/>
					<path style="fill:#F4785C;" d="M123,137.5c-2.6,0-4.5-0.4-5.6-1.2c-1.1-0.8-1.8-1.8-2-3c-0.2-1.2-0.3-2.5-0.3-3.8v-45
						c0-1.3,0.1-2.5,0.3-3.7c0.2-1.2,0.9-2.2,2-3c1.1-0.8,3-1.2,5.7-1.2c2.7,0,4.5,0.4,5.6,1.2c1.1,0.8,1.7,1.8,2,3
						c0.2,1.2,0.3,2.5,0.3,3.8v45c0,1.3-0.1,2.5-0.3,3.7c-0.2,1.2-0.9,2.2-2,3C127.5,137.1,125.7,137.5,123,137.5z"/>
					<path style="fill:#F4785C;" d="M143.8,137.4c-2.5,0-4.3-0.4-5.4-1.1c-1.1-0.8-1.8-1.7-2.1-3c-0.3-1.2-0.4-2.5-0.4-3.9v-45
						c0-1.3,0.1-2.5,0.3-3.7c0.2-1.2,0.9-2.2,2-3c1.1-0.8,3-1.1,5.7-1.1h15c4.1,0,8,0.8,11.7,2.3c3.7,1.6,6.9,3.7,9.7,6.5
						c2.8,2.8,5,6,6.6,9.6c1.6,3.7,2.4,7.5,2.4,11.7c0,4.2-0.8,8.2-2.4,11.9c-1.6,3.7-3.8,7-6.6,9.8c-2.8,2.8-6.1,5-9.7,6.6
						c-3.7,1.6-7.6,2.4-11.9,2.4H143.8z M151.8,121.5h7c2.6,0,5-0.7,7.2-2c2.2-1.3,4-3,5.3-5.2c1.3-2.2,2-4.6,2-7.3
						c0-2.7-0.7-5.1-2-7.3c-1.3-2.2-3.1-4-5.3-5.3c-2.2-1.3-4.6-2-7.3-2h-7V121.5z"/>
					<path style="fill:#F4785C;" d="M250.4,126.4l-21.8-45.1c-0.5-1-1.1-1.8-1.8-2.5c-0.8-0.7-1.6-1.2-2.5-1.6
						c-0.9-0.4-1.9-0.6-2.9-0.6c-1.5,0-2.9,0.4-4.2,1.3c-1.4,0.8-2.4,2-3.1,3.3l-21.8,45.2c-0.9,1.7-1.3,3.2-1.4,4.4
						c-0.1,1.2,0.3,2.3,1.2,3.2c0.8,0.9,2.2,1.8,4,2.7c2.7,1.3,4.8,1.8,6.3,1.3c1.5-0.5,3-2.1,4.3-4.8l4-8.3H232l4,8.3
						c1.3,2.8,2.8,4.5,4.3,5c1.5,0.5,3.7,0.1,6.4-1.3c1.8-0.9,3.1-1.9,3.9-2.8c0.8-0.9,1.2-2,1.1-3.2
						C251.7,129.7,251.2,128.2,250.4,126.4z M217.2,111.3l4.1-8.4l4.1,8.4H217.2z"/>
					<path style="fill:#F4785C;" d="M262.5,137.4c-2.5,0-4.3-0.4-5.4-1.1c-1.1-0.8-1.8-1.7-2.1-3c-0.3-1.2-0.4-2.5-0.4-3.9v-45
						c0-1.3,0.1-2.5,0.3-3.7c0.2-1.2,0.9-2.2,2-3c1.1-0.8,3-1.1,5.7-1.1h15c4.1,0,8,0.8,11.7,2.3c3.7,1.6,6.9,3.7,9.7,6.5
						c2.8,2.8,5,6,6.6,9.6c1.6,3.7,2.4,7.5,2.4,11.7c0,4.2-0.8,8.2-2.4,11.9c-1.6,3.7-3.8,7-6.6,9.8c-2.8,2.8-6.1,5-9.7,6.6
						c-3.7,1.6-7.6,2.4-11.9,2.4H262.5z M270.5,121.5h7c2.6,0,5-0.7,7.2-2c2.2-1.3,4-3,5.3-5.2c1.3-2.2,2-4.6,2-7.3
						c0-2.7-0.7-5.1-2-7.3c-1.3-2.2-3.1-4-5.3-5.3c-2.2-1.3-4.6-2-7.3-2h-7V121.5z"/>
					<path style="fill:#F4785C;" d="M340.9,138.4c-4.2,0-8.2-0.8-11.9-2.4c-3.7-1.6-6.9-3.8-9.7-6.7c-2.8-2.8-5-6.1-6.6-9.9
						c-1.6-3.7-2.4-7.7-2.4-12c0-4.4,0.8-8.5,2.3-12.3c1.5-3.8,3.7-7.2,6.4-10.1c2.7-2.9,5.9-5.2,9.5-6.8c3.6-1.6,7.5-2.4,11.6-2.4
						c4.2,0,8.2,0.8,11.9,2.4c3.7,1.6,6.9,3.8,9.7,6.7c2.8,2.8,5,6.2,6.5,10c1.6,3.8,2.3,7.9,2.3,12.3c0,4.3-0.8,8.3-2.3,12.1
						c-1.5,3.8-3.7,7.1-6.4,10c-2.8,2.9-5.9,5.1-9.5,6.7C348.8,137.6,345,138.4,340.9,138.4z M340.5,122.5c2,0,3.8-0.4,5.6-1.2
						c1.7-0.8,3.3-1.9,4.6-3.2c1.3-1.4,2.3-3,3-4.9c0.7-1.9,1.1-3.9,1.1-6c0-2.1-0.4-4.1-1.1-6c-0.8-1.9-1.8-3.5-3.1-4.9
						c-1.3-1.4-2.8-2.5-4.5-3.3c-1.7-0.8-3.5-1.2-5.4-1.2c-2,0-3.8,0.4-5.5,1.2s-3.2,1.9-4.5,3.3c-1.3,1.4-2.3,3.1-3.1,4.9
						c-0.8,1.9-1.1,3.9-1.1,6c0,2.1,0.4,4.1,1.1,5.9c0.8,1.9,1.8,3.5,3.1,4.9c1.3,1.4,2.8,2.5,4.5,3.3
						C336.7,122.1,338.5,122.5,340.5,122.5z"/>
					<path style="fill:#F4785C;" d="M395.4,138.4c-3.5,0-6.5-0.4-9-1.3c-2.5-0.9-4.5-1.9-6-3.1c-1.6-1.2-2.8-2.3-3.6-3.3
						c-0.8-1-1.3-1.6-1.5-1.8c-1.2-1.4-1.9-2.8-2.1-3.9c-0.3-1.2-0.1-2.3,0.5-3.5c0.6-1.2,1.6-2.4,3.1-3.8c1.3-1.3,2.6-2,3.9-2.1
						c1.3-0.1,2.5,0.1,3.8,0.8c1.2,0.7,2.4,1.7,3.6,3c1.4,1.6,2.6,2.6,3.6,3.2c1,0.6,2.1,0.8,3.4,0.8c1.6,0,2.8-0.2,3.8-0.6
						c1-0.4,1.7-1,2.2-1.7c0.5-0.8,0.7-1.8,0.7-3c0-1-0.5-1.8-1.5-2.3c-1-0.6-2.3-1-3.9-1.4c-1.6-0.4-3.4-0.9-5.3-1.3
						c-2-0.5-3.9-1.1-5.8-2c-1.2-0.5-2.3-1-3.4-1.7c-1.1-0.7-2.1-1.5-3.1-2.4c-1-0.9-1.8-2-2.5-3.2c-0.7-1.2-1.2-2.7-1.6-4.2
						c-0.4-1.6-0.6-3.3-0.6-5.3c0-3.5,0.9-6.7,2.7-9.5c1.8-2.8,4.2-5,7.3-6.6c3.1-1.6,6.6-2.4,10.6-2.4c2.8,0,5.3,0.2,7.3,0.7
						c2,0.5,3.7,1,5,1.7c1.3,0.6,2.3,1.2,3,1.8c0.7,0.6,1.1,0.9,1.3,1.1c1.9,1.7,3,3.2,3.1,4.5c0.2,1.2-0.5,3-2.1,5.3
						c-1.7,2.5-3.4,3.9-5.1,4.2c-1.7,0.3-3.6-0.2-5.8-1.6c-0.5-0.3-0.9-0.7-1.4-1.2c-0.5-0.4-1.1-0.8-1.9-1.1
						c-0.8-0.3-2-0.5-3.5-0.5c-0.6,0-1.2,0.1-1.7,0.3c-0.6,0.2-1.1,0.5-1.5,0.8c-0.4,0.3-0.7,0.7-1,1.2c-0.3,0.5-0.4,1-0.4,1.5
						c0,1.2,0.5,2.2,1.4,2.8c0.9,0.7,2.2,1.2,3.7,1.5c1.5,0.3,3.2,0.7,5.1,1c1.9,0.3,3.7,0.8,5.7,1.4c1.6,0.5,3.1,1.2,4.5,2
						c1.4,0.8,2.7,1.9,3.8,3.1c1.1,1.3,2,2.9,2.7,4.7c0.7,1.9,1,4.2,1,6.9c0,3.8-0.7,7-2.2,9.6c-1.5,2.6-3.3,4.8-5.6,6.3
						c-2.3,1.6-4.7,2.8-7.3,3.5C400.1,138,397.7,138.4,395.4,138.4z"/>
				</g>
			</g>
		</g>
	</g>
</g>
</svg>
