<?xml version="1.0" encoding="utf-8"?>
<!-- Generator: Adobe Illustrator 26.2.1, SVG Export Plug-In . SVG Version: 6.00 Build 0)  -->
<svg version="1.1" xmlns="http://www.w3.org/2000/svg" xmlns:xlink="http://www.w3.org/1999/xlink" x="0px" y="0px"
	viewBox="0 0 1440 298" style="enable-background: new 0 0 1440 298" xml:space="preserve">
	<g id="Cuadadro_rojo">
		<desc>Created with Sketch.</desc>
		<rect id="Rectangle" style="
		fill-rule: evenodd;
		clip-rule: evenodd;
		fill: #f4785c;
		" width="360" height="298" />
	</g>
	<g id="Cuadrado_rosa">
		<rect id="Rectangle-Copy-2" x="360" style="
		fill-rule: evenodd;
		clip-rule: evenodd;
		fill: #ffd9d8;
		" width="360" height="298" />
	</g>
	<g id="Cuadrado_amarillo">
		<rect id="Rectangle-Copy-3" x="720" style="
		fill-rule: evenodd;
		clip-rule: evenodd;
		fill: #ffcf7c;
		" width="360" height="298" />
	</g>
	<g id="Cuadrado_azul">
		<rect id="Rectangle-Copy-4" x="1080" style="
		fill-rule: evenodd;
		clip-rule: evenodd;
		fill: #6794a1;
		" width="360" height="298" />
	</g>
	<g id="Línea_punteada">
		<g id="Stroke-1">
			<g>
				<g id="path-1">
					<path style="
				fill-rule: evenodd;
				clip-rule: evenodd;
				fill: none;
			" d="M269.9,148.8l1015.6-0.2" />
				</g>
			</g>
			<g>
				<g id="path-1_00000060716460760638131930000009391711771330782100_">
					<path style="fill: #ffffff" d="M269.9,153c-2.3,0-4.2-1.9-4.2-4.2c0-2.3,1.9-4.2,4.2-4.2l15.3,0c2.3,0,4.2,1.9,4.2,4.2
		c0,2.3-1.9,4.2-4.2,4.2L269.9,153z M300.4,152.9c-2.3,0-4.2-1.9-4.2-4.2c0-2.3,1.9-4.2,4.2-4.2l15.3,0c2.3,0,4.2,1.9,4.2,4.2
		c0,2.3-1.9,4.2-4.2,4.2L300.4,152.9z M331,152.9c-2.3,0-4.2-1.9-4.2-4.2s1.9-4.2,4.2-4.2l15.3,0c2.3,0,4.2,1.9,4.2,4.2
		c0,2.3-1.9,4.2-4.2,4.2L331,152.9z M361.5,152.9c-2.3,0-4.2-1.9-4.2-4.2c0-2.3,1.9-4.2,4.2-4.2l15.3,0c2.3,0,4.2,1.9,4.2,4.2
		c0,2.3-1.9,4.2-4.2,4.2L361.5,152.9z M392,152.9c-2.3,0-4.2-1.9-4.2-4.2s1.9-4.2,4.2-4.2l15.3,0c2.3,0,4.2,1.9,4.2,4.2
		c0,2.3-1.9,4.2-4.2,4.2L392,152.9z M422.6,152.9c-2.3,0-4.2-1.9-4.2-4.2c0-2.3,1.9-4.2,4.2-4.2l15.3,0c2.3,0,4.2,1.9,4.2,4.2
		c0,2.3-1.9,4.2-4.2,4.2L422.6,152.9z M453.1,152.9c-2.3,0-4.2-1.9-4.2-4.2c0-2.3,1.9-4.2,4.2-4.2l15.3,0c2.3,0,4.2,1.9,4.2,4.2
		c0,2.3-1.9,4.2-4.2,4.2L453.1,152.9z M483.7,152.9c-2.3,0-4.2-1.9-4.2-4.2c0-2.3,1.9-4.2,4.2-4.2l15.3,0c2.3,0,4.2,1.9,4.2,4.2
		c0,2.3-1.9,4.2-4.2,4.2L483.7,152.9z M514.2,152.9c-2.3,0-4.2-1.9-4.2-4.2c0-2.3,1.9-4.2,4.2-4.2l15.3,0c2.3,0,4.2,1.9,4.2,4.2
		c0,2.3-1.9,4.2-4.2,4.2L514.2,152.9z M544.8,152.9c-2.3,0-4.2-1.9-4.2-4.2c0-2.3,1.9-4.2,4.2-4.2l15.3,0c2.3,0,4.2,1.9,4.2,4.2
		c0,2.3-1.9,4.2-4.2,4.2L544.8,152.9z M575.3,152.9c-2.3,0-4.2-1.9-4.2-4.2c0-2.3,1.9-4.2,4.2-4.2l15.3,0c2.3,0,4.2,1.9,4.2,4.2
		c0,2.3-1.9,4.2-4.2,4.2L575.3,152.9z M605.8,152.9c-2.3,0-4.2-1.9-4.2-4.2c0-2.3,1.9-4.2,4.2-4.2l15.3,0c2.3,0,4.2,1.9,4.2,4.2
		c0,2.3-1.9,4.2-4.2,4.2L605.8,152.9z M636.4,152.9c-2.3,0-4.2-1.9-4.2-4.2s1.9-4.2,4.2-4.2l15.3,0c2.3,0,4.2,1.9,4.2,4.2
		c0,2.3-1.9,4.2-4.2,4.2L636.4,152.9z M666.9,152.9c-2.3,0-4.2-1.9-4.2-4.2c0-2.3,1.9-4.2,4.2-4.2l15.3,0c2.3,0,4.2,1.9,4.2,4.2
		c0,2.3-1.9,4.2-4.2,4.2L666.9,152.9z M697.5,152.8c-2.3,0-4.2-1.9-4.2-4.2s1.9-4.2,4.2-4.2l15.3,0c2.3,0,4.2,1.9,4.2,4.2
		c0,2.3-1.9,4.2-4.2,4.2L697.5,152.8z M728,152.8c-2.3,0-4.2-1.9-4.2-4.2c0-2.3,1.9-4.2,4.2-4.2l15.3,0c2.3,0,4.2,1.9,4.2,4.2
		c0,2.3-1.9,4.2-4.2,4.2L728,152.8z M758.6,152.8c-2.3,0-4.2-1.9-4.2-4.2c0-2.3,1.9-4.2,4.2-4.2l15.3,0c2.3,0,4.2,1.9,4.2,4.2
		c0,2.3-1.9,4.2-4.2,4.2L758.6,152.8z M789.1,152.8c-2.3,0-4.2-1.9-4.2-4.2c0-2.3,1.9-4.2,4.2-4.2l15.3,0c2.3,0,4.2,1.9,4.2,4.2
		c0,2.3-1.9,4.2-4.2,4.2L789.1,152.8z M819.6,152.8c-2.3,0-4.2-1.9-4.2-4.2c0-2.3,1.9-4.2,4.2-4.2l15.3,0c2.3,0,4.2,1.9,4.2,4.2
		c0,2.3-1.9,4.2-4.2,4.2L819.6,152.8z M850.2,152.8c-2.3,0-4.2-1.9-4.2-4.2c0-2.3,1.9-4.2,4.2-4.2l15.3,0c2.3,0,4.2,1.9,4.2,4.2
		c0,2.3-1.9,4.2-4.2,4.2L850.2,152.8z M880.7,152.8c-2.3,0-4.2-1.9-4.2-4.2c0-2.3,1.9-4.2,4.2-4.2l15.3,0c2.3,0,4.2,1.9,4.2,4.2
		c0,2.3-1.9,4.2-4.2,4.2L880.7,152.8z M911.3,152.8c-2.3,0-4.2-1.9-4.2-4.2c0-2.3,1.9-4.2,4.2-4.2l15.3,0c2.3,0,4.2,1.9,4.2,4.2
		c0,2.3-1.9,4.2-4.2,4.2L911.3,152.8z M941.8,152.8c-2.3,0-4.2-1.9-4.2-4.2c0-2.3,1.9-4.2,4.2-4.2l15.3,0c2.3,0,4.2,1.9,4.2,4.2
		c0,2.3-1.9,4.2-4.2,4.2L941.8,152.8z M972.4,152.8c-2.3,0-4.2-1.9-4.2-4.2c0-2.3,1.9-4.2,4.2-4.2l15.3,0c2.3,0,4.2,1.9,4.2,4.2
		c0,2.3-1.9,4.2-4.2,4.2L972.4,152.8z M1002.9,152.8c-2.3,0-4.2-1.9-4.2-4.2c0-2.3,1.9-4.2,4.2-4.2l15.3,0c2.3,0,4.2,1.9,4.2,4.2
		c0,2.3-1.9,4.2-4.2,4.2L1002.9,152.8z M1033.4,152.8c-2.3,0-4.2-1.9-4.2-4.2c0-2.3,1.9-4.2,4.2-4.2l15.3,0
		c2.3,0,4.2,1.9,4.2,4.2c0,2.3-1.9,4.2-4.2,4.2L1033.4,152.8z M1064,152.8c-2.3,0-4.2-1.9-4.2-4.2c0-2.3,1.9-4.2,4.2-4.2l15.3,0
		c2.3,0,4.2,1.9,4.2,4.2c0,2.3-1.9,4.2-4.2,4.2L1064,152.8z M1094.5,152.7c-2.3,0-4.2-1.9-4.2-4.2c0-2.3,1.9-4.2,4.2-4.2l15.3,0
		c2.3,0,4.2,1.9,4.2,4.2c0,2.3-1.9,4.2-4.2,4.2L1094.5,152.7z M1125.1,152.7c-2.3,0-4.2-1.9-4.2-4.2c0-2.3,1.9-4.2,4.2-4.2
		l15.3,0c2.3,0,4.2,1.9,4.2,4.2c0,2.3-1.9,4.2-4.2,4.2L1125.1,152.7z M1155.6,152.7c-2.3,0-4.2-1.9-4.2-4.2
		c0-2.3,1.9-4.2,4.2-4.2l15.3,0c2.3,0,4.2,1.9,4.2,4.2c0,2.3-1.9,4.2-4.2,4.2L1155.6,152.7z M1186.1,152.7
		c-2.3,0-4.2-1.9-4.2-4.2c0-2.3,1.9-4.2,4.2-4.2l15.3,0c2.3,0,4.2,1.9,4.2,4.2c0,2.3-1.9,4.2-4.2,4.2L1186.1,152.7z
		M1216.7,152.7c-2.3,0-4.2-1.9-4.2-4.2c0-2.3,1.9-4.2,4.2-4.2l15.3,0c2.3,0,4.2,1.9,4.2,4.2c0,2.3-1.9,4.2-4.2,4.2L1216.7,152.7
		z M1247.2,152.7c-2.3,0-4.2-1.9-4.2-4.2c0-2.3,1.9-4.2,4.2-4.2l15.3,0c2.3,0,4.2,1.9,4.2,4.2c0,2.3-1.9,4.2-4.2,4.2
		L1247.2,152.7z M1277.8,152.7c-2.3,0-4.2-1.9-4.2-4.2c0-2.3,1.9-4.2,4.2-4.2l7.7,0c2.3,0,4.2,1.9,4.2,4.2c0,2.3-1.9,4.2-4.2,4.2
		L1277.8,152.7z" />
				</g>
			</g>
		</g>
	</g>
	<g id="Mano">
		<g id="Group-12-Copy">
			<g id="Group-4">
				<g id="Fill-13-Copy-3">
					<g>
						<path id="path-13_00000032646418774913266770000017145367121005287303_" style="
				fill-rule: evenodd;
				clip-rule: evenodd;
				fill: #6794a1;
				stroke: #6794a1;
				" d="
			M173,236c-53.6,0-97-43.4-97-97s43.4-97,97-97s97,43.4,97,97S226.6,236,173,236z" />
					</g>
				</g>
			</g>
			<path id="Fill-15-Copy-3" style="
			fill-rule: evenodd;
			clip-rule: evenodd;
			fill: #ffcf7c;
		" d="M194.1,186.5c0.2-3,13.5-19.5,15.8-24.9
c2.3-5.4,2.2-40,2.1-49.4c0-5.9-6-7.3-7.5,0c-1.4,7.3-3.8,36.6-3.8,36.6l-3.9-0.2c0,0,0.4-51.5,0.4-62.6
c-0.1-11.1-11-11.9-11.4-0.9c-0.4,11-2.7,62.7-2.7,62.7l-3.7-0.2c0,0-1.8-68.4-2-75.6c-0.1-7.2-8.9-6.8-9.2,0.7
c-0.3,7.6-3.2,75.2-3.2,75.2l-4.4-0.5c0,0-3.7-49-4.4-63.3c-0.6-12.6-10.4-9.4-9.9-0.4c0.5,8.9,1.5,69.6,1.5,69.6
s-14.1-7.6-21.1-10.4c-7-2.8-16.5,3.1-6.5,9.8c9.9,6.7,44.5,31.2,44.5,31.2l3.6,22.8c0,0,1.5,5.8,13.4,3.5
c11.9-2.4,12.7-6.3,12.7-6.3S193.8,189.6,194.1,186.5z" />
		</g>
	</g>
	<g id="Chupon">
		<g id="Group-13-Copy" transform="translate(354.000000, 0.000000)">
			<g id="Group-7">
				<g id="Fill-13-Copy-4">
					<g>
						<path id="path-3_00000053510287683037965580000016390186255927121034_" style="
				fill-rule: evenodd;
				clip-rule: evenodd;
				fill: #f4785c;
				stroke: #f4785c;
				" d="
			M173,236c-53.6,0-97-43.4-97-97s43.4-97,97-97s97,43.4,97,97S226.6,236,173,236z" />
					</g>
				</g>
			</g>

			<g id="Group-7_00000062888100715976938030000015713848918207314871_"
				transform="translate(97.000000, 97.500000) rotate(28.000000) translate(-97.000000, -97.500000) translate(56.000000, 39.000000)">
				<g id="Group-10" transform="translate(-0.000000, 0.000000)">
					<path style="
				fill-rule: evenodd;
				clip-rule: evenodd;
				fill: #ffd9d8;
			" d="M154.8,56.6l-54.4,0c-7.5,0-13.6,6.2-13.6,13.8
		c0,6.7,4.8,12.3,11.1,13.5c-0.1,1.2-0.3,2.4-0.3,3.6c0,16.7,13.5,30.3,30,30.3c16.5,0,30-13.6,30-30.3c0-1.2-0.1-2.4-0.3-3.6
		c6.3-1.2,11.1-6.8,11.1-13.5C168.4,62.8,162.3,56.6,154.8,56.6z M127.6,107.5c-10.9,0-19.8-9-19.8-20c0-1.1,0.1-2.2,0.3-3.3
		l0.3,0l38.3,0l0.4,0c0.2,1.1,0.3,2.2,0.3,3.3C147.4,98.5,138.5,107.5,127.6,107.5z" />
					<path id="Fill-5" style="
				fill-rule: evenodd;
				clip-rule: evenodd;
				fill: #ffffff;
			" d="M114.8,51.8c-2.4,3.4-4.1,8.4,2.7,8.4l20.8-0.3
		c6.7,0,5-5,2.7-8.4l5.6-9.8l4.7-8.4c1.1-1.6,1.7-3.7,1.7-6.7c0-13.9-11.3-25.2-25.2-25.2s-25.2,11.3-25.2,25.2
		c0,4.2,3.7,10.1,5.4,13.4L114.8,51.8z" />
				</g>
			</g>
		</g>
	</g>
	<g id="Cacerola">
		<g id="Group-8" transform="translate(731.000000, 0.000000)">
			<g id="Group-14-Copy">
				<g id="Group-6_00000095323071052896534790000015273996790595454103_">
					<g id="Fill-13-Copy-2">
						<g>
							<path id="path-11_00000067204627831193697200000007586954557336765362_" style="
					fill-rule: evenodd;
					clip-rule: evenodd;
					fill: #ffd9d8;
					stroke: #ffd9d8;
				" d="
				M173,236c-53.6,0-97-43.4-97-97s43.4-97,97-97s97,43.4,97,97S226.6,236,173,236z" />
						</g>
					</g>
				</g>
			</g>
			<g id="Group-16" transform="translate(20.000000, 41.000000)">
				<path style="
			fill-rule: evenodd;
			clip-rule: evenodd;
			fill: #6794a1;
			" d="M229,105.5c0-10.2-8.3-18.5-18.5-18.5c-0.3,0-0.6,0-0.9,0
	c-2.7-4.2-7.4-7-12.8-7h-87.7c-5,0-9.5,2.4-12.2,6.2c-0.8-0.1-1.6-0.2-2.5-0.2C84.3,86,76,94.3,76,104.5c0,10,8,18.2,18,18.5
	v15.9c0,8.4,6.8,15.1,15.2,15.1h87.7c8.4,0,15.2-6.8,15.2-15.1v-14.9C221.5,123.2,229,115.2,229,105.5z M86.1,104.5
	c0-4.5,3.5-8.1,7.9-8.4v16.8C89.6,112.6,86.1,109,86.1,104.5z M212,113.8V97.2c3.9,0.7,6.9,4.1,6.9,8.3S215.9,113.1,212,113.8z" />
				<path style="fill: #363f52"
					d="M164.9,52.7c0.1-0.5,0.1-1.1,0.1-1.7c0-6.6-5.4-12-12-12s-12,5.4-12,12c0,0.5,0,1,0.1,1.5
	C116.6,56.7,96,72.9,96,76v0.5c0,3.6,2.9,6.5,6.6,6.5h103.9c3.6,0,6.6-2.9,6.6-6.5C213,73.5,189.9,57.2,164.9,52.7z M147,51
	c0-3.3,2.7-6,6-6s6,2.7,6,6c0,0.3,0,0.6-0.1,0.8c-2.1-0.2-4.3-0.3-6.4-0.3c-1.8,0-3.6,0.1-5.5,0.2C147,51.5,147,51.2,147,51z" />
			</g>
		</g>
	</g>
	<g id="Escoba">
		<g id="Group-11-Copy" transform="translate(1113.000000, 0.000000)">
			<g id="Group-5">
				<g id="Fill-13-Copy">
					<g>
						<path id="path-5_00000008116959283133433040000017613812830779650490_" style="
				fill-rule: evenodd;
				clip-rule: evenodd;
				fill: #ffcf7c;
				stroke: #ffcf7c;
				" d="
			M270,139c0,53.6-43.4,97-97,97s-97-43.4-97-97s43.4-97,97-97S270,85.4,270,139" />
					</g>
				</g>
			</g>
			<g id="Group-7_00000087405504252334039520000018087075024606926524_"
				transform="translate(43.000000, 9.000000)">
				<g id="Group-3" transform="translate(0.000000, 125.641500)">
					<g id="Clip-2"></g>
					<defs>
						<filter id="Adobe_OpacityMaskFilter" filterUnits="userSpaceOnUse" x="76" y="42.1" width="69"
							height="49.9">
							<feColorMatrix type="matrix" values="1 0 0 0 0  0 1 0 0 0  0 0 1 0 0  0 0 0 1 0" />
						</filter>
					</defs>

					<mask maskUnits="userSpaceOnUse" x="76" y="42.1" width="69" height="49.9"
						id="mask-8_00000096018066429740339620000002122185004486618300_">
						<g style="filter: url(#Adobe_OpacityMaskFilter)">
							<polygon id="path-7_00000018950408506619735150000014565477776277227145_" style="
					fill-rule: evenodd;
					clip-rule: evenodd;
					fill: #ffffff;
				" points="
				76,42.1 145,42.1 145,92 76,92 						" />
						</g>
					</mask>

					<path id="Fill-1_00000143603575229273156320000017440079980139355282_" style="
				mask: url(#mask-8_00000096018066429740339620000002122185004486618300_);
				fill-rule: evenodd;
				clip-rule: evenodd;
				fill: #ffffff;
			" d="
		M113.6,51.5l-15-4.5l-13.8-4.9c-3.1,10-3.3,10.1-8.4,26.5c-2.9,9.4,8,10.8,12.5,3.8c3.8-5.8,5.6-8.7,6.5-10.8
		c-0.6,2.8-1.5,6.4-3.1,11.8c-2.9,9.4,10.1,11.8,12.5,3.8c3-9.7,3.7-10.9,5.2-15.1c-0.8,3.3-1.4,7.5-1.8,16.1
		c-0.5,9.8,10.1,11.8,12.5,3.8c2.2-7.1,3.1-9.7,3.9-12.3c-0.5,3.1-0.7,7.1-0.5,13.3c0.3,9.8,10.1,11.8,12.5,3.8
		c4.5-14.8,3.4-10.4,8.3-26.4L129.1,56L113.6,51.5z" />
				</g>
				<g id="Group-6" transform="translate(9.500000, 0.141500)">
					<g id="Clip-5"></g>
					<defs>
						<filter id="Adobe_OpacityMaskFilter_00000080178462757057608750000000392915414021787062_"
							filterUnits="userSpaceOnUse" x="76.2" y="42.4" width="73.4" height="140.4">
							<feColorMatrix type="matrix" values="1 0 0 0 0  0 1 0 0 0  0 0 1 0 0  0 0 0 1 0" />
						</filter>
					</defs>

					<mask maskUnits="userSpaceOnUse" x="76.2" y="42.4" width="73.4" height="140.4"
						id="mask-10_00000169540876756463450260000000517869394285122469_">
						<g style="
				filter: url(#Adobe_OpacityMaskFilter_00000080178462757057608750000000392915414021787062_);
				">
							<polygon id="path-9_00000091727162613725583120000003858213854847590846_" style="
					fill-rule: evenodd;
					clip-rule: evenodd;
					fill: #ffffff;
				" points="
				76.2,42.4 149.6,42.4 149.6,182.7 76.2,182.7 						" />
						</g>
					</mask>

					<path id="Fill-4" style="
				mask: url(#mask-10_00000169540876756463450260000000517869394285122469_);
				fill-rule: evenodd;
				clip-rule: evenodd;
				fill: #363f52;
			" d="
		M149.4,48.2c0.7-2.4-0.6-4.9-3-5.6c-2.4-0.7-4.9,0.6-5.6,3l-26.9,86l0,0l-8.3-2.2c-1.6-0.5-3.3,0.4-3.7,2l-1.9,6.2
		c-0.5,1.6,0.4,3.3,2,3.7l1.2,0.4c-19.9,1.2-26.9,22.6-26.9,22.6l60.4,18.5c0,0,5.6-21.9-10.4-34l1.1,0.3c1.6,0.5,3.3-0.4,3.7-2
		l1.9-6.2c0.5-1.6-0.4-3.3-2-3.7l-6.9-2.4v0L149.4,48.2z" />
				</g>
			</g>
		</g>
	</g>
</svg>