<svg width="400" height="304" viewBox="0 0 400 304" xmlns="http://www.w3.org/2000/svg" xmlns:xlink="http://www.w3.org/1999/xlink">
    <defs>
        <filter x="-3.1%" y="-4%" width="107.2%" height="109.3%" filterUnits="objectBoundingBox" id="8wg5gzuaia">
            <feOffset dy="2" in="SourceAlpha" result="shadowOffsetOuter1"/>
            <feGaussianBlur stdDeviation="2" in="shadowOffsetOuter1" result="shadowBlurOuter1"/>
            <feColorMatrix values="0 0 0 0 0 0 0 0 0 0 0 0 0 0 0 0 0 0 0.5 0" in="shadowBlurOuter1" result="shadowMatrixOuter1"/>
            <feMerge>
                <feMergeNode in="shadowMatrixOuter1"/>
                <feMergeNode in="SourceGraphic"/>
            </feMerge>
        </filter>
        <path id="gwv9cccvgb" d="M0 .925h66.423v66.422H0z"/>
    </defs>
    <g filter="url(#8wg5gzuaia)" transform="translate(4 2)" fill="none" fill-rule="evenodd">
        <path d="M344.596 175.278c2.147 0 2.15-3.337 0-3.337-2.147 0-2.151 3.337 0 3.337" fill="#F2C1B9"/>
        <path d="m198.777 33.518 9.542.02" stroke="#373F50" stroke-width="8" stroke-linecap="round" stroke-linejoin="round"/>
        <path d="M227.23 33.568c34.162.051 90.02.102 115.404-.051 51.257-.306 52.462 52.78 0 53.012-52.462.232-142.83 0-238.333 0-95.503 0-93.45 66.954 0 66.954h245.06c46.584 0 54.799 57.292 0 57.292H84.934c-58.677 0-52.23 54.056 0 54.056h99.324c2.333 1.274 22.927-2.727 29.38 35.107" stroke="#FFF" stroke-width="8" stroke-linecap="round" stroke-linejoin="round" stroke-dasharray="18.913,18.913"/>
        <path d="M243.216 33.212c0 18.341-14.869 33.21-33.21 33.21-18.343 0-33.213-14.868-33.213-33.21C176.793 14.869 191.663 0 210.005 0c18.342 0 33.211 14.87 33.211 33.212" fill="#E27F63"/>
        <path d="M217.18 60.799s-.285-6.004-.186-7.254c.1-1.25 5.487-8.016 6.436-10.232.95-2.216.884-16.452.853-20.283-.02-2.415-2.447-3.016-3.038.014-.586 3.003-1.552 15.032-1.552 15.032l-1.575-.066s.173-21.144.146-25.71c-.027-4.565-4.481-4.87-4.646-.353-.164 4.516-1.082 25.75-1.082 25.75l-1.521-.064s-.753-28.1-.81-31.067c-.055-2.968-3.628-2.81-3.754.308-.127 3.118-1.295 30.91-1.295 30.91l-1.774-.187s-1.503-20.147-1.8-25.996c-.261-5.192-4.24-3.86-4.041-.17.198 3.675.627 28.599.627 28.599s-5.733-3.113-8.586-4.274c-2.853-1.161-6.714 1.259-2.661 4.015 4.053 2.756 18.153 12.826 18.153 12.826l1.476 9.35s.596 2.399 5.453 1.427c4.857-.971 5.177-2.575 5.177-2.575" fill="#FFF"/>
        <path d="M175.592 212.855c0 18.341-14.869 33.21-33.21 33.21-18.343 0-33.213-14.869-33.213-33.21 0-18.343 14.87-33.212 33.212-33.212 18.342 0 33.211 14.87 33.211 33.212" fill="#FFD9D8"/>
        <path d="M152.11 240.442s-.285-6.004-.186-7.254c.1-1.25 5.487-8.016 6.436-10.232.95-2.216.884-16.452.853-20.283-.02-2.415-2.447-3.016-3.038.014-.586 3.003-1.552 15.032-1.552 15.032l-1.575-.066s.173-21.144.146-25.71c-.027-4.565-4.48-4.87-4.646-.353-.164 4.516-1.082 25.75-1.082 25.75l-1.52-.064s-.754-28.1-.81-31.067c-.056-2.968-3.629-2.81-3.755.308-.127 3.118-1.295 30.91-1.295 30.91l-1.774-.187s-1.503-20.147-1.799-25.996c-.262-5.192-4.24-3.86-4.042-.17.197 3.675.627 28.599.627 28.599s-5.733-3.113-8.586-4.274c-2.853-1.161-6.714 1.259-2.66 4.015 4.052 2.756 18.152 12.826 18.152 12.826l1.476 9.35s.596 2.399 5.453 1.427c4.857-.971 5.177-2.575 5.177-2.575" fill="#E27F63"/>
        <path d="M377.546 156.878c0 18.342-14.869 33.21-33.21 33.21-18.343 0-33.213-14.868-33.213-33.21s14.87-33.211 33.212-33.211c18.342 0 33.211 14.869 33.211 33.21" fill="#FDD089"/>
        <path d="M354.064 184.465s-.285-6.004-.186-7.254c.1-1.25 5.487-8.016 6.436-10.232.95-2.216.884-16.452.853-20.283-.02-2.415-2.447-3.016-3.038.014-.586 3.003-1.552 15.032-1.552 15.032l-1.575-.066s.173-21.144.146-25.71c-.027-4.565-4.481-4.87-4.646-.353-.164 4.516-1.082 25.75-1.082 25.75l-1.521-.064s-.753-28.1-.809-31.067c-.056-2.968-3.629-2.81-3.755.308-.127 3.118-1.295 30.91-1.295 30.91l-1.774-.187s-1.503-20.147-1.799-25.996c-.262-5.192-4.241-3.86-4.042-.17.198 3.675.627 28.599.627 28.599s-5.733-3.113-8.586-4.274c-2.853-1.161-6.713 1.259-2.661 4.015 4.053 2.756 18.153 12.826 18.153 12.826l1.476 9.35s.596 2.399 5.453 1.427c4.857-.971 5.177-2.575 5.177-2.575" fill="#373F50"/>
        <g transform="translate(0 83.853)">
            <mask id="30tjbw75ac" fill="#fff">
                <use xlink:href="#gwv9cccvgb"/>
            </mask>
            <path d="M66.423 34.136c0 18.342-14.87 33.21-33.211 33.21C14.87 67.347 0 52.479 0 34.137S14.87.925 33.212.925c18.342 0 33.21 14.869 33.21 33.21" fill="#71939F" mask="url(#30tjbw75ac)"/>
        </g>
        <path d="M40.386 145.576s-.285-6.004-.186-7.254c.1-1.25 5.487-8.016 6.436-10.232.95-2.216.884-16.452.853-20.283-.02-2.415-2.447-3.016-3.038.014-.586 3.003-1.552 15.032-1.552 15.032l-1.575-.066s.173-21.144.146-25.709c-.027-4.566-4.481-4.87-4.646-.354-.164 4.516-1.082 25.75-1.082 25.75l-1.521-.064s-.753-28.1-.81-31.067c-.055-2.968-3.628-2.81-3.754.308-.127 3.118-1.295 30.91-1.295 30.91l-1.774-.187s-1.503-20.147-1.8-25.996c-.261-5.192-4.24-3.86-4.041-.17.197 3.675.627 28.6.627 28.6s-5.733-3.114-8.586-4.275c-2.853-1.16-6.714 1.26-2.661 4.015 4.053 2.756 18.153 12.826 18.153 12.826l1.476 9.351s.596 2.398 5.453 1.426c4.857-.97 5.177-2.575 5.177-2.575" fill="#FDD089"/>
    </g>
</svg>
