<?xml version="1.0" encoding="utf-8"?>
<!-- Generator: Adobe Illustrator 26.3.1, SVG Export Plug-In . SVG Version: 6.00 Build 0)  -->
<svg version="1.1" id="Capa_1" xmlns="http://www.w3.org/2000/svg" xmlns:xlink="http://www.w3.org/1999/xlink" x="0px" y="0px"
	 viewBox="0 0 47 47" style="enable-background:new 0 0 47 47;" xml:space="preserve">
<style type="text/css">
	.st0{fill:none;stroke:#363F52;stroke-width:3;stroke-miterlimit:10;}
	.st1{fill:#363F52;}
</style>
<circle class="st0" cx="23.5" cy="23.5" r="22.5"/>
<g>
	<path class="st1" d="M23.5,13.4c-1,0-1.7-0.1-2.1-0.4c-0.5-0.2-0.7-0.6-0.9-1c-0.1-0.4-0.2-0.9-0.2-1.5c0-0.6,0.1-1,0.2-1.5
		c0.1-0.4,0.4-0.7,0.9-1c0.5-0.2,1.2-0.4,2.2-0.4c1,0,1.7,0.1,2.2,0.4c0.4,0.3,0.7,0.6,0.9,1c0.1,0.4,0.2,0.9,0.2,1.5
		c0,0.5-0.1,1-0.2,1.4s-0.4,0.8-0.9,1C25.2,13.3,24.5,13.4,23.5,13.4z M23.5,39.5c-0.9,0-1.6-0.1-2-0.4c-0.4-0.2-0.7-0.6-0.8-1
		c-0.1-0.4-0.2-0.8-0.2-1.3V20.3c0-0.5,0.1-0.9,0.2-1.3c0.1-0.4,0.4-0.7,0.8-1c0.4-0.2,1.1-0.4,2-0.4c0.9,0,1.6,0.1,2,0.4
		c0.4,0.2,0.7,0.6,0.8,1c0.1,0.4,0.2,0.9,0.2,1.4v16.4c0,0.5,0,1-0.2,1.3c-0.1,0.4-0.4,0.7-0.8,0.9C25.1,39.3,24.4,39.5,23.5,39.5z"
		/>
</g>
</svg>
