<?xml version="1.0" encoding="utf-8"?>
<!-- Generator: Adobe Illustrator 26.2.1, SVG Export Plug-In . SVG Version: 6.00 Build 0)  -->
<svg version="1.1" id="Capa_1" xmlns="http://www.w3.org/2000/svg" xmlns:xlink="http://www.w3.org/1999/xlink" x="0px" y="0px"
	 viewBox="0 0 556.8 60.1" style="enable-background:new 0 0 556.8 60.1;" xml:space="preserve">
<style type="text/css">
	.st0{fill:#FFFFFF;}
	.st1{fill:#E27F63;}
	.st2{fill-rule:evenodd;clip-rule:evenodd;fill:#FFD9D8;}
	.st3{fill-rule:evenodd;clip-rule:evenodd;fill:#71939F;}
	.st4{fill-rule:evenodd;clip-rule:evenodd;fill:#363F52;}
	.st5{fill:none;stroke:#363F52;stroke-width:1.41;}
	.st6{fill-rule:evenodd;clip-rule:evenodd;fill:#FDD089;}
	.st7{fill-rule:evenodd;clip-rule:evenodd;fill:#FFFFFF;}
	.st8{fill-rule:evenodd;clip-rule:evenodd;fill:#E27F63;}
</style>
<g id="a">
</g>
<g>
	<g>
		<path class="st0" d="M25.7,0.1C25.3,0,24.9,0,24.6,0H10.7C10.4,0,10,0,9.6,0.1C9.3,0.1,9,0.3,8.7,0.6C8.5,1,8.4,1.5,8.4,2.3
			S8.5,3.6,8.7,4C9,4.3,9.3,4.5,9.6,4.5c0.4,0.1,0.7,0.1,1.1,0.1h4.2v13.8c0,0.4,0,0.9,0.1,1.3c0.1,0.4,0.3,0.8,0.7,1
			c0.4,0.3,1,0.4,1.9,0.4c0.9,0,1.6-0.1,1.9-0.4c0.4-0.3,0.6-0.6,0.7-1s0.1-0.8,0.1-1.3V4.6h4.2c0.4,0,0.8,0,1.1-0.1
			s0.6-0.3,0.9-0.6s0.4-0.9,0.4-1.6S26.7,1,26.5,0.6C26.3,0.3,26,0.1,25.7,0.1L25.7,0.1z"/>
		<path class="st0" d="M46.1,0.4c-0.4-0.3-1-0.4-2-0.4s-1.5,0.1-1.9,0.4c-0.4,0.3-0.6,0.6-0.7,1s-0.1,0.8-0.1,1.3v8.6
			c0,0.9-0.2,1.8-0.5,2.5s-0.8,1.3-1.3,1.7c-0.6,0.4-1.2,0.6-2,0.6c-1,0-1.8-0.3-2.3-0.8s-0.9-1.1-1.2-1.9c-0.2-0.7-0.3-1.4-0.3-2.1
			V2.8c0-0.5,0-0.9-0.1-1.4c-0.1-0.4-0.3-0.8-0.7-1c-0.4-0.3-1-0.4-2-0.4s-1.6,0.1-2,0.4s-0.6,0.6-0.7,1s-0.1,0.9-0.1,1.3v8.5
			c0,1.2,0.2,2.4,0.6,3.6c0.4,1.2,1,2.3,1.8,3.3s1.8,1.8,2.9,2.4s2.5,0.9,4,0.9s2.9-0.3,4.1-0.9s2.2-1.4,3-2.4s1.4-2.1,1.8-3.3
			c0.4-1.2,0.6-2.4,0.6-3.6V2.8c0-0.5,0-0.9-0.1-1.3S46.5,0.7,46.1,0.4L46.1,0.4z"/>
		<path class="st0" d="M72.9,0.4c-0.4-0.3-1-0.4-1.9-0.4s-1.6,0.1-2,0.4s-0.6,0.6-0.7,1s-0.1,0.9-0.1,1.3v5.5h-6.9V2.8
			c0-0.5,0-0.9-0.1-1.3c-0.1-0.4-0.3-0.8-0.7-1s-1-0.4-2-0.4s-1.6,0.1-2,0.4s-0.6,0.6-0.7,1s-0.1,0.9-0.1,1.3v15.6
			c0,0.4,0,0.9,0.1,1.3c0.1,0.4,0.3,0.8,0.7,1.1s1,0.4,1.9,0.4s1.6-0.1,2-0.4c0.4-0.3,0.6-0.6,0.7-1c0.1-0.4,0.1-0.9,0.1-1.3V13h6.9
			v5.4c0,0.4,0,0.9,0.1,1.3s0.3,0.8,0.7,1.1s1,0.4,1.9,0.4s1.6-0.1,2-0.4c0.4-0.3,0.6-0.6,0.7-1c0.1-0.4,0.1-0.9,0.1-1.3V2.8
			c0-0.5,0-0.9-0.1-1.3S73.3,0.7,72.9,0.4L72.9,0.4z"/>
		<path class="st0" d="M93.3,0.4C93,0.1,92.3,0,91.4,0s-1.6,0.1-1.9,0.4c-0.4,0.3-0.6,0.6-0.7,1s-0.1,0.8-0.1,1.3v8.6
			c0,0.9-0.2,1.8-0.5,2.5s-0.8,1.3-1.3,1.7c-0.6,0.4-1.2,0.6-2,0.6c-1,0-1.8-0.3-2.3-0.8s-0.9-1.1-1.2-1.9c-0.2-0.7-0.3-1.4-0.3-2.1
			V2.8c0-0.5,0-0.9-0.1-1.4s-0.3-0.8-0.7-1c-0.4-0.3-1-0.4-2-0.4s-1.6,0.1-2,0.4s-0.6,0.6-0.7,1c-0.1,0.4-0.1,0.9-0.1,1.3v8.5
			c0,1.2,0.2,2.4,0.6,3.6c0.4,1.2,1,2.3,1.8,3.3c0.8,1,1.8,1.8,2.9,2.4c1.2,0.6,2.5,0.9,4,0.9s2.9-0.3,4.1-0.9s2.2-1.4,2.9-2.4
			c0.8-1,1.4-2.1,1.8-3.3s0.6-2.4,0.6-3.6V2.8c0-0.5,0-0.9-0.1-1.3S93.7,0.7,93.3,0.4L93.3,0.4z"/>
		<path class="st0" d="M110,5.5c0.5,0,0.9,0,1.3-0.1s0.8-0.3,1-0.7c0.3-0.4,0.4-1,0.4-1.9s-0.1-1.6-0.4-2c-0.3-0.4-0.6-0.6-1-0.7
			C111,0,110.5,0,110,0H99c-1.1,0-1.8,0.2-2.2,0.6s-0.6,1.1-0.6,2.2v15.6c0,0.4,0,0.9,0.1,1.3s0.3,0.8,0.7,1.1s1,0.4,1.9,0.4H110
			c0.5,0,0.9,0,1.3-0.1s0.8-0.3,1-0.7c0.3-0.4,0.4-1,0.4-1.9s-0.1-1.6-0.4-2c-0.3-0.4-0.6-0.6-1-0.7c-0.4-0.1-0.8-0.1-1.3-0.1h-8.4
			V13h5.5c0.5,0,0.9,0,1.3-0.1s0.7-0.3,0.9-0.6s0.3-0.9,0.3-1.6c0-0.8-0.1-1.4-0.3-1.7s-0.5-0.5-0.9-0.6s-0.8-0.1-1.2-0.1h-5.6V5.5
			L110,5.5L110,5.5z"/>
		<path class="st0" d="M128.8,16.6c-0.4-0.1-0.7-0.1-1.1-0.1h-7.4V2.8c0-0.5,0-0.9-0.1-1.3s-0.3-0.8-0.7-1s-1-0.4-1.9-0.4
			s-1.6,0.1-2,0.4s-0.6,0.6-0.7,1s-0.1,0.9-0.1,1.3v15.6c0,0.4,0,0.9,0.1,1.3s0.3,0.8,0.7,1.1s1,0.4,1.9,0.4h10.1
			c0.4,0,0.8,0,1.1-0.1c0.3-0.1,0.6-0.3,0.9-0.6c0.2-0.3,0.4-0.9,0.4-1.6s-0.1-1.4-0.4-1.7S129.1,16.6,128.8,16.6L128.8,16.6z"/>
		<path class="st0" d="M146,16.6c-0.4-0.1-0.7-0.1-1.1-0.1h-7.4V2.8c0-0.5,0-0.9-0.1-1.3s-0.3-0.8-0.7-1s-1-0.4-1.9-0.4
			s-1.6,0.1-2,0.4s-0.6,0.6-0.7,1S132,2.3,132,2.8v15.6c0,0.4,0,0.9,0.1,1.3s0.3,0.8,0.7,1.1s1,0.4,1.9,0.4h10.1
			c0.4,0,0.8,0,1.1-0.1c0.4-0.1,0.6-0.3,0.9-0.6s0.4-0.9,0.4-1.6s-0.1-1.4-0.4-1.7C146.7,16.8,146.4,16.6,146,16.6L146,16.6z"/>
		<path class="st0" d="M161,1.6c-0.2-0.3-0.4-0.6-0.6-0.9c-0.3-0.2-0.6-0.4-0.9-0.6s-0.6-0.2-1-0.2c-0.5,0-1,0.2-1.5,0.4
			c-0.5,0.3-0.8,0.7-1.1,1.2l-7.6,15.7c-0.3,0.6-0.5,1.1-0.5,1.5c0,0.4,0.1,0.8,0.4,1.1c0.3,0.3,0.8,0.6,1.4,0.9
			c0.9,0.5,1.7,0.6,2.2,0.4s1-0.7,1.5-1.7l1.4-2.9h7.4l1.4,2.9c0.5,1,1,1.6,1.5,1.7c0.5,0.2,1.3,0,2.2-0.4c0.6-0.3,1.1-0.6,1.4-1
			s0.4-0.7,0.4-1.1s-0.2-0.9-0.5-1.5C168.6,17.4,161,1.6,161,1.6z M157,12.1l1.4-2.9l1.4,2.9L157,12.1L157,12.1z"/>
		<path class="st0" d="M192.6,3.1c-1-1-2.1-1.7-3.4-2.3S186.6,0,185.2,0H180c-0.9,0-1.6,0.1-2,0.4s-0.6,0.6-0.7,1s-0.1,0.9-0.1,1.3
			v15.6c0,0.5,0.1,0.9,0.1,1.4s0.3,0.8,0.7,1s1,0.4,1.9,0.4h5.1c1.5,0,2.9-0.3,4.1-0.8s2.4-1.3,3.4-2.3s1.8-2.1,2.3-3.4
			c0.6-1.3,0.8-2.7,0.8-4.1s-0.3-2.8-0.8-4.1C194.3,5.1,193.6,4,192.6,3.1L192.6,3.1z M189.5,13.1c-0.4,0.8-1.1,1.4-1.8,1.8
			c-0.8,0.4-1.6,0.7-2.5,0.7h-2.4V5.5h2.4c0.9,0,1.8,0.2,2.5,0.7c0.8,0.4,1.4,1.1,1.8,1.8s0.7,1.6,0.7,2.5S190,12.4,189.5,13.1z"/>
		<path class="st0" d="M212.6,15.8c-0.4-0.1-0.9-0.1-1.3-0.1h-8.4V13h5.5c0.5,0,0.9,0,1.3-0.1s0.7-0.3,0.9-0.6s0.3-0.9,0.3-1.6
			c0-0.8-0.1-1.4-0.3-1.7s-0.5-0.5-0.9-0.6s-0.8-0.1-1.2-0.1h-5.6V5.5h8.4c0.5,0,0.9,0,1.3-0.1s0.8-0.3,1-0.7c0.3-0.4,0.4-1,0.4-1.9
			s-0.1-1.6-0.4-2c-0.3-0.4-0.6-0.6-1-0.7S211.7,0,211.2,0h-11.1c-1.1,0-1.8,0.2-2.2,0.6s-0.6,1.1-0.6,2.2v15.6c0,0.4,0,0.9,0.1,1.3
			s0.3,0.8,0.7,1.1s1,0.4,1.9,0.4h11.1c0.5,0,0.9,0,1.3-0.1s0.8-0.3,1-0.7c0.3-0.4,0.4-1,0.4-1.9s-0.1-1.6-0.4-2
			C213.3,16.1,212.9,15.8,212.6,15.8L212.6,15.8z"/>
	</g>
	<g>
		<path class="st1" d="M13.3,37.8c0.8-0.6,1.7-1.1,2.6-1.3c0.9-0.3,1.8-0.4,2.5-0.4c0.9,0,1.7,0.1,2.2,0.2s1,0.3,1.4,0.5
			c0.3,0.2,0.6,0.4,0.8,0.5c0.5,0.3,0.9,0.6,1.3,0.8c0.4,0.2,0.7,0.3,1.1,0.3c0.5,0,1-0.2,1.5-0.6c0.5-0.4,1.1-1,1.7-1.8
			c0.3-0.5,0.6-0.9,0.7-1.3s0.2-0.8,0.2-1.2c0-0.8-0.3-1.4-0.8-1.9c-0.5-0.5-1.1-0.9-1.7-1.3c-0.2-0.1-0.6-0.4-1.4-0.8
			c-0.7-0.4-1.7-0.8-2.9-1.2c-1.2-0.4-2.5-0.6-4-0.6c-1.2,0-2.6,0.2-4,0.6c-1.5,0.4-2.9,1-4.4,1.7c-1.4,0.8-2.8,1.8-4,3.1
			c-1.2,1.3-2.2,2.8-2.9,4.5s-1.1,3.8-1.1,6s0.4,4.5,1.1,6.2s1.7,3.3,2.9,4.6s2.6,2.3,4,3.2s2.9,1.4,4.3,1.8
			c1.4,0.4,2.7,0.6,3.9,0.6c1.6,0,3.1-0.2,4.2-0.5s2.1-0.8,2.8-1.2s1.1-0.7,1.4-0.8c0.6-0.4,1.2-0.8,1.7-1.2c0.5-0.5,0.8-1,0.8-1.8
			c0-0.4-0.1-0.8-0.2-1.2s-0.4-0.9-0.7-1.4c-0.6-0.9-1.1-1.5-1.6-1.9c-0.5-0.4-1-0.6-1.5-0.6c-0.4,0-0.8,0.1-1.2,0.3
			S23.4,50,23,50.2c-0.4,0.2-0.8,0.5-1.2,0.7c-0.4,0.2-0.9,0.4-1.5,0.6s-1.2,0.2-2,0.2s-1.6-0.1-2.5-0.4c-0.9-0.3-1.8-0.7-2.6-1.3
			s-1.5-1.4-2-2.4s-0.8-2.2-0.8-3.6s0.2-2.6,0.8-3.6C11.8,39.2,12.5,38.4,13.3,37.8L13.3,37.8z"/>
		<path class="st1" d="M59.1,28.7c-0.6-0.4-1.5-0.6-2.9-0.6s-2.3,0.2-2.9,0.6c-0.6,0.4-0.9,0.9-1.1,1.5c-0.1,0.6-0.2,1.2-0.2,1.9
			v12.8c0,1.4-0.2,2.7-0.7,3.7c-0.5,1.1-1.1,1.9-2,2.5s-1.8,0.9-3,0.9c-1.5,0-2.7-0.4-3.5-1.2c-0.8-0.8-1.4-1.7-1.7-2.8
			c-0.3-1.1-0.5-2.1-0.5-3.1V32.2c0-0.7-0.1-1.4-0.2-2c-0.1-0.6-0.5-1.1-1-1.5S38,28,36.6,28s-2.3,0.2-2.9,0.6
			c-0.6,0.4-0.9,0.9-1,1.5c-0.1,0.6-0.2,1.3-0.2,2v12.6c0,1.8,0.3,3.5,0.9,5.3c0.6,1.8,1.5,3.5,2.6,5s2.6,2.7,4.3,3.6
			c1.7,0.9,3.7,1.4,6,1.4s4.3-0.5,6-1.3c1.7-0.9,3.2-2.1,4.4-3.6s2.1-3.1,2.7-4.9c0.6-1.8,0.9-3.6,0.9-5.4V32.2c0-0.7-0.1-1.4-0.2-2
			S59.6,29.1,59.1,28.7L59.1,28.7z"/>
		<path class="st1" d="M70.9,28.7c-0.6-0.4-1.5-0.6-2.9-0.6s-2.3,0.2-2.9,0.6c-0.6,0.4-0.9,0.9-1,1.5c-0.1,0.6-0.2,1.3-0.2,1.9v23.2
			c0,0.7,0.1,1.3,0.2,2c0.1,0.7,0.5,1.2,1,1.6s1.5,0.6,2.9,0.6s2.3-0.2,2.9-0.6c0.6-0.4,0.9-0.9,1-1.5c0.1-0.6,0.2-1.3,0.2-1.9V32.2
			c0-0.7-0.1-1.4-0.2-2S71.5,29.1,70.9,28.7z"/>
		<path class="st1" d="M98.7,32.6c-1.4-1.4-3.1-2.5-5-3.4s-3.9-1.2-6-1.2h-7.7c-1.4,0-2.3,0.2-2.9,0.6s-0.9,0.9-1,1.5
			c-0.1,0.6-0.2,1.3-0.2,1.9v23.2c0,0.7,0.1,1.4,0.2,2s0.5,1.1,1.1,1.5s1.5,0.6,2.8,0.6h7.6c2.2,0,4.2-0.4,6.1-1.2
			c1.9-0.8,3.6-2,5-3.4c1.4-1.5,2.6-3.1,3.4-5.1c0.8-1.9,1.2-4,1.2-6.2s-0.4-4.1-1.2-6C101.3,35.7,100.2,34,98.7,32.6L98.7,32.6z
			 M94.1,47.6c-0.7,1.1-1.6,2-2.7,2.7c-1.1,0.7-2.4,1-3.7,1H84v-15h3.6c1.4,0,2.6,0.3,3.8,1s2.1,1.6,2.7,2.7s1,2.4,1,3.8
			S94.8,46.4,94.1,47.6L94.1,47.6z"/>
		<path class="st1" d="M124.8,30.5c-0.2-0.5-0.6-0.9-0.9-1.3c-0.4-0.4-0.8-0.6-1.3-0.8s-1-0.3-1.5-0.3c-0.8,0-1.5,0.2-2.2,0.6
			s-1.2,1-1.6,1.7L106,53.8c-0.4,0.9-0.7,1.7-0.7,2.3s0.2,1.2,0.6,1.7c0.4,0.5,1.1,0.9,2.1,1.4c1.4,0.7,2.5,0.9,3.3,0.7
			c0.8-0.2,1.5-1.1,2.2-2.5l2.1-4.3h11l2.1,4.3c0.7,1.5,1.4,2.3,2.2,2.6s1.9,0,3.3-0.7c0.9-0.5,1.6-1,2-1.4s0.6-1,0.6-1.7
			s-0.3-1.4-0.7-2.3L124.8,30.5L124.8,30.5z M118.9,46l2.1-4.4l2.1,4.4C123.2,46,118.9,46,118.9,46z"/>
		<path class="st1" d="M162.3,32.6c-1.4-1.4-3.1-2.5-5-3.4s-3.9-1.2-6-1.2h-7.7c-1.4,0-2.4,0.2-2.9,0.6c-0.6,0.4-0.9,0.9-1,1.5
			s-0.2,1.3-0.2,1.9v23.2c0,0.7,0.1,1.4,0.2,2s0.5,1.1,1.1,1.5s1.5,0.6,2.8,0.6h7.6c2.2,0,4.2-0.4,6.1-1.2c1.9-0.8,3.6-2,5-3.4
			c1.4-1.5,2.6-3.1,3.4-5.1c0.8-1.9,1.2-4,1.2-6.2s-0.4-4.1-1.2-6C165,35.7,163.8,34,162.3,32.6L162.3,32.6z M157.8,47.6
			c-0.7,1.1-1.6,2-2.7,2.7c-1.1,0.7-2.4,1-3.7,1h-3.6v-15h3.6c1.4,0,2.6,0.3,3.8,1s2.1,1.6,2.7,2.7s1,2.4,1,3.8
			S158.4,46.4,157.8,47.6L157.8,47.6z"/>
		<path class="st1" d="M195.9,32.4c-1.4-1.5-3.1-2.6-5-3.4c-1.9-0.8-3.9-1.2-6.1-1.2s-4.1,0.4-6,1.3s-3.5,2-4.9,3.5
			c-1.4,1.5-2.5,3.2-3.3,5.2c-0.8,2-1.2,4.1-1.2,6.4s0.4,4.2,1.2,6.2c0.8,1.9,2,3.6,3.4,5.1c1.4,1.5,3.1,2.6,5,3.4s3.9,1.2,6.1,1.2
			s4.1-0.4,6-1.3c1.8-0.8,3.5-2,4.9-3.5s2.5-3.2,3.3-5.2c0.8-2,1.2-4,1.2-6.2s-0.4-4.4-1.2-6.4C198.5,35.6,197.4,33.8,195.9,32.4
			L195.9,32.4z M191.7,47c-0.4,1-0.9,1.8-1.6,2.5c-0.7,0.7-1.5,1.3-2.4,1.7s-1.9,0.6-2.9,0.6s-1.9-0.2-2.8-0.6
			c-0.9-0.4-1.7-1-2.3-1.7c-0.7-0.7-1.2-1.6-1.6-2.5s-0.6-2-0.6-3.1s0.2-2.1,0.6-3.1s0.9-1.8,1.6-2.5s1.4-1.3,2.3-1.7
			c0.9-0.4,1.8-0.6,2.9-0.6s1.9,0.2,2.8,0.6c0.9,0.4,1.7,1,2.3,1.7s1.2,1.6,1.6,2.5s0.6,2,0.6,3.1S192.1,46,191.7,47L191.7,47z"/>
		<path class="st1" d="M225.5,45.8c-0.4-1-0.8-1.8-1.4-2.5c-0.6-0.7-1.2-1.2-2-1.6s-1.5-0.8-2.3-1c-1-0.3-2-0.5-2.9-0.7
			c-1-0.2-1.8-0.4-2.6-0.5c-0.8-0.2-1.4-0.4-1.9-0.8c-0.5-0.3-0.7-0.8-0.7-1.5c0-0.3,0.1-0.5,0.2-0.8c0.1-0.2,0.3-0.4,0.5-0.6
			c0.2-0.2,0.5-0.3,0.8-0.4c0.3-0.1,0.6-0.2,0.9-0.2c0.8,0,1.4,0.1,1.8,0.2c0.4,0.2,0.7,0.4,1,0.6c0.2,0.2,0.5,0.4,0.7,0.6
			c1.1,0.7,2.1,1,3,0.8c0.9-0.2,1.8-0.9,2.6-2.2c0.8-1.2,1.2-2.1,1.1-2.8c-0.1-0.6-0.6-1.4-1.6-2.3c-0.1-0.1-0.3-0.3-0.7-0.6
			c-0.4-0.3-0.9-0.6-1.6-0.9s-1.5-0.6-2.6-0.9c-1.1-0.2-2.3-0.4-3.8-0.4c-2,0-3.9,0.4-5.5,1.3s-2.9,2-3.8,3.4
			c-0.9,1.4-1.4,3.1-1.4,4.9c0,1,0.1,1.9,0.3,2.7c0.2,0.8,0.5,1.5,0.8,2.2c0.4,0.7,0.8,1.2,1.3,1.7s1,0.9,1.6,1.2s1.1,0.7,1.8,0.9
			c1,0.4,2,0.8,3,1c1,0.2,1.9,0.5,2.8,0.7c0.8,0.2,1.5,0.5,2,0.7c0.5,0.3,0.8,0.7,0.8,1.2c0,0.6-0.1,1.2-0.4,1.5
			c-0.2,0.4-0.6,0.7-1.1,0.9s-1.2,0.3-2,0.3c-0.7,0-1.2-0.1-1.8-0.4c-0.5-0.3-1.1-0.8-1.8-1.6c-0.6-0.7-1.2-1.2-1.9-1.6
			s-1.3-0.5-2-0.4c-0.7,0.1-1.3,0.4-2,1.1c-0.8,0.7-1.3,1.4-1.6,2c-0.3,0.6-0.4,1.2-0.3,1.8s0.5,1.3,1.1,2c0.1,0.1,0.3,0.4,0.8,0.9
			s1,1.1,1.8,1.7c0.8,0.6,1.9,1.2,3.1,1.6c1.3,0.5,2.8,0.7,4.6,0.7c1.2,0,2.4-0.2,3.8-0.6c1.3-0.4,2.6-1,3.8-1.8
			c1.2-0.8,2.1-1.9,2.9-3.3s1.1-3,1.1-5C226,48,225.8,46.8,225.5,45.8L225.5,45.8z"/>
	</g>
</g>
<g id="d" transform="translate(146.000000, 21.500000) scale(1, -1) translate(-146.000000, -21.500000) translate(0.000000, 21.000000)">
	<g id="e">
		<path class="st0" d="M549-4.4h-10c-1.4,0-2.6-1.1-2.6-2.6s1.2-2.6,2.6-2.6h10c1.4,0,2.6,1.1,2.6,2.6S550.4-4.4,549-4.4z M529-4.4
			h-10c-1.4,0-2.6-1.1-2.6-2.6s1.2-2.6,2.6-2.6h10c1.4,0,2.6,1.1,2.6,2.6S530.4-4.4,529-4.4z M509-4.4h-10c-1.4,0-2.6-1.1-2.6-2.6
			s1.1-2.6,2.6-2.6h10c1.4,0,2.6,1.1,2.6,2.6S510.4-4.4,509-4.4z M489-4.4h-10c-1.4,0-2.6-1.1-2.6-2.6s1.1-2.6,2.6-2.6h10
			c1.4,0,2.6,1.1,2.6,2.6S490.4-4.4,489-4.4z M469-4.4h-10c-1.4,0-2.6-1.1-2.6-2.6s1.1-2.6,2.6-2.6h10c1.4,0,2.6,1.1,2.6,2.6
			S470.4-4.4,469-4.4z M449-4.4h-10c-1.4,0-2.6-1.1-2.6-2.6s1.1-2.6,2.6-2.6h10c1.4,0,2.6,1.1,2.6,2.6S450.4-4.4,449-4.4z M429-4.4
			h-10c-1.4,0-2.6-1.1-2.6-2.6s1.1-2.6,2.6-2.6h10c1.4,0,2.6,1.1,2.6,2.6S430.4-4.4,429-4.4z M409-4.4h-10c-1.4,0-2.6-1.1-2.6-2.6
			s1.1-2.6,2.6-2.6h10c1.4,0,2.6,1.1,2.6,2.6S410.4-4.4,409-4.4z M389-4.4h-10c-1.4,0-2.6-1.1-2.6-2.6s1.1-2.6,2.6-2.6h10
			c1.4,0,2.6,1.1,2.6,2.6S390.4-4.4,389-4.4z M369-4.4h-10c-1.4,0-2.6-1.1-2.6-2.6s1.1-2.6,2.6-2.6h10c1.4,0,2.6,1.1,2.6,2.6
			S370.4-4.4,369-4.4z M349-4.4h-10c-1.4,0-2.6-1.1-2.6-2.6s1.1-2.6,2.6-2.6h10c1.4,0,2.6,1.1,2.6,2.6S350.4-4.4,349-4.4z M329-4.4
			h-10c-1.4,0-2.6-1.1-2.6-2.6s1.1-2.6,2.6-2.6h10c1.4,0,2.6,1.1,2.6,2.6S330.4-4.4,329-4.4z M309-4.4h-10c-1.4,0-2.6-1.1-2.6-2.6
			s1.1-2.6,2.6-2.6h10c1.4,0,2.6,1.1,2.6,2.6S310.4-4.4,309-4.4z M289-4.4h-10c-1.4,0-2.6-1.1-2.6-2.6s1.1-2.6,2.6-2.6h10
			c1.4,0,2.6,1.1,2.6,2.6S290.4-4.4,289-4.4z M269-4.4h-10c-1.4,0-2.6-1.1-2.6-2.6s1.1-2.6,2.6-2.6h10c1.4,0,2.6,1.1,2.6,2.6
			S270.4-4.4,269-4.4z M249-4.4h-10c-1.4,0-2.6-1.1-2.6-2.6s1.1-2.6,2.6-2.6h10c1.4,0,2.6,1.1,2.6,2.6S250.4-4.4,249-4.4z"/>
	</g>
</g>
<g id="f" transform="translate(241.000000, 0.000000)">
	<g id="g">
		<g id="h">
			<g id="i">
				<path id="j" class="st2" d="M270.6,51c-12.2,0-22-9.9-22-22s9.9-22,22-22s22,9.9,22,22S282.7,51,270.6,51z"/>
			</g>
		</g>
	</g>
	<g id="l" transform="translate(4.000000, 8.000000)">
		<g id="m" transform="translate(0.000000, 8.208000)">
			<path id="n" class="st3" d="M280.2,11.8c-1.1,0-2,0.9-2,2s0.9,2,2,2s2-0.9,2-2S281.3,11.8,280.2,11.8 M280.2,18.1
				c-2.4,0-4.4-2-4.4-4.4s2-4.4,4.4-4.4s4.4,2,4.4,4.4S282.6,18.1,280.2,18.1"/>
			<path id="o" class="st3" d="M252.9,11.5c-1.1,0-2,0.9-2,2s0.9,2,2,2s2-0.9,2-2S254,11.5,252.9,11.5 M252.9,17.9
				c-2.4,0-4.4-2-4.4-4.4s2-4.4,4.4-4.4s4.4,2,4.4,4.4S255.3,17.9,252.9,17.9"/>
			<path id="p" class="st3" d="M256.4,25.2c-2,0-3.6-1.6-3.6-3.6V11.3c0-2,1.6-3.6,3.6-3.6H277c2,0,3.6,1.6,3.6,3.6v10.3
				c0,2-1.6,3.6-3.6,3.6H256.4z"/>
		</g>
		<g id="q" transform="translate(4.320000, 0.000000)">
			<path id="r" class="st4" d="M250.1,17.1c-0.9,0-1.5-0.7-1.5-1.5v-0.1c0-0.8,6.5-5.8,13.3-5.8c6.9,0,14.3,5.1,14.3,5.9
				s-0.7,1.5-1.5,1.5H250.1L250.1,17.1z"/>
			<path id="s" class="st5" d="M262,11.6c-1.2,0-2.1-1-2.1-2.1s1-2.1,2.1-2.1s2.1,0.9,2.1,2.1S263.2,11.6,262,11.6z"/>
		</g>
	</g>
</g>
<g>
	<g id="u">
		<g id="v">
			<path id="w" class="st6" d="M454.7,29c0,12.2-9.9,22-22,22s-22-9.9-22-22s9.9-22,22-22S454.7,16.8,454.7,29"/>
		</g>
	</g>
	<g id="y" transform="translate(8.944000, 1.872000)">
		<g id="a_x60_" transform="translate(0.000000, 26.133432)">
			<g>
				<path id="ad" class="st7" d="M421.5,12.7l-3.4-1l-3.1-1.1c-0.7,2.3-0.8,2.3-1.9,6c-0.6,2.1,1.8,2.5,2.8,0.9
					c0.9-1.3,1.3-2,1.5-2.4c-0.1,0.6-0.3,1.5-0.7,2.7c-0.6,2.1,2.3,2.7,2.8,0.9c0.7-2.2,0.8-2.5,1.2-3.4c-0.2,0.8-0.3,1.7-0.4,3.7
					c-0.1,2.2,2.3,2.7,2.8,0.9c0.5-1.6,0.7-2.2,0.9-2.8c-0.1,0.7-0.2,1.6-0.1,3c0.1,2.2,2.3,2.7,2.8,0.9c1-3.4,0.8-2.4,1.9-6
					l-3.6-1.1L421.5,12.7L421.5,12.7z"/>
			</g>
		</g>
		<g id="ae" transform="translate(1.976000, 0.029432)">
			<g>
				<path id="ai" class="st4" d="M429.8,9.4c0.2-0.5-0.1-1.1-0.7-1.3c-0.5-0.2-1.1,0.1-1.3,0.7l-6.1,19.5l0,0l-1.9-0.5
					c-0.4-0.1-0.7,0.1-0.9,0.5l-0.4,1.4c-0.1,0.4,0.1,0.7,0.5,0.9l0.3,0.1c-4.5,0.3-6.1,5.1-6.1,5.1l13.7,4.2c0,0,1.3-5-2.4-7.7
					l0.2,0.1c0.4,0.1,0.7-0.1,0.9-0.5l0.4-1.4c0.1-0.4-0.1-0.7-0.5-0.9L424,29l0,0L429.8,9.4L429.8,9.4z"/>
			</g>
		</g>
	</g>
</g>
<g id="aj" transform="translate(87.000000, 0.000000)">
	<g id="ak">
		<g>
			<path id="ao" class="st3" d="M289.1,29c0,12.2-10,22.2-22.4,22.2s-22.4-9.9-22.4-22.2s10-22.2,22.4-22.2S289.1,16.7,289.1,29"/>
		</g>
	</g>
	<path id="ap" class="st6" d="M271.2,48.4c0,0-0.2-4.1-0.1-4.9c0.1-0.8,3.7-5.4,4.3-7c0.6-1.5,0.6-11.2,0.6-13.8c0-1.6-1.6-2-2,0
		c-0.4,2-1,10.2-1,10.2l-1,0c0,0,0.1-14.4,0.1-17.5c0-3.1-3-3.3-3.1-0.2c-0.1,3.1-0.7,17.5-0.7,17.5l-1,0c0,0-0.5-19.1-0.5-21.1
		s-2.4-1.9-2.5,0.2c-0.1,2.1-0.9,21-0.9,21l-1.2-0.1c0,0-1-13.7-1.2-17.7c-0.2-3.5-2.8-2.6-2.7-0.1c0.1,2.5,0.4,19.4,0.4,19.4
		s-3.8-2.1-5.8-2.9s-4.5,0.9-1.8,2.7s12.1,8.7,12.1,8.7l1,6.3c0,0,0.4,1.6,3.6,1S271.3,48.4,271.2,48.4"/>
</g>
<g id="ar">
	<g id="as">
		<path id="at" class="st8" d="M274.8,51c-12.2,0-22-9.9-22-22s9.9-22,22-22s22,9.9,22,22S287,51,274.8,51z"/>
	</g>
</g>
<g id="av" transform="translate(19.995413, 20.559993) rotate(28.000000) translate(-19.995413, -20.559993) translate(11.495413, 8.059993)">
	<g id="aw" transform="translate(-0.000000, 0.000000)">
		<path id="ax" class="st2" d="M240.2-93.9c-0.1,0.3-0.2,0.6-0.4,0.9c-1.2,2.2-3.9,3.1-6.1,1.9c-2.2-1.2-3-3.9-1.8-6.1
			c0.2-0.3,0.4-0.6,0.6-0.8l-1.6-0.9c-0.1-0.1-0.3-0.2-0.4-0.3c-0.2,0.3-0.4,0.6-0.6,0.9c-1.8,3.3-0.5,7.5,2.8,9.3
			c3.3,1.8,7.5,0.5,9.2-2.9c0.2-0.3,0.3-0.6,0.4-0.9c-0.2-0.1-0.3-0.1-0.5-0.2L240.2-93.9L240.2-93.9z"/>
		<path id="ay" class="st2" d="M244.6-98.4l-10.9-5.8c-1.5-0.8-3.4-0.2-4.2,1.3c-0.7,1.4-0.4,3,0.8,3.9c0.1,0.1,0.3,0.2,0.4,0.3
			l1.6,0.9l7.7,4.1l1.6,0.9c0.1,0.1,0.3,0.1,0.5,0.2c1.4,0.5,3-0.1,3.7-1.5C246.7-95.7,246.1-97.6,244.6-98.4"/>
		<path id="b_x60_" class="st7" d="M237.1-103.6c-0.8,0.4-1.7,1.2-0.4,2l4.2,2.1c1.4,0.7,1.5-0.5,1.4-1.4l2.2-1.4l1.8-1.2
			c0.4-0.2,0.7-0.6,1.1-1.2c1.5-2.8,0.4-6.2-2.4-7.7c-2.8-1.5-6.2-0.4-7.7,2.4c-0.5,0.8-0.3,2.4-0.4,3.3L237.1-103.6L237.1-103.6z"
			/>
	</g>
</g>
</svg>
