<?xml version="1.0" encoding="utf-8"?>
<!-- Generator: Adobe Illustrator 26.2.1, SVG Export Plug-In . SVG Version: 6.00 Build 0)  -->
<svg version="1.1" id="Capa_1" xmlns="http://www.w3.org/2000/svg" xmlns:xlink="http://www.w3.org/1999/xlink" x="0px" y="0px"
	 viewBox="0 0 253 103" style="enable-background:new 0 0 253 103;" xml:space="preserve">
<g id="Boceto">
	<g id="Preguntas_THDC_-8-Mobile-Copy-24" transform="translate(-103.000000, -54.000000)">
		<g id="Group-22" transform="translate(83.000000, 0.000000)">
			<g id="Group-21">
				<g id="Group-5" transform="translate(20.000000, 48.000000)">
					<g id="Group-Copy" transform="translate(46.000000, 0.000000)">
						<g style="enable-background:new    ;">
							<path style="fill:#FFFFFF;" d="M12.8,6.6c0.2,0,0.4,0,0.6,0.1c0.2,0,0.3,0.2,0.4,0.3C13.9,7.1,14,7.4,14,7.8
								c0,0.4-0.1,0.6-0.2,0.8c-0.1,0.2-0.2,0.3-0.4,0.3C13.2,8.9,13,9,12.8,9H8.7v11.9c0,0.3,0,0.5-0.1,0.7
								c-0.1,0.2-0.2,0.4-0.4,0.5c-0.2,0.1-0.5,0.2-0.9,0.2c-0.4,0-0.7-0.1-0.9-0.2c-0.2-0.1-0.3-0.3-0.4-0.5C6,21.3,6,21.1,6,20.9
								V9H1.9c-0.2,0-0.4,0-0.6-0.1S1,8.7,0.8,8.6C0.7,8.4,0.7,8.2,0.7,7.8c0-0.4,0.1-0.6,0.2-0.8c0.1-0.2,0.2-0.3,0.4-0.3
								c0.2,0,0.4-0.1,0.6-0.1H12.8z"/>
							<path style="fill:#FFFFFF;" d="M22.5,22.3c-1,0-2-0.2-2.8-0.6c-0.8-0.4-1.5-0.9-2-1.6c-0.6-0.7-1-1.5-1.3-2.3
								S16,16.1,16,15.1V7.9c0-0.3,0-0.5,0.1-0.7s0.2-0.4,0.4-0.5c0.2-0.1,0.5-0.2,0.9-0.2c0.4,0,0.7,0.1,0.9,0.2
								c0.2,0.1,0.3,0.3,0.4,0.5s0.1,0.4,0.1,0.7v7.1c0,0.8,0.1,1.6,0.4,2.3c0.3,0.7,0.7,1.2,1.3,1.7c0.6,0.4,1.3,0.6,2.2,0.6
								c0.8,0,1.5-0.2,2-0.6c0.6-0.4,1-0.9,1.3-1.6c0.3-0.7,0.5-1.5,0.5-2.4V7.8c0-0.2,0-0.4,0.1-0.6c0.1-0.2,0.2-0.3,0.4-0.4
								s0.5-0.2,0.9-0.2c0.4,0,0.7,0.1,0.9,0.2c0.2,0.1,0.3,0.3,0.3,0.5C29,7.5,29,7.7,29,8v7.2c0,1-0.1,1.9-0.4,2.8
								s-0.7,1.6-1.3,2.3c-0.6,0.7-1.3,1.2-2.1,1.6C24.5,22.1,23.5,22.3,22.5,22.3z"/>
							<path style="fill:#FFFFFF;" d="M38.5,22.2c-0.4,0-0.7-0.1-0.9-0.2c-0.2-0.1-0.3-0.3-0.4-0.5s-0.1-0.4-0.1-0.7V7.9
								c0-0.2,0-0.5,0.1-0.7s0.2-0.4,0.4-0.5c0.2-0.1,0.5-0.2,0.9-0.2c0.4,0,0.7,0.1,0.9,0.2c0.2,0.1,0.3,0.3,0.3,0.5
								c0,0.2,0.1,0.4,0.1,0.7v12.9c0,0.2,0,0.5-0.1,0.7c-0.1,0.2-0.2,0.4-0.4,0.5C39.3,22.1,39,22.2,38.5,22.2z M39.2,15.5v-2.4
								h8.2l0,2.4H39.2z M48.3,22.2c-0.4,0-0.7-0.1-0.9-0.2c-0.2-0.1-0.3-0.3-0.4-0.5c0-0.2-0.1-0.4-0.1-0.7V7.9
								c0-0.2,0-0.5,0.1-0.7s0.2-0.4,0.4-0.5c0.2-0.1,0.5-0.2,0.9-0.2c0.4,0,0.7,0.1,0.9,0.2c0.2,0.1,0.3,0.3,0.4,0.5
								s0.1,0.4,0.1,0.7v12.9c0,0.2,0,0.5-0.1,0.7c-0.1,0.2-0.2,0.4-0.4,0.5C49,22.1,48.7,22.2,48.3,22.2z"/>
							<path style="fill:#FFFFFF;" d="M58.8,22.3c-1,0-2-0.2-2.8-0.6c-0.8-0.4-1.5-0.9-2-1.6c-0.6-0.7-1-1.5-1.3-2.3
								s-0.4-1.8-0.4-2.8V7.9c0-0.3,0-0.5,0.1-0.7s0.2-0.4,0.4-0.5c0.2-0.1,0.5-0.2,0.9-0.2c0.4,0,0.7,0.1,0.9,0.2
								c0.2,0.1,0.3,0.3,0.4,0.5S55,7.7,55,8v7.1c0,0.8,0.1,1.6,0.4,2.3c0.3,0.7,0.7,1.2,1.3,1.7c0.6,0.4,1.3,0.6,2.2,0.6
								c0.8,0,1.5-0.2,2-0.6c0.6-0.4,1-0.9,1.3-1.6c0.3-0.7,0.5-1.5,0.5-2.4V7.8c0-0.2,0-0.4,0.1-0.6c0.1-0.2,0.2-0.3,0.4-0.4
								s0.5-0.2,0.9-0.2c0.4,0,0.7,0.1,0.9,0.2c0.2,0.1,0.3,0.3,0.3,0.5c0,0.2,0.1,0.4,0.1,0.7v7.2c0,1-0.1,1.9-0.4,2.8
								s-0.7,1.6-1.3,2.3c-0.6,0.7-1.3,1.2-2.1,1.6C60.8,22.1,59.8,22.3,58.8,22.3z"/>
							<path style="fill:#FFFFFF;" d="M69.4,22.2c-0.4,0-0.7-0.1-0.9-0.2c-0.2-0.1-0.3-0.3-0.4-0.5c0-0.2-0.1-0.4-0.1-0.7V7.9
								c0-0.5,0.1-0.9,0.3-1.1c0.2-0.2,0.6-0.3,1.1-0.3h8.7c0.3,0,0.5,0,0.7,0.1s0.4,0.2,0.5,0.4c0.1,0.2,0.2,0.5,0.2,0.9
								c0,0.4-0.1,0.7-0.2,0.9c-0.1,0.2-0.3,0.3-0.5,0.4c-0.2,0-0.4,0.1-0.7,0.1h-7.4v3.8h5.1c0.3,0,0.5,0,0.6,0.1
								c0.2,0.1,0.3,0.2,0.4,0.3c0.1,0.2,0.2,0.4,0.2,0.8c0,0.4-0.1,0.6-0.2,0.8c-0.1,0.2-0.3,0.3-0.4,0.3s-0.4,0.1-0.7,0.1h-5.1v4
								h7.4c0.3,0,0.5,0,0.7,0.1c0.2,0.1,0.4,0.2,0.5,0.4c0.1,0.2,0.2,0.5,0.2,0.9c0,0.4-0.1,0.7-0.2,0.9c-0.1,0.2-0.3,0.3-0.5,0.4
								c-0.2,0.1-0.4,0.1-0.7,0.1H69.4z"/>
							<path style="fill:#FFFFFF;" d="M83.2,22.2c-0.4,0-0.7-0.1-0.9-0.2c-0.2-0.1-0.3-0.3-0.4-0.5c-0.1-0.2-0.1-0.4-0.1-0.7V8
								c0-0.3,0-0.5,0.1-0.7c0.1-0.2,0.2-0.4,0.4-0.5s0.5-0.2,0.9-0.2c0.4,0,0.7,0.1,0.9,0.2c0.2,0.1,0.3,0.3,0.4,0.5
								s0.1,0.4,0.1,0.7v11.9h6.8c0.2,0,0.4,0,0.6,0.1c0.2,0,0.3,0.1,0.4,0.3c0.1,0.2,0.2,0.4,0.2,0.8c0,0.4-0.1,0.6-0.2,0.8
								c-0.1,0.2-0.2,0.3-0.4,0.3c-0.2,0.1-0.4,0.1-0.6,0.1H83.2z"/>
							<path style="fill:#FFFFFF;" d="M95.7,22.2c-0.4,0-0.7-0.1-0.9-0.2c-0.2-0.1-0.3-0.3-0.4-0.5c-0.1-0.2-0.1-0.4-0.1-0.7V8
								c0-0.3,0-0.5,0.1-0.7c0.1-0.2,0.2-0.4,0.4-0.5c0.2-0.1,0.5-0.2,0.9-0.2c0.4,0,0.7,0.1,0.9,0.2s0.3,0.3,0.4,0.5
								C97,7.5,97.1,7.7,97.1,8v11.9h6.8c0.2,0,0.4,0,0.6,0.1c0.2,0,0.3,0.1,0.4,0.3c0.1,0.2,0.2,0.4,0.2,0.8c0,0.4-0.1,0.6-0.2,0.8
								c-0.1,0.2-0.2,0.3-0.4,0.3c-0.2,0.1-0.4,0.1-0.6,0.1H95.7z"/>
							<path style="fill:#FFFFFF;" d="M120.9,20.3c0.1,0.3,0.2,0.5,0.2,0.7s-0.1,0.4-0.2,0.6c-0.1,0.2-0.4,0.3-0.7,0.5
								c-0.5,0.2-0.8,0.3-1.1,0.2c-0.3-0.1-0.5-0.4-0.7-0.9l-5-10.5l-5,10.5c-0.2,0.5-0.5,0.7-0.7,0.8s-0.6,0-1.1-0.2
								c-0.3-0.1-0.5-0.3-0.7-0.5c-0.1-0.2-0.2-0.4-0.2-0.6c0-0.2,0.1-0.5,0.3-0.8l6.1-12.8c0.1-0.2,0.3-0.4,0.5-0.6
								c0.2-0.1,0.5-0.2,0.7-0.2c0.2,0,0.3,0,0.5,0.1c0.1,0.1,0.3,0.1,0.4,0.3c0.1,0.1,0.2,0.3,0.3,0.4L120.9,20.3z M109.5,18.2
								l1.1-2.3h5.8l1.1,2.3H109.5z"/>
							<path style="fill:#FFFFFF;" d="M129.4,22.2c-0.4,0-0.7-0.1-0.9-0.2c-0.2-0.1-0.3-0.3-0.4-0.5c-0.1-0.2-0.1-0.4-0.1-0.7V7.9
								c0-0.2,0-0.5,0.1-0.7c0.1-0.2,0.2-0.4,0.4-0.5c0.2-0.1,0.5-0.2,0.9-0.2l4.2,0c1.1,0,2.1,0.2,3,0.6c0.9,0.4,1.7,0.9,2.4,1.6
								c0.7,0.7,1.2,1.5,1.6,2.4c0.4,0.9,0.5,2,0.5,3.1c0,1.2-0.2,2.2-0.6,3.2c-0.4,1-0.9,1.8-1.6,2.5c-0.7,0.7-1.5,1.2-2.4,1.6
								c-0.9,0.4-1.9,0.6-3.1,0.6H129.4z M130.8,19.5h2.9c1,0,1.8-0.2,2.5-0.6c0.7-0.4,1.3-1,1.7-1.8c0.4-0.8,0.6-1.6,0.6-2.7
								c0-1-0.2-1.9-0.6-2.7c-0.4-0.8-1-1.4-1.7-1.8s-1.6-0.6-2.5-0.6h-2.8V19.5z"/>
							<path style="fill:#FFFFFF;" d="M144.9,22.2c-0.4,0-0.7-0.1-0.9-0.2c-0.2-0.1-0.3-0.3-0.4-0.5c0-0.2-0.1-0.4-0.1-0.7V7.9
								c0-0.5,0.1-0.9,0.3-1.1c0.2-0.2,0.6-0.3,1.1-0.3h8.7c0.3,0,0.5,0,0.7,0.1s0.4,0.2,0.5,0.4S155,7.5,155,8
								c0,0.4-0.1,0.7-0.2,0.9c-0.1,0.2-0.3,0.3-0.5,0.4c-0.2,0-0.4,0.1-0.7,0.1h-7.4v3.8h5.1c0.3,0,0.5,0,0.6,0.1
								c0.2,0.1,0.3,0.2,0.4,0.3s0.2,0.4,0.2,0.8c0,0.4-0.1,0.6-0.2,0.8c-0.1,0.2-0.3,0.3-0.4,0.3s-0.4,0.1-0.7,0.1h-5.1v4h7.4
								c0.3,0,0.5,0,0.7,0.1c0.2,0.1,0.4,0.2,0.5,0.4c0.1,0.2,0.2,0.5,0.2,0.9c0,0.4-0.1,0.7-0.2,0.9c-0.1,0.2-0.3,0.3-0.5,0.4
								c-0.2,0.1-0.4,0.1-0.7,0.1H144.9z"/>
						</g>
						<g style="enable-background:new    ;">
							<path style="fill:#F4785C;" d="M12.9,52.4c-0.9,0-1.8-0.1-2.9-0.4c-1.1-0.3-2.1-0.7-3.2-1.3c-1.1-0.6-2.1-1.4-3-2.3
								c-0.9-1-1.6-2.1-2.2-3.4c-0.5-1.3-0.8-2.9-0.8-4.6c0-1.7,0.3-3.2,0.8-4.4c0.5-1.3,1.3-2.4,2.1-3.3c0.9-0.9,1.9-1.7,2.9-2.3
								c1.1-0.6,2.2-1,3.2-1.3s2.1-0.4,3-0.4c1.1,0,2.1,0.1,3,0.4c0.9,0.3,1.6,0.6,2.1,0.9c0.5,0.3,0.9,0.5,1,0.6
								c0.4,0.3,0.9,0.6,1.2,0.9c0.4,0.3,0.6,0.8,0.6,1.4c0,0.3-0.1,0.6-0.2,0.9c-0.1,0.3-0.3,0.6-0.5,1c-0.4,0.6-0.9,1.1-1.2,1.4
								c-0.4,0.3-0.8,0.4-1.1,0.4c-0.3,0-0.6-0.1-0.8-0.2s-0.6-0.3-1-0.6c-0.2-0.1-0.4-0.2-0.6-0.4c-0.2-0.1-0.6-0.3-1-0.4
								c-0.4-0.1-1-0.2-1.7-0.2c-0.6,0-1.2,0.1-1.9,0.3c-0.7,0.2-1.3,0.5-1.9,1c-0.6,0.5-1.1,1.1-1.5,1.8C7.1,38.5,7,39.4,7,40.5
								c0,1.1,0.2,2,0.6,2.7c0.4,0.7,0.9,1.3,1.5,1.8c0.6,0.5,1.2,0.8,1.9,1c0.7,0.2,1.3,0.3,1.8,0.3c0.6,0,1.1,0,1.5-0.1
								s0.8-0.2,1.1-0.4c0.3-0.2,0.6-0.4,0.9-0.5c0.2-0.2,0.5-0.3,0.8-0.5s0.6-0.2,0.9-0.2c0.4,0,0.8,0.2,1.1,0.5
								c0.4,0.3,0.8,0.8,1.2,1.4c0.2,0.4,0.4,0.7,0.5,1c0.1,0.3,0.2,0.6,0.2,0.9c0,0.6-0.2,1-0.6,1.3c-0.4,0.3-0.8,0.6-1.2,0.9
								c-0.2,0.1-0.5,0.3-1,0.6c-0.5,0.3-1.2,0.6-2.1,0.9C15.2,52.2,14.1,52.4,12.9,52.4z"/>
							<path style="fill:#F4785C;" d="M32.5,52.4c-1.7,0-3.2-0.3-4.4-1c-1.3-0.7-2.3-1.6-3.2-2.7c-0.9-1.1-1.5-2.3-1.9-3.7
								c-0.4-1.3-0.6-2.6-0.6-4v-9.3c0-0.5,0-1,0.1-1.5c0.1-0.5,0.3-0.8,0.8-1.1c0.4-0.3,1.1-0.4,2.2-0.4s1.7,0.1,2.2,0.4
								c0.4,0.3,0.7,0.7,0.8,1.1c0.1,0.5,0.1,1,0.1,1.5v9.3c0,0.7,0.1,1.5,0.4,2.3c0.2,0.8,0.7,1.5,1.3,2c0.6,0.6,1.5,0.8,2.6,0.8
								c0.8,0,1.6-0.2,2.2-0.6c0.6-0.4,1.1-1,1.4-1.8c0.3-0.8,0.5-1.7,0.5-2.7v-9.4c0-0.5,0-0.9,0.1-1.4s0.4-0.8,0.8-1.1
								s1.1-0.4,2.1-0.4c1,0,1.7,0.2,2.1,0.5c0.4,0.3,0.7,0.7,0.7,1.2c0.1,0.5,0.1,1,0.1,1.5v9.3c0,1.3-0.2,2.7-0.7,4
								c-0.4,1.3-1.1,2.5-2,3.6c-0.9,1.1-2,2-3.2,2.6C35.7,52.1,34.2,52.4,32.5,52.4z"/>
							<path style="fill:#F4785C;" d="M47.7,52c-1,0-1.7-0.1-2.1-0.4c-0.4-0.3-0.7-0.7-0.8-1.2c-0.1-0.5-0.1-1-0.1-1.4V31.8
								c0-0.5,0-1,0.1-1.4c0.1-0.5,0.3-0.8,0.8-1.1c0.4-0.3,1.1-0.4,2.2-0.4s1.7,0.1,2.1,0.4c0.4,0.3,0.7,0.7,0.7,1.1
								c0.1,0.5,0.1,1,0.1,1.5V49c0,0.5,0,1-0.1,1.4c-0.1,0.5-0.3,0.8-0.8,1.1C49.5,51.9,48.7,52,47.7,52z"/>
							<path style="fill:#F4785C;" d="M55.7,52c-1,0-1.6-0.1-2.1-0.4c-0.4-0.3-0.7-0.7-0.8-1.1c-0.1-0.5-0.2-1-0.2-1.5V31.8
								c0-0.5,0-1,0.1-1.4c0.1-0.5,0.3-0.8,0.8-1.1c0.4-0.3,1.1-0.4,2.2-0.4h5.7c1.6,0,3.1,0.3,4.4,0.9s2.6,1.4,3.7,2.5
								c1.1,1.1,1.9,2.3,2.5,3.7c0.6,1.4,0.9,2.9,0.9,4.4c0,1.6-0.3,3.1-0.9,4.5c-0.6,1.4-1.5,2.7-2.5,3.7c-1.1,1.1-2.3,1.9-3.7,2.5
								c-1.4,0.6-2.9,0.9-4.5,0.9H55.7z M58.7,45.9h2.7c1,0,1.9-0.2,2.8-0.7c0.8-0.5,1.5-1.2,2-2s0.7-1.8,0.7-2.8
								c0-1-0.2-1.9-0.7-2.8c-0.5-0.8-1.2-1.5-2-2c-0.8-0.5-1.8-0.7-2.8-0.7h-2.7V45.9z"/>
							<path style="fill:#F4785C;" d="M96.4,47.8c0.3,0.7,0.5,1.2,0.5,1.7c0,0.5-0.1,0.9-0.4,1.2c-0.3,0.4-0.8,0.7-1.5,1.1
								c-1.1,0.5-1.9,0.7-2.5,0.5c-0.6-0.2-1.1-0.8-1.6-1.9l-5.6-11.6l-5.6,11.6c-0.5,1-1.1,1.7-1.7,1.8c-0.6,0.2-1.4,0-2.4-0.5
								c-0.7-0.3-1.2-0.7-1.5-1c-0.3-0.4-0.5-0.8-0.4-1.2c0-0.5,0.2-1,0.5-1.7l8.3-17.3c0.3-0.5,0.7-1,1.2-1.3
								c0.5-0.3,1.1-0.5,1.6-0.5c0.4,0,0.8,0.1,1.1,0.2c0.3,0.1,0.7,0.3,0.9,0.6c0.3,0.3,0.5,0.6,0.7,1L96.4,47.8z M80,47.2l2.5-5.2
								H88l2.5,5.2H80z"/>
							<path style="fill:#F4785C;" d="M101,52c-1,0-1.6-0.1-2.1-0.4c-0.4-0.3-0.7-0.7-0.8-1.1C98,50,98,49.5,98,49V31.8
								c0-0.5,0-1,0.1-1.4c0.1-0.5,0.3-0.8,0.8-1.1c0.4-0.3,1.1-0.4,2.2-0.4h5.7c1.6,0,3.1,0.3,4.4,0.9s2.6,1.4,3.7,2.5
								c1.1,1.1,1.9,2.3,2.5,3.7s0.9,2.9,0.9,4.4c0,1.6-0.3,3.1-0.9,4.5c-0.6,1.4-1.5,2.7-2.5,3.7c-1.1,1.1-2.3,1.9-3.7,2.5
								c-1.4,0.6-2.9,0.9-4.5,0.9H101z M104.1,45.9h2.7c1,0,1.9-0.2,2.8-0.7c0.8-0.5,1.5-1.2,2-2s0.7-1.8,0.7-2.8
								c0-1-0.2-1.9-0.7-2.8c-0.5-0.8-1.2-1.5-2-2c-0.8-0.5-1.8-0.7-2.8-0.7h-2.7V45.9z"/>
							<path style="fill:#F4785C;" d="M130.9,52.4c-1.6,0-3.1-0.3-4.5-0.9c-1.4-0.6-2.6-1.5-3.7-2.5c-1.1-1.1-1.9-2.3-2.5-3.8
								c-0.6-1.4-0.9-2.9-0.9-4.6c0-1.7,0.3-3.3,0.9-4.7c0.6-1.5,1.4-2.7,2.4-3.9c1-1.1,2.3-2,3.6-2.6c1.4-0.6,2.9-0.9,4.4-0.9
								c1.6,0,3.1,0.3,4.5,0.9c1.4,0.6,2.6,1.5,3.7,2.5c1.1,1.1,1.9,2.4,2.5,3.8c0.6,1.5,0.9,3,0.9,4.7c0,1.6-0.3,3.2-0.9,4.6
								c-0.6,1.4-1.4,2.7-2.5,3.8c-1.1,1.1-2.3,2-3.6,2.6S132.5,52.4,130.9,52.4z M130.8,46.3c0.8,0,1.5-0.1,2.1-0.4
								s1.2-0.7,1.7-1.2c0.5-0.5,0.9-1.1,1.2-1.9c0.3-0.7,0.4-1.5,0.4-2.3c0-0.8-0.1-1.6-0.4-2.3c-0.3-0.7-0.7-1.3-1.2-1.9
								c-0.5-0.5-1.1-1-1.7-1.3c-0.7-0.3-1.3-0.4-2.1-0.4c-0.8,0-1.5,0.1-2.1,0.4c-0.7,0.3-1.2,0.7-1.7,1.3
								c-0.5,0.5-0.9,1.2-1.2,1.9c-0.3,0.7-0.4,1.5-0.4,2.3c0,0.8,0.1,1.5,0.4,2.3c0.3,0.7,0.7,1.3,1.2,1.9c0.5,0.5,1.1,1,1.7,1.3
								C129.3,46.2,130,46.3,130.8,46.3z"/>
							<path style="fill:#F4785C;" d="M151.7,52.4c-1.4,0-2.5-0.2-3.4-0.5c-0.9-0.3-1.7-0.7-2.3-1.2c-0.6-0.5-1.1-0.9-1.4-1.2
								c-0.3-0.4-0.5-0.6-0.6-0.7c-0.4-0.6-0.7-1.1-0.8-1.5c-0.1-0.4,0-0.9,0.2-1.3c0.2-0.4,0.6-0.9,1.2-1.5c0.5-0.5,1-0.8,1.5-0.8
								c0.5-0.1,1,0,1.4,0.3c0.5,0.3,0.9,0.7,1.4,1.2c0.5,0.6,1,1,1.4,1.2c0.4,0.2,0.8,0.3,1.3,0.3c0.6,0,1.1-0.1,1.5-0.2
								c0.4-0.1,0.7-0.4,0.8-0.7c0.2-0.3,0.3-0.7,0.3-1.1c0-0.4-0.2-0.7-0.6-0.9c-0.4-0.2-0.9-0.4-1.5-0.5c-0.6-0.2-1.3-0.3-2-0.5
								c-0.8-0.2-1.5-0.4-2.2-0.7c-0.4-0.2-0.9-0.4-1.3-0.7c-0.4-0.3-0.8-0.6-1.2-0.9c-0.4-0.3-0.7-0.8-0.9-1.2
								c-0.3-0.5-0.5-1-0.6-1.6c-0.1-0.6-0.2-1.3-0.2-2c0-1.3,0.3-2.6,1-3.6c0.7-1.1,1.6-1.9,2.8-2.5c1.2-0.6,2.5-0.9,4-0.9
								c1.1,0,2,0.1,2.8,0.3s1.4,0.4,1.9,0.6s0.9,0.5,1.1,0.7s0.4,0.3,0.5,0.4c0.7,0.7,1.1,1.2,1.2,1.7c0.1,0.5-0.2,1.2-0.8,2
								c-0.7,1-1.3,1.5-2,1.6c-0.6,0.1-1.4-0.1-2.2-0.6c-0.2-0.1-0.4-0.3-0.5-0.4c-0.2-0.2-0.4-0.3-0.7-0.4
								c-0.3-0.1-0.7-0.2-1.3-0.2c-0.2,0-0.4,0-0.7,0.1c-0.2,0.1-0.4,0.2-0.6,0.3c-0.2,0.1-0.3,0.3-0.4,0.4
								c-0.1,0.2-0.1,0.4-0.1,0.6c0,0.5,0.2,0.8,0.5,1.1c0.4,0.3,0.8,0.4,1.4,0.6c0.6,0.1,1.2,0.3,1.9,0.4s1.4,0.3,2.2,0.5
								c0.6,0.2,1.2,0.5,1.7,0.8c0.6,0.3,1,0.7,1.5,1.2c0.4,0.5,0.8,1.1,1,1.8c0.3,0.7,0.4,1.6,0.4,2.6c0,1.4-0.3,2.7-0.8,3.7
								c-0.6,1-1.3,1.8-2.1,2.4c-0.9,0.6-1.8,1.1-2.8,1.3C153.5,52.2,152.6,52.4,151.7,52.4z"/>
						</g>
					</g>
					<g id="Group-45" transform="translate(0.000000, 72.000000)">
						<g id="Group-3" transform="translate(0.000000, 17.227040)">
							<defs>
								<filter id="Adobe_OpacityMaskFilter" filterUnits="userSpaceOnUse" x="0" y="0.3" width="252.1" height="4.1">
									<feColorMatrix  type="matrix" values="1 0 0 0 0  0 1 0 0 0  0 0 1 0 0  0 0 0 1 0"/>
								</filter>
							</defs>
							
								<mask maskUnits="userSpaceOnUse" x="0" y="0.3" width="252.1" height="4.1" id="mask-2_00000001627722020619517860000006338155066342492060_">
								<g style="filter:url(#Adobe_OpacityMaskFilter);">
									
										<polygon id="path-1_00000005264916745055688750000000019670039147018652_" style="fill-rule:evenodd;clip-rule:evenodd;fill:#FFFFFF;" points="
										0,0.3 252.1,0.3 252.1,4.4 0,4.4 									"/>
								</g>
							</mask>
							
								<path id="Fill-1" style="mask:url(#mask-2_00000001627722020619517860000006338155066342492060_);fill-rule:evenodd;clip-rule:evenodd;fill:#FFFFFF;" d="
								M10,4.4H2c-1.1,0-2-0.9-2-2c0-1.1,0.9-2,2-2h8c1.1,0,2,0.9,2,2C12.1,3.5,11.2,4.4,10,4.4 M26,4.4h-8c-1.1,0-2-0.9-2-2
								c0-1.1,0.9-2,2-2h8c1.1,0,2,0.9,2,2C28.1,3.5,27.2,4.4,26,4.4 M42,4.4h-8c-1.1,0-2-0.9-2-2c0-1.1,0.9-2,2-2h8
								c1.1,0,2,0.9,2,2C44.1,3.5,43.2,4.4,42,4.4 M58,4.4h-8c-1.1,0-2-0.9-2-2c0-1.1,0.9-2,2-2h8c1.1,0,2,0.9,2,2
								C60.1,3.5,59.2,4.4,58,4.4 M74,4.4h-8c-1.1,0-2-0.9-2-2c0-1.1,0.9-2,2-2h8c1.1,0,2,0.9,2,2C76.1,3.5,75.2,4.4,74,4.4 M90,4.4
								h-8c-1.1,0-2-0.9-2-2c0-1.1,0.9-2,2-2h8c1.1,0,2,0.9,2,2C92.1,3.5,91.2,4.4,90,4.4 M106,4.4h-8c-1.1,0-2-0.9-2-2
								c0-1.1,0.9-2,2-2h8c1.1,0,2,0.9,2,2C108.1,3.5,107.2,4.4,106,4.4 M122,4.4h-8c-1.1,0-2-0.9-2-2c0-1.1,0.9-2,2-2h8
								c1.1,0,2,0.9,2,2C124.1,3.5,123.2,4.4,122,4.4 M138,4.4h-8c-1.1,0-2-0.9-2-2c0-1.1,0.9-2,2-2h8c1.1,0,2,0.9,2,2
								C140.1,3.5,139.2,4.4,138,4.4 M154,4.4h-8c-1.1,0-2-0.9-2-2c0-1.1,0.9-2,2-2h8c1.1,0,2,0.9,2,2C156.1,3.5,155.2,4.4,154,4.4
								 M170,4.4h-8c-1.1,0-2-0.9-2-2c0-1.1,0.9-2,2-2h8c1.1,0,2,0.9,2,2C172.1,3.5,171.2,4.4,170,4.4 M186,4.4h-8c-1.1,0-2-0.9-2-2
								c0-1.1,0.9-2,2-2h8c1.1,0,2,0.9,2,2C188.1,3.5,187.2,4.4,186,4.4 M202,4.4h-8c-1.1,0-2-0.9-2-2c0-1.1,0.9-2,2-2h8
								c1.1,0,2,0.9,2,2C204.1,3.5,203.2,4.4,202,4.4 M218,4.4h-8c-1.1,0-2-0.9-2-2c0-1.1,0.9-2,2-2h8c1.1,0,2,0.9,2,2
								C220.1,3.5,219.2,4.4,218,4.4 M234,4.4h-8c-1.1,0-2-0.9-2-2c0-1.1,0.9-2,2-2h8c1.1,0,2,0.9,2,2C236.1,3.5,235.2,4.4,234,4.4
								 M250,4.4h-8c-1.1,0-2-0.9-2-2c0-1.1,0.9-2,2-2h8c1.1,0,2,0.9,2,2C252.1,3.5,251.2,4.4,250,4.4"/>
						</g>
						<g id="Group-6" transform="translate(211.200000, 0.427040)">
							<defs>
								
									<filter id="Adobe_OpacityMaskFilter_00000038386033763544785740000008863643254541683361_" filterUnits="userSpaceOnUse" x="0.1" y="0.4" width="35.2" height="35.2">
									<feColorMatrix  type="matrix" values="1 0 0 0 0  0 1 0 0 0  0 0 1 0 0  0 0 0 1 0"/>
								</filter>
							</defs>
							
								<mask maskUnits="userSpaceOnUse" x="0.1" y="0.4" width="35.2" height="35.2" id="mask-4_00000158727187832597199650000008720772935737026989_">
								<g style="filter:url(#Adobe_OpacityMaskFilter_00000038386033763544785740000008863643254541683361_);">
									
										<polygon id="path-3_00000061449475470504386000000010707766930185756599_" style="fill-rule:evenodd;clip-rule:evenodd;fill:#FFFFFF;" points="
										0.1,0.4 35.4,0.4 35.4,35.6 0.1,35.6 									"/>
								</g>
							</mask>
							
								<path id="Fill-4" style="mask:url(#mask-4_00000158727187832597199650000008720772935737026989_);fill-rule:evenodd;clip-rule:evenodd;" d="
								M17.7,35.6C8,35.6,0.1,27.7,0.1,18C0.1,8.3,8,0.4,17.7,0.4S35.4,8.3,35.4,18C35.4,27.7,27.5,35.6,17.7,35.6"/>
						</g>
						<g id="Group-9" transform="translate(211.200000, 0.427040)">
							<defs>
								
									<filter id="Adobe_OpacityMaskFilter_00000176763334848078081420000016200832766580153505_" filterUnits="userSpaceOnUse" x="0.1" y="0.4" width="35.2" height="35.2">
									<feColorMatrix  type="matrix" values="1 0 0 0 0  0 1 0 0 0  0 0 1 0 0  0 0 0 1 0"/>
								</filter>
							</defs>
							
								<mask maskUnits="userSpaceOnUse" x="0.1" y="0.4" width="35.2" height="35.2" id="mask-6_00000080166214409281677220000007143772264421501826_">
								<g style="filter:url(#Adobe_OpacityMaskFilter_00000176763334848078081420000016200832766580153505_);">
									
										<polygon id="path-5_00000174570431010990327250000008850261920108956588_" style="fill-rule:evenodd;clip-rule:evenodd;fill:#FFFFFF;" points="
										0.1,0.4 35.4,0.4 35.4,35.6 0.1,35.6 									"/>
								</g>
							</mask>
							
								<path id="Fill-7" style="mask:url(#mask-6_00000080166214409281677220000007143772264421501826_);fill-rule:evenodd;clip-rule:evenodd;fill:#FFD9D8;" d="
								M17.7,35.6C8,35.6,0.1,27.7,0.1,18C0.1,8.3,8,0.4,17.7,0.4S35.4,8.3,35.4,18C35.4,27.7,27.5,35.6,17.7,35.6"/>
						</g>
						<path id="Fill-10" style="fill-rule:evenodd;clip-rule:evenodd;fill:#71939F;" d="M240.2,23.3c-1.9,0-3.5-1.6-3.5-3.5
							s1.6-3.5,3.5-3.5s3.5,1.6,3.5,3.5S242.1,23.3,240.2,23.3 M240.2,18.2c-0.9,0-1.6,0.7-1.6,1.6c0,0.9,0.7,1.6,1.6,1.6
							c0.9,0,1.6-0.7,1.6-1.6C241.8,18.9,241.1,18.2,240.2,18.2"/>
						<path id="Fill-12" style="fill-rule:evenodd;clip-rule:evenodd;fill:#71939F;" d="M218.3,23.1c-1.9,0-3.5-1.6-3.5-3.5
							s1.6-3.5,3.5-3.5s3.5,1.6,3.5,3.5S220.2,23.1,218.3,23.1 M218.3,18c-0.9,0-1.6,0.7-1.6,1.6c0,0.9,0.7,1.6,1.6,1.6
							s1.6-0.7,1.6-1.6C219.9,18.7,219.2,18,218.3,18"/>
						<path id="Fill-14" style="fill-rule:evenodd;clip-rule:evenodd;fill:#71939F;" d="M221.1,28.9c-1.6,0-2.9-1.3-2.9-2.9v-8.2
							c0-1.6,1.3-2.9,2.9-2.9h16.5c1.6,0,2.9,1.3,2.9,2.9v8.2c0,1.6-1.3,2.9-2.9,2.9H221.1z"/>
						<path id="Fill-16" style="fill-rule:evenodd;clip-rule:evenodd;fill:#363F52;" d="M219.8,15.5c-0.7,0-1.2-0.5-1.2-1.2v-0.1
							c0-0.7,5.2-4.6,10.7-4.6c5.5,0,11.4,4.1,11.4,4.7c0,0.7-0.6,1.2-1.2,1.2H219.8z"/>
						<path id="Fill-18" style="fill-rule:evenodd;clip-rule:evenodd;fill:#363F52;" d="M229.3,8.4c-0.6,0-1.1,0.5-1.1,1.1
							c0,0.6,0.5,1.1,1.1,1.1c0.6,0,1.1-0.5,1.1-1.1C230.5,8.9,230,8.4,229.3,8.4 M229.3,11.7c-1.2,0-2.3-1-2.3-2.3s1-2.3,2.3-2.3
							c1.2,0,2.3,1,2.3,2.3S230.6,11.7,229.3,11.7"/>
						<path id="Fill-20" style="fill-rule:evenodd;clip-rule:evenodd;" d="M179.3,18.4c0,9.7-7.9,17.6-17.6,17.6
							s-17.6-7.9-17.6-17.6S152,0.8,161.7,0.8S179.3,8.7,179.3,18.4"/>
						<path id="Fill-22" style="fill-rule:evenodd;clip-rule:evenodd;fill:#FDD089;" d="M179.3,18.4c0,9.7-7.9,17.6-17.6,17.6
							s-17.6-7.9-17.6-17.6S152,0.8,161.7,0.8S179.3,8.7,179.3,18.4"/>
						<path id="Fill-24" style="fill-rule:evenodd;clip-rule:evenodd;fill:#FFFFFF;" d="M158.7,27l-2.7-0.8l-2.5-0.9
							c-0.6,1.8-0.6,1.8-1.5,4.8c-0.5,1.7,1.5,2,2.3,0.7c0.7-1.1,1-1.6,1.2-2c-0.1,0.5-0.3,1.2-0.6,2.1c-0.5,1.7,1.8,2.1,2.3,0.7
							c0.5-1.8,0.7-2,1-2.7c-0.2,0.6-0.3,1.4-0.3,2.9c-0.1,1.8,1.8,2.1,2.3,0.7c0.4-1.3,0.6-1.8,0.7-2.2c-0.1,0.6-0.1,1.3-0.1,2.4
							c0.1,1.8,1.8,2.1,2.3,0.7c0.8-2.7,0.6-1.9,1.5-4.8l-2.9-0.9L158.7,27z"/>
						<path id="Fill-26" style="fill-rule:evenodd;clip-rule:evenodd;fill:#363F52;" d="M167,3.6c0.1-0.4-0.1-0.9-0.5-1
							c-0.4-0.1-0.9,0.1-1,0.5l-4.9,15.6l-1.5-0.4c-0.3-0.1-0.6,0.1-0.7,0.4l-0.3,1.1c-0.1,0.3,0.1,0.6,0.4,0.7l0.2,0.1
							c-3.6,0.2-4.9,4.1-4.9,4.1l11,3.4c0,0,1-4-1.9-6.2l0.2,0.1c0.3,0.1,0.6-0.1,0.7-0.4l0.3-1.1c0.1-0.3-0.1-0.6-0.4-0.7l-1.3-0.4
							l0,0L167,3.6z"/>
						<g id="Group-30" transform="translate(76.800000, 0.427040)">
							<defs>
								
									<filter id="Adobe_OpacityMaskFilter_00000179638302635116298880000016082028319519648896_" filterUnits="userSpaceOnUse" x="0.6" y="0.5" width="35.8" height="35.5">
									<feColorMatrix  type="matrix" values="1 0 0 0 0  0 1 0 0 0  0 0 1 0 0  0 0 0 1 0"/>
								</filter>
							</defs>
							
								<mask maskUnits="userSpaceOnUse" x="0.6" y="0.5" width="35.8" height="35.5" id="mask-8_00000153676010480930110500000000989712526870039466_">
								<g style="filter:url(#Adobe_OpacityMaskFilter_00000179638302635116298880000016082028319519648896_);">
									
										<polygon id="path-7_00000110467407018178398610000002676011829396734105_" style="fill-rule:evenodd;clip-rule:evenodd;fill:#FFFFFF;" points="
										0.6,0.5 36.4,0.5 36.4,36 0.6,36 									"/>
								</g>
							</mask>
							
								<path id="Fill-28" style="mask:url(#mask-8_00000153676010480930110500000000989712526870039466_);fill-rule:evenodd;clip-rule:evenodd;fill:#71939F;" d="
								M36.4,18.3c0,9.8-8,17.7-17.9,17.7S0.6,28.1,0.6,18.3s8-17.7,17.9-17.7C28.4,0.5,36.4,8.4,36.4,18.3"/>
						</g>
						<path id="Fill-31" style="fill-rule:evenodd;clip-rule:evenodd;fill:#FDD089;" d="M98.9,34.2c0,0-0.2-3.3-0.1-3.9
							c0.1-0.7,2.9-4.4,3.4-5.6c0.5-1.2,0.5-8.9,0.5-11c0-1.3-1.3-1.6-1.6,0c-0.3,1.6-0.8,8.2-0.8,8.2l-0.8,0c0,0,0.1-11.5,0.1-14
							c0-2.5-2.4-2.6-2.5-0.2c-0.1,2.5-0.6,14-0.6,14l-0.8,0c0,0-0.4-15.3-0.4-16.9c0-1.6-1.9-1.5-2,0.2s-0.7,16.8-0.7,16.8l-1-0.1
							c0,0-0.8-10.9-1-14.1c-0.1-2.8-2.3-2.1-2.2-0.1c0.1,2,0.3,15.5,0.3,15.5s-3.1-1.7-4.6-2.3c-1.5-0.6-3.6,0.7-1.4,2.2
							c2.2,1.5,9.7,7,9.7,7l0.8,5.1c0,0,0.3,1.3,2.9,0.8C98.7,35.1,98.9,34.2,98.9,34.2"/>
						<g id="Group-35" transform="translate(9.600000, 0.427040)">
							<defs>
								
									<filter id="Adobe_OpacityMaskFilter_00000120540184671683073160000013341383645629400746_" filterUnits="userSpaceOnUse" x="0" y="0.4" width="35.2" height="35.2">
									<feColorMatrix  type="matrix" values="1 0 0 0 0  0 1 0 0 0  0 0 1 0 0  0 0 0 1 0"/>
								</filter>
							</defs>
							
								<mask maskUnits="userSpaceOnUse" x="0" y="0.4" width="35.2" height="35.2" id="mask-10_00000080166947683197090760000003588349670304150971_">
								<g style="filter:url(#Adobe_OpacityMaskFilter_00000120540184671683073160000013341383645629400746_);">
									
										<polygon id="path-9_00000108988991346416846900000008439525881239274162_" style="fill-rule:evenodd;clip-rule:evenodd;fill:#FFFFFF;" points="
										0,0.4 35.2,0.4 35.2,35.6 0,35.6 									"/>
								</g>
							</mask>
							
								<path id="Fill-33" style="mask:url(#mask-10_00000080166947683197090760000003588349670304150971_);fill-rule:evenodd;clip-rule:evenodd;" d="
								M17.6,35.6C7.9,35.6,0,27.7,0,18C0,8.3,7.9,0.4,17.6,0.4S35.2,8.3,35.2,18C35.2,27.7,27.4,35.6,17.6,35.6"/>
						</g>
						<g id="Group-38" transform="translate(9.600000, 0.427040)">
							<defs>
								
									<filter id="Adobe_OpacityMaskFilter_00000147935716494268017840000008173890098874318255_" filterUnits="userSpaceOnUse" x="0" y="0.4" width="35.2" height="35.2">
									<feColorMatrix  type="matrix" values="1 0 0 0 0  0 1 0 0 0  0 0 1 0 0  0 0 0 1 0"/>
								</filter>
							</defs>
							
								<mask maskUnits="userSpaceOnUse" x="0" y="0.4" width="35.2" height="35.2" id="mask-12_00000032617203394308947460000002227346703665756338_">
								<g style="filter:url(#Adobe_OpacityMaskFilter_00000147935716494268017840000008173890098874318255_);">
									
										<polygon id="path-11_00000083806897591050137000000011948080935474006415_" style="fill-rule:evenodd;clip-rule:evenodd;fill:#FFFFFF;" points="
										0,0.4 35.2,0.4 35.2,35.6 0,35.6 									"/>
								</g>
							</mask>
							
								<path id="Fill-36" style="mask:url(#mask-12_00000032617203394308947460000002227346703665756338_);fill-rule:evenodd;clip-rule:evenodd;fill:#E27F63;" d="
								M17.6,35.6C7.9,35.6,0,27.7,0,18C0,8.3,7.9,0.4,17.6,0.4S35.2,8.3,35.2,18C35.2,27.7,27.4,35.6,17.6,35.6"/>
						</g>
						<path id="Fill-39" style="fill-rule:evenodd;clip-rule:evenodd;fill:#FFD9D8;" d="M28.3,23.9c-0.1,0.2-0.2,0.5-0.3,0.7
							c-0.9,1.8-3.1,2.4-4.9,1.5c-1.8-0.9-2.4-3.1-1.5-4.9c0.1-0.2,0.3-0.5,0.4-0.7l-1.3-0.7c-0.1-0.1-0.2-0.1-0.3-0.2
							c-0.2,0.2-0.3,0.4-0.4,0.7c-1.4,2.7-0.4,6,2.2,7.4s6,0.4,7.4-2.3c0.1-0.2,0.2-0.5,0.3-0.8c-0.1,0-0.2-0.1-0.4-0.2L28.3,23.9z"
							/>
						<path id="Fill-41" style="fill-rule:evenodd;clip-rule:evenodd;fill:#FFD9D8;" d="M31.8,20.3l-8.7-4.6
							c-1.2-0.6-2.7-0.2-3.4,1.1c-0.6,1.1-0.3,2.4,0.7,3.2c0.1,0.1,0.2,0.2,0.3,0.2l1.3,0.7l6.1,3.3l1.3,0.7
							c0.1,0.1,0.2,0.1,0.4,0.2c1.1,0.4,2.4-0.1,3-1.2C33.5,22.4,33,20.9,31.8,20.3"/>
						<path id="Fill-43" style="fill-rule:evenodd;clip-rule:evenodd;fill:#FFFFFF;" d="M25.8,16.1c-0.7,0.3-1.4,1-0.3,1.6l3.4,1.7
							C30,20,30.1,19,30,18.3l1.7-1.1l1.5-0.9c0.3-0.2,0.6-0.5,0.8-0.9c1.2-2.2,0.3-5-1.9-6.2C30,7.9,27.2,8.8,26,11
							c-0.4,0.7-0.3,1.9-0.3,2.6L25.8,16.1z"/>
					</g>
				</g>
			</g>
		</g>
	</g>
</g>
</svg>
