<?xml version="1.0" encoding="utf-8"?>
<!-- Generator: Adobe Illustrator 26.2.1, SVG Export Plug-In . SVG Version: 6.00 Build 0)  -->
<svg version="1.1" id="Capa_1" xmlns="http://www.w3.org/2000/svg" xmlns:xlink="http://www.w3.org/1999/xlink" x="0px" y="0px"
	 viewBox="0 0 69 69" style="enable-background:new 0 0 69 69;" xml:space="preserve">
<desc>Created with Sketch.</desc>
<g id="Page-1">
	<g id="_xBF_Cual-es-mi-huella_x3F_-2" transform="translate(-950.000000, -501.000000)">
		<g id="Group" transform="translate(954.000000, 503.000000)">
			<circle id="Oval" style="fill-rule:evenodd;clip-rule:evenodd;fill:#363F52;" cx="31.6" cy="31.2" r="31.2"/>
			<path id="Fill-24" style="fill-rule:evenodd;clip-rule:evenodd;fill:#F4785C;" d="M38.6,60c0,0-0.3-5.6-0.2-6.8
				c0.1-1.2,5.1-7.5,6-9.5c0.9-2.1,0.8-15.3,0.8-18.9c0-2.3-2.3-2.8-2.8,0c-0.5,2.8-1.4,14-1.4,14l-1.5-0.1c0,0,0.2-19.7,0.1-24
				c0-4.3-4.2-4.5-4.3-0.3c-0.2,4.2-1,24-1,24l-1.4-0.1c0,0-0.7-26.2-0.8-28.9c-0.1-2.8-3.4-2.6-3.5,0.3c-0.1,2.9-1.2,28.8-1.2,28.8
				l-1.7-0.2c0,0-1.4-18.8-1.7-24.2c-0.2-4.8-4-3.6-3.8-0.2c0.2,3.4,0.6,26.6,0.6,26.6s-5.3-2.9-8-4c-2.7-1.1-6.3,1.2-2.5,3.7
				s16.9,12,16.9,12l1.4,8.7c0,0,0.6,2.2,5.1,1.3C38.3,61.5,38.6,60,38.6,60"/>
		</g>
	</g>
</g>
</svg>
