<?xml version="1.0" encoding="UTF-8"?>
<svg xmlns="http://www.w3.org/2000/svg" xmlns:xlink="http://www.w3.org/1999/xlink" width="69pt" height="69pt" viewBox="0 0 69 69" version="1.1">
<g id="surface1">
<path style=" stroke:none;fill-rule:evenodd;fill:rgb(21.176471%,24.705882%,32.156864%);fill-opacity:1;" d="M 66.800781 33.199219 C 66.800781 50.429688 52.832031 64.398438 35.601562 64.398438 C 18.367188 64.398438 4.398438 50.429688 4.398438 33.199219 C 4.398438 15.96875 18.367188 2 35.601562 2 C 52.832031 2 66.800781 15.96875 66.800781 33.199219 Z M 66.800781 33.199219 "/>
<path style=" stroke:none;fill-rule:evenodd;fill:rgb(95.686275%,47.058824%,36.078432%);fill-opacity:1;" d="M 42.601562 62 C 42.601562 62 42.300781 56.398438 42.398438 55.199219 C 42.5 54 47.5 47.699219 48.398438 45.699219 C 49.300781 43.601562 49.199219 30.398438 49.199219 26.800781 C 49.199219 24.5 46.898438 24 46.398438 26.800781 C 45.898438 29.601562 45 40.800781 45 40.800781 L 43.5 40.699219 C 43.5 40.699219 43.699219 21 43.601562 16.699219 C 43.601562 12.398438 39.398438 12.199219 39.300781 16.398438 C 39.101562 20.601562 38.300781 40.398438 38.300781 40.398438 L 36.898438 40.300781 C 36.898438 40.300781 36.199219 14.101562 36.101562 11.398438 C 36 8.601562 32.699219 8.800781 32.601562 11.699219 C 32.5 14.601562 31.398438 40.5 31.398438 40.5 L 29.699219 40.300781 C 29.699219 40.300781 28.300781 21.5 28 16.101562 C 27.800781 11.300781 24 12.5 24.199219 15.898438 C 24.398438 19.300781 24.800781 42.5 24.800781 42.5 C 24.800781 42.5 19.5 39.601562 16.800781 38.5 C 14.101562 37.398438 10.5 39.699219 14.300781 42.199219 C 18.101562 44.699219 31.199219 54.199219 31.199219 54.199219 L 32.601562 62.898438 C 32.601562 62.898438 33.199219 65.101562 37.699219 64.199219 C 42.300781 63.5 42.601562 62 42.601562 62 "/>
</g>
</svg>
