<?xml version="1.0" encoding="utf-8"?>
<!-- Generator: Adobe Illustrator 26.2.1, SVG Export Plug-In . SVG Version: 6.00 Build 0)  -->
<svg version="1.1" xmlns="http://www.w3.org/2000/svg" xmlns:xlink="http://www.w3.org/1999/xlink" x="0px" y="0px"
	 viewBox="0 0 993 62" style="enable-background:new 0 0 993 62;" xml:space="preserve">
<g id="Rojo">
	<path id="Rectangle" style="fill-rule:evenodd;clip-rule:evenodd;fill:#F4785C;" d="M8,40h242l0,0v10.1V62H8c-4.4,0-8-3.6-8-8v-6
		C0,43.6,3.6,40,8,40z"/>
</g>
<g id="Amarillo">
	<rect id="Rectangle-Copy-5" x="249" y="40" style="fill-rule:evenodd;clip-rule:evenodd;fill:#FFCF7C;" width="248" height="22"/>
</g>
<g id="Celeste">
	
		<rect id="Rectangle-Copy-5_00000153699689378823420880000004104190320383768202_" x="494" y="40" style="fill-rule:evenodd;clip-rule:evenodd;fill:#6794A1;" width="256" height="22"/>
</g>
<g id="Azul_Marino">
	
		<path id="Rectangle_00000044177519576757744970000004178831731849104565_" style="fill-rule:evenodd;clip-rule:evenodd;fill:#363F52;" d="
		M985,62H743l0,0V51.9V40h242c4.4,0,8,3.6,8,8v6C993,58.4,989.4,62,985,62z"/>
</g>
<g id="Barra_con_nombres">
	<desc>Created with Sketch.</desc>
	<g id="Page-1">
		<g id="_xA1_Haz-tu-parte_x21_-_x5F_1" transform="translate(-229.000000, -906.000000)">
			<g id="Group-2" transform="translate(229.000000, 896.000000)">
				<g id="Group-3">
					<g style="enable-background:new    ;">
						<path style="fill:#363F52;" d="M44.3,13.1c0.3,0,0.4,0,0.6,0.1c0.1,0.1,0.2,0.2,0.2,0.3c0,0.1,0,0.3,0,0.5v1.9
							c0,0.3-0.1,0.5-0.2,0.6c-0.1,0.2-0.3,0.3-0.6,0.4c-0.2,0.1-0.5,0.2-0.8,0.3c-0.3,0.1-0.5,0.3-0.8,0.4
							c-0.2,0.2-0.4,0.4-0.6,0.7c-0.1,0.3-0.2,0.7-0.2,1.2c0,0.7,0.2,1.3,0.6,1.7c0.4,0.4,1,0.6,1.8,0.6c0.4,0,0.7-0.1,1-0.2
							c0.3-0.1,0.6-0.3,0.8-0.5c0.2-0.2,0.4-0.5,0.5-0.8c0.1-0.2,0.1-0.3,0.2-0.4c0.1-0.1,0.2-0.1,0.3-0.2c0.1,0,0.3,0,0.5,0.1
							c0.2,0.1,0.3,0.1,0.4,0.2c0.1,0.1,0.1,0.2,0.2,0.3s0,0.3-0.1,0.5c-0.1,0.2-0.1,0.5-0.3,0.7c-0.1,0.2-0.3,0.5-0.5,0.7
							c-0.2,0.2-0.5,0.4-0.8,0.6c-0.3,0.2-0.6,0.3-1,0.4s-0.8,0.2-1.2,0.2c-0.8,0-1.6-0.2-2.2-0.5c-0.6-0.3-1.1-0.8-1.4-1.3
							c-0.3-0.6-0.5-1.3-0.5-2c0-0.4,0.1-0.8,0.2-1.2c0.1-0.4,0.3-0.7,0.5-1c0.2-0.3,0.4-0.6,0.7-0.8c0.3-0.2,0.6-0.4,0.9-0.6
							s0.7-0.3,1-0.4l-0.1,0.2v-1.9c0-0.2,0-0.3,0.1-0.4c0-0.1,0.1-0.2,0.2-0.3C43.9,13.1,44,13.1,44.3,13.1z M44.3,9.2
							c0.4,0,0.7,0.1,0.9,0.2c0.1,0.2,0.2,0.4,0.2,0.8c0,0.2,0,0.3,0,0.5S45.2,11,45,11.1c-0.1,0.1-0.4,0.2-0.8,0.2
							c-0.5,0-0.7-0.1-0.9-0.3c-0.1-0.2-0.2-0.4-0.2-0.8c0-0.2,0-0.3,0-0.5s0.1-0.3,0.3-0.4S43.9,9.2,44.3,9.2z"/>
						<path style="fill:#363F52;" d="M57,19.2c-0.7,0-1.4-0.1-2.1-0.3c-0.7-0.2-1.3-0.5-1.9-0.9c-0.6-0.4-1.1-0.9-1.5-1.5
							c-0.4-0.6-0.8-1.3-1.1-2S50,13,50,12.1c0-0.9,0.1-1.6,0.4-2.4s0.6-1.4,1-1.9c0.4-0.6,1-1,1.6-1.4c0.6-0.4,1.2-0.7,1.9-0.9
							c0.7-0.2,1.4-0.3,2.1-0.3c0.7,0,1.2,0.1,1.7,0.2c0.5,0.1,0.9,0.3,1.2,0.4s0.5,0.3,0.6,0.3c0.2,0.1,0.4,0.2,0.5,0.4
							c0.2,0.1,0.3,0.3,0.3,0.5c0,0.1,0,0.3,0,0.4c0,0.1-0.1,0.2-0.2,0.3C61,7.8,60.9,7.9,60.8,8s-0.2,0.1-0.4,0.1s-0.3,0-0.4-0.1
							c-0.1-0.1-0.2-0.2-0.4-0.3c-0.1-0.1-0.2-0.1-0.5-0.3c-0.2-0.1-0.5-0.2-0.9-0.3c-0.4-0.1-0.8-0.2-1.4-0.2
							c-0.7,0-1.3,0.1-1.9,0.4c-0.6,0.2-1.2,0.6-1.6,1.1s-0.8,1-1.1,1.6c-0.3,0.6-0.4,1.4-0.4,2.2c0,0.8,0.1,1.5,0.4,2.2
							c0.3,0.6,0.6,1.2,1.1,1.7c0.5,0.5,1,0.8,1.6,1s1.3,0.4,1.9,0.4c0.5,0,1-0.1,1.3-0.2s0.7-0.2,0.9-0.4c0.2-0.1,0.4-0.2,0.5-0.3
							c0.1-0.1,0.3-0.2,0.4-0.2s0.2-0.1,0.4-0.1s0.3,0,0.4,0.1c0.1,0.1,0.2,0.2,0.3,0.4c0.1,0.1,0.1,0.2,0.2,0.3
							c0,0.1,0.1,0.2,0,0.4c0,0.2-0.1,0.4-0.3,0.5c-0.2,0.1-0.4,0.3-0.5,0.4c-0.1,0.1-0.3,0.2-0.6,0.3c-0.3,0.2-0.7,0.3-1.2,0.4
							C58.2,19.2,57.6,19.2,57,19.2z"/>
						<path style="fill:#363F52;" d="M67.4,19.2c-0.6,0-1.1-0.1-1.6-0.3c-0.5-0.2-0.9-0.5-1.3-0.9c-0.4-0.4-0.7-0.9-0.9-1.4
							c-0.2-0.5-0.3-1.2-0.3-1.9v-4.3c0-0.2,0-0.3,0.1-0.5c0-0.1,0.1-0.2,0.2-0.3c0.1-0.1,0.3-0.1,0.6-0.1s0.4,0,0.6,0.1
							C64.9,9.7,65,9.8,65,9.9c0,0.1,0.1,0.3,0.1,0.5v4.3c0,0.5,0.1,1,0.3,1.5c0.2,0.4,0.5,0.7,0.9,1c0.4,0.2,0.8,0.3,1.4,0.3
							c0.6,0,1-0.1,1.5-0.3c0.4-0.2,0.7-0.5,0.9-1c0.2-0.4,0.3-0.9,0.3-1.5v-4.4c0-0.2,0-0.3,0.1-0.5c0-0.1,0.1-0.2,0.2-0.3
							c0.1-0.1,0.3-0.1,0.6-0.1s0.4,0,0.6,0.1C71.9,9.7,72,9.8,72,9.9c0,0.1,0.1,0.3,0.1,0.5v7.9c0,0.2,0,0.3-0.1,0.4
							s-0.1,0.2-0.2,0.3c-0.1,0.1-0.3,0.1-0.6,0.1c-0.2,0-0.3,0-0.4-0.1c-0.1,0-0.2-0.1-0.2-0.2c-0.1-0.1-0.1-0.1-0.1-0.2
							c0-0.1,0-0.2,0-0.3l0.1-0.9c-0.1,0.2-0.3,0.3-0.5,0.5c-0.2,0.2-0.4,0.4-0.6,0.5c-0.2,0.2-0.5,0.3-0.8,0.4
							C68.2,19.2,67.8,19.2,67.4,19.2z"/>
						<path style="fill:#363F52;" d="M82.7,19.2c-0.3,0-0.5-0.1-0.6-0.2c-0.1-0.1-0.2-0.3-0.2-0.6l0.1-1c-0.1,0.2-0.3,0.5-0.6,0.7
							c-0.3,0.3-0.6,0.5-1.1,0.7c-0.5,0.2-1,0.3-1.7,0.3c-0.6,0-1.2-0.1-1.8-0.4c-0.6-0.3-1-0.6-1.5-1.1c-0.4-0.5-0.7-1-1-1.6
							s-0.4-1.2-0.4-1.9c0-0.7,0.1-1.3,0.4-1.9s0.6-1.1,1-1.5c0.4-0.4,0.9-0.8,1.5-1c0.6-0.3,1.1-0.4,1.8-0.4c0.6,0,1.1,0.1,1.5,0.2
							s0.8,0.4,1.1,0.6c0.3,0.2,0.6,0.5,0.8,0.8l0-0.8c0-0.3,0-0.5,0.2-0.6s0.4-0.2,0.7-0.2c0.3,0,0.4,0,0.5,0.1s0.2,0.2,0.2,0.3
							c0,0.1,0.1,0.3,0.1,0.5v7.7c0,0.2,0,0.4-0.1,0.5s-0.1,0.3-0.2,0.3S82.9,19.2,82.7,19.2z M78.8,17.5c0.5,0,1-0.1,1.5-0.4
							c0.4-0.3,0.8-0.7,1.1-1.1c0.3-0.5,0.4-1,0.4-1.6c0-0.6-0.1-1.2-0.4-1.6c-0.3-0.5-0.6-0.8-1.1-1.1s-0.9-0.4-1.5-0.4
							c-0.6,0-1.2,0.1-1.6,0.4c-0.5,0.3-0.8,0.7-1.1,1.2c-0.3,0.5-0.4,1-0.4,1.6c0,0.6,0.1,1.1,0.4,1.6s0.6,0.8,1.1,1.1
							C77.6,17.4,78.2,17.5,78.8,17.5z M78.3,8.2c-0.2,0-0.4,0-0.5-0.1c-0.1-0.1-0.2-0.2-0.3-0.5c-0.1-0.3-0.1-0.5,0-0.6
							s0.2-0.3,0.5-0.3l3.2-1.1c0.2,0,0.4,0,0.5,0.1s0.2,0.3,0.3,0.5C82,6.4,82,6.7,82,6.8S81.7,7,81.5,7.1L78.3,8.2z"/>
						<path style="fill:#363F52;" d="M89,19.2c-0.4,0-0.8,0-1.1-0.1c-0.3-0.1-0.6-0.2-0.9-0.3s-0.5-0.4-0.6-0.6
							c-0.2-0.3-0.3-0.6-0.4-0.9c-0.1-0.4-0.1-0.8-0.1-1.3v-10c0-0.2,0-0.4,0-0.5c0-0.1,0.1-0.2,0.2-0.3S86.4,5,86.7,5
							c0.3,0,0.5,0,0.6,0.1c0.1,0.1,0.2,0.2,0.2,0.3c0,0.1,0.1,0.3,0.1,0.5v10c0,0.3,0,0.5,0.1,0.7s0.1,0.4,0.2,0.5
							c0.1,0.1,0.3,0.2,0.4,0.3c0.2,0.1,0.4,0.1,0.6,0.1c0.2,0,0.3,0,0.4,0.1c0.1,0,0.2,0.1,0.3,0.2c0.1,0.1,0.1,0.3,0.1,0.6
							c0,0.3,0,0.5-0.1,0.6c-0.1,0.1-0.2,0.2-0.3,0.2C89.3,19.2,89.1,19.2,89,19.2z"/>
						<path style="fill:#363F52;" d="M101.2,19.3c-0.8,0-1.5-0.1-2.1-0.4c-0.6-0.3-1.2-0.6-1.6-1.1s-0.8-1-1-1.6
							c-0.2-0.6-0.3-1.2-0.3-1.9c0-0.9,0.2-1.7,0.6-2.5c0.4-0.7,1-1.3,1.8-1.7s1.6-0.6,2.6-0.6c0.7,0,1.3,0.1,1.8,0.3s1,0.5,1.4,0.8
							c0.4,0.3,0.7,0.7,0.9,1.2c0.2,0.4,0.3,0.9,0.3,1.3c0,0.7-0.2,1.2-0.5,1.4c-0.3,0.3-0.7,0.4-1.2,0.4H98c0,0.6,0.1,1.1,0.5,1.5
							s0.7,0.7,1.2,1s1,0.3,1.5,0.3c0.4,0,0.7,0,1-0.1s0.5-0.1,0.7-0.2s0.4-0.1,0.5-0.2c0.1-0.1,0.3-0.1,0.4-0.2
							c0.1-0.1,0.2-0.1,0.3-0.1c0.1,0,0.2,0,0.3,0s0.2,0.1,0.3,0.3c0.1,0.1,0.1,0.2,0.2,0.3c0,0.1,0,0.2,0,0.3
							c0,0.2-0.2,0.4-0.5,0.6c-0.3,0.2-0.8,0.4-1.3,0.6C102.5,19.2,101.9,19.3,101.2,19.3z M98,13.7h5c0.3,0,0.4,0,0.6-0.1
							c0.1-0.1,0.2-0.2,0.2-0.5c0-0.4-0.1-0.7-0.3-1c-0.2-0.3-0.5-0.5-0.9-0.7c-0.4-0.2-0.8-0.3-1.4-0.3c-0.6,0-1.1,0.1-1.6,0.4
							s-0.9,0.5-1.1,1C98.1,12.8,98,13.2,98,13.7z"/>
						<path style="fill:#363F52;" d="M110.6,19.3c-0.3,0-0.7,0-1-0.1c-0.3-0.1-0.7-0.2-1-0.3c-0.3-0.1-0.6-0.3-0.9-0.5
							c-0.2-0.2-0.4-0.4-0.5-0.6c-0.1-0.1-0.1-0.3-0.1-0.4s0-0.2,0.1-0.3c0.1-0.1,0.1-0.2,0.2-0.3c0.1-0.2,0.3-0.2,0.4-0.2
							c0.1,0,0.3,0.1,0.5,0.3c0.1,0.1,0.3,0.2,0.5,0.3c0.2,0.1,0.4,0.2,0.6,0.3c0.2,0.1,0.4,0.2,0.7,0.2c0.2,0.1,0.4,0.1,0.6,0.1
							c0.6,0,1.1-0.1,1.5-0.4c0.4-0.2,0.6-0.5,0.6-0.9c0-0.2,0-0.4-0.1-0.6s-0.2-0.3-0.4-0.4c-0.2-0.1-0.3-0.2-0.5-0.3
							c-0.2-0.1-0.4-0.2-0.7-0.2c-0.2-0.1-0.5-0.1-0.7-0.2c-0.4-0.1-0.7-0.2-1.1-0.3c-0.3-0.1-0.7-0.3-0.9-0.5
							c-0.3-0.2-0.5-0.4-0.7-0.7s-0.3-0.7-0.3-1.2c0-0.5,0.1-1,0.4-1.4c0.3-0.4,0.7-0.7,1.2-0.9s1.1-0.3,1.8-0.3
							c0.3,0,0.6,0,0.8,0.1c0.3,0,0.5,0.1,0.7,0.2s0.5,0.2,0.7,0.3s0.4,0.2,0.6,0.4c0.2,0.2,0.4,0.3,0.4,0.5s-0.1,0.4-0.2,0.6
							c-0.1,0.2-0.3,0.3-0.4,0.3c-0.1,0-0.3,0-0.4-0.1c-0.2-0.2-0.4-0.3-0.7-0.4c-0.2-0.1-0.5-0.2-0.7-0.3c-0.3-0.1-0.5-0.1-0.8-0.1
							c-0.3,0-0.6,0-0.9,0.1c-0.3,0.1-0.5,0.2-0.6,0.4c-0.1,0.2-0.2,0.4-0.2,0.6c0,0.2,0.1,0.4,0.2,0.5s0.3,0.2,0.4,0.3
							c0.2,0.1,0.4,0.2,0.6,0.2s0.5,0.1,0.8,0.2c0.4,0.1,0.8,0.2,1.2,0.3s0.8,0.3,1.1,0.5s0.6,0.5,0.8,0.8c0.2,0.3,0.3,0.8,0.3,1.3
							c0,0.9-0.3,1.6-1,2.1C112.7,19,111.8,19.3,110.6,19.3z"/>
						<path style="fill:#363F52;" d="M122.5,19.2c-0.3,0-0.4,0-0.6-0.1s-0.2-0.2-0.2-0.3c0-0.1-0.1-0.3-0.1-0.5v-7.9
							c0-0.2,0-0.3,0.1-0.5c0-0.1,0.1-0.2,0.2-0.3c0.1-0.1,0.3-0.1,0.6-0.1c0.3,0,0.5,0.1,0.6,0.2c0.1,0.1,0.2,0.3,0.2,0.6l-0.1,0.9
							c0.1-0.2,0.2-0.4,0.4-0.6s0.4-0.4,0.7-0.5c0.3-0.2,0.5-0.3,0.8-0.4c0.3-0.1,0.6-0.1,0.9-0.1c0.5,0,0.9,0.1,1.2,0.2
							c0.4,0.2,0.7,0.4,1,0.7c0.3,0.3,0.5,0.7,0.7,1.1c0.3-0.4,0.5-0.8,0.8-1.1c0.3-0.3,0.6-0.6,1-0.7c0.4-0.2,0.8-0.2,1.3-0.2
							c0.8,0,1.4,0.2,1.9,0.6c0.5,0.4,0.9,0.9,1.2,1.6c0.3,0.7,0.4,1.5,0.4,2.5v4.2c0,0.2,0,0.3,0,0.5c0,0.1-0.1,0.2-0.2,0.3
							c-0.1,0.1-0.3,0.1-0.6,0.1c-0.3,0-0.4,0-0.6-0.1c-0.1-0.1-0.2-0.2-0.2-0.3c0-0.1-0.1-0.3-0.1-0.5v-4.2c0-0.6-0.1-1.1-0.2-1.5
							c-0.1-0.4-0.4-0.8-0.6-1s-0.7-0.4-1.1-0.4c-0.5,0-0.9,0.1-1.3,0.4c-0.4,0.2-0.6,0.6-0.9,1s-0.3,1-0.3,1.6v4.2
							c0,0.2,0,0.4-0.1,0.5c-0.1,0.1-0.2,0.2-0.4,0.3c-0.2,0.1-0.4,0.1-0.6,0c-0.2,0-0.4-0.1-0.5-0.2c-0.1-0.1-0.2-0.2-0.2-0.3
							s0-0.3,0-0.4v-4.2c0-0.6-0.1-1.1-0.2-1.5c-0.1-0.4-0.4-0.8-0.6-1s-0.7-0.4-1.1-0.4c-0.5,0-0.9,0.1-1.3,0.4
							c-0.4,0.2-0.6,0.6-0.9,1c-0.2,0.4-0.3,0.9-0.3,1.5v4.2c0,0.2,0,0.3-0.1,0.5c0,0.1-0.1,0.2-0.2,0.3
							C123,19.2,122.8,19.2,122.5,19.2z"/>
						<path style="fill:#363F52;" d="M139.2,7.1c-0.3,0-0.5,0-0.7-0.1c-0.1-0.1-0.2-0.2-0.3-0.4c0-0.2-0.1-0.3-0.1-0.6
							c0-0.2,0-0.4,0.1-0.5s0.2-0.3,0.3-0.3c0.1-0.1,0.4-0.1,0.7-0.1c0.3,0,0.5,0,0.6,0.1c0.1,0.1,0.2,0.2,0.3,0.4
							c0,0.2,0.1,0.3,0.1,0.6c0,0.2,0,0.4-0.1,0.6c0,0.2-0.1,0.3-0.3,0.3C139.7,7.1,139.5,7.1,139.2,7.1z M139.2,19.2
							c-0.3,0-0.4,0-0.6-0.1c-0.1-0.1-0.2-0.2-0.2-0.3c0-0.1-0.1-0.3-0.1-0.5v-7.9c0-0.2,0-0.3,0.1-0.5c0-0.1,0.1-0.2,0.2-0.3
							c0.1-0.1,0.3-0.1,0.6-0.1c0.3,0,0.4,0,0.6,0.1c0.1,0.1,0.2,0.2,0.2,0.3c0,0.1,0.1,0.3,0.1,0.5v7.9c0,0.2,0,0.3-0.1,0.5
							c0,0.1-0.1,0.2-0.2,0.3C139.6,19.2,139.4,19.2,139.2,19.2z"/>
						<path style="fill:#363F52;" d="M148.5,19.2c-0.3,0-0.4,0-0.6-0.1s-0.2-0.2-0.2-0.3c0-0.1,0-0.3,0-0.5V6c0-0.2,0-0.3,0.1-0.5
							c0-0.1,0.1-0.2,0.3-0.3s0.3-0.1,0.6-0.1c0.3,0,0.5,0,0.6,0.1c0.1,0.1,0.2,0.2,0.2,0.3c0,0.1,0,0.3,0,0.5v4.9
							c0.3-0.4,0.7-0.7,1.2-1c0.5-0.3,1-0.4,1.7-0.4c0.8,0,1.5,0.2,2.1,0.5c0.6,0.4,1.1,0.9,1.5,1.5c0.4,0.7,0.5,1.5,0.5,2.4v4.3
							c0,0.2,0,0.3-0.1,0.5c0,0.1-0.1,0.2-0.2,0.3s-0.3,0.1-0.6,0.1c-0.3,0-0.4,0-0.6-0.1s-0.2-0.2-0.3-0.3c0-0.1-0.1-0.3-0.1-0.5
							v-4.3c0-0.6-0.1-1-0.3-1.5c-0.2-0.4-0.5-0.7-0.8-1c-0.4-0.2-0.8-0.3-1.4-0.3c-0.8,0-1.4,0.2-1.9,0.7c-0.5,0.4-0.8,1-0.9,1.7
							v4.7c0,0.2,0,0.3-0.1,0.5c0,0.1-0.1,0.2-0.2,0.3S148.8,19.2,148.5,19.2z"/>
						<path style="fill:#363F52;" d="M162.3,19.2c-0.6,0-1.1-0.1-1.6-0.3c-0.5-0.2-0.9-0.5-1.3-0.9c-0.4-0.4-0.7-0.9-0.9-1.4
							c-0.2-0.5-0.3-1.2-0.3-1.9v-4.3c0-0.2,0-0.3,0.1-0.5c0-0.1,0.1-0.2,0.2-0.3c0.1-0.1,0.3-0.1,0.6-0.1s0.4,0,0.6,0.1
							c0.1,0.1,0.2,0.2,0.2,0.3c0,0.1,0.1,0.3,0.1,0.5v4.3c0,0.5,0.1,1,0.3,1.5c0.2,0.4,0.5,0.7,0.9,1c0.4,0.2,0.8,0.3,1.4,0.3
							c0.6,0,1-0.1,1.5-0.3c0.4-0.2,0.7-0.5,0.9-1c0.2-0.4,0.3-0.9,0.3-1.5v-4.4c0-0.2,0-0.3,0.1-0.5c0-0.1,0.1-0.2,0.2-0.3
							c0.1-0.1,0.3-0.1,0.6-0.1s0.4,0,0.6,0.1c0.1,0.1,0.2,0.2,0.2,0.3c0,0.1,0.1,0.3,0.1,0.5v7.9c0,0.2,0,0.3-0.1,0.4
							s-0.1,0.2-0.2,0.3c-0.1,0.1-0.3,0.1-0.6,0.1c-0.2,0-0.3,0-0.4-0.1c-0.1,0-0.2-0.1-0.2-0.2c-0.1-0.1-0.1-0.1-0.1-0.2
							c0-0.1,0-0.2,0-0.3l0.1-0.9c-0.1,0.2-0.3,0.3-0.5,0.5c-0.2,0.2-0.4,0.4-0.6,0.5c-0.2,0.2-0.5,0.3-0.8,0.4
							C163,19.2,162.7,19.2,162.3,19.2z"/>
						<path style="fill:#363F52;" d="M173.9,19.3c-0.8,0-1.5-0.1-2.1-0.4c-0.6-0.3-1.2-0.6-1.6-1.1s-0.8-1-1-1.6
							c-0.2-0.6-0.3-1.2-0.3-1.9c0-0.9,0.2-1.7,0.6-2.5c0.4-0.7,1-1.3,1.8-1.7s1.6-0.6,2.6-0.6c0.7,0,1.3,0.1,1.8,0.3s1,0.5,1.4,0.8
							c0.4,0.3,0.7,0.7,0.9,1.2c0.2,0.4,0.3,0.9,0.3,1.3c0,0.7-0.2,1.2-0.5,1.4c-0.3,0.3-0.7,0.4-1.2,0.4h-5.8
							c0,0.6,0.1,1.1,0.5,1.5s0.7,0.7,1.2,1s1,0.3,1.5,0.3c0.4,0,0.7,0,1-0.1s0.5-0.1,0.7-0.2s0.4-0.1,0.5-0.2
							c0.1-0.1,0.3-0.1,0.4-0.2c0.1-0.1,0.2-0.1,0.3-0.1c0.1,0,0.2,0,0.3,0s0.2,0.1,0.3,0.3c0.1,0.1,0.1,0.2,0.2,0.3
							c0,0.1,0,0.2,0,0.3c0,0.2-0.2,0.4-0.5,0.6c-0.3,0.2-0.8,0.4-1.3,0.6C175.2,19.2,174.6,19.3,173.9,19.3z M170.7,13.7h5
							c0.3,0,0.4,0,0.6-0.1c0.1-0.1,0.2-0.2,0.2-0.5c0-0.4-0.1-0.7-0.3-1c-0.2-0.3-0.5-0.5-0.9-0.7c-0.4-0.2-0.8-0.3-1.4-0.3
							c-0.6,0-1.1,0.1-1.6,0.4s-0.9,0.5-1.1,1C170.8,12.8,170.7,13.2,170.7,13.7z"/>
						<path style="fill:#363F52;" d="M183.2,19.2c-0.4,0-0.8,0-1.1-0.1c-0.3-0.1-0.6-0.2-0.9-0.3s-0.5-0.4-0.6-0.6
							c-0.2-0.3-0.3-0.6-0.4-0.9c-0.1-0.4-0.1-0.8-0.1-1.3v-10c0-0.2,0-0.4,0-0.5c0-0.1,0.1-0.2,0.2-0.3s0.3-0.1,0.6-0.1
							c0.3,0,0.5,0,0.6,0.1c0.1,0.1,0.2,0.2,0.2,0.3c0,0.1,0.1,0.3,0.1,0.5v10c0,0.3,0,0.5,0.1,0.7s0.1,0.4,0.2,0.5
							c0.1,0.1,0.3,0.2,0.4,0.3c0.2,0.1,0.4,0.1,0.6,0.1c0.2,0,0.3,0,0.4,0.1c0.1,0,0.2,0.1,0.3,0.2c0.1,0.1,0.1,0.3,0.1,0.6
							c0,0.3,0,0.5-0.1,0.6c-0.1,0.1-0.2,0.2-0.3,0.2C183.5,19.2,183.3,19.2,183.2,19.2z"/>
						<path style="fill:#363F52;" d="M188.8,19.2c-0.4,0-0.8,0-1.1-0.1c-0.3-0.1-0.6-0.2-0.9-0.3s-0.5-0.4-0.6-0.6
							c-0.2-0.3-0.3-0.6-0.4-0.9c-0.1-0.4-0.1-0.8-0.1-1.3v-10c0-0.2,0-0.4,0-0.5c0-0.1,0.1-0.2,0.2-0.3s0.3-0.1,0.6-0.1
							c0.3,0,0.5,0,0.6,0.1c0.1,0.1,0.2,0.2,0.2,0.3c0,0.1,0.1,0.3,0.1,0.5v10c0,0.3,0,0.5,0.1,0.7s0.1,0.4,0.2,0.5
							c0.1,0.1,0.3,0.2,0.4,0.3c0.2,0.1,0.4,0.1,0.6,0.1c0.2,0,0.3,0,0.4,0.1c0.1,0,0.2,0.1,0.3,0.2c0.1,0.1,0.1,0.3,0.1,0.6
							c0,0.3,0,0.5-0.1,0.6c-0.1,0.1-0.2,0.2-0.3,0.2C189.1,19.2,188.9,19.2,188.8,19.2z"/>
						<path style="fill:#363F52;" d="M199.6,19.2c-0.3,0-0.5-0.1-0.6-0.2c-0.1-0.1-0.2-0.3-0.2-0.6l0.1-1c-0.1,0.2-0.3,0.5-0.6,0.7
							c-0.3,0.3-0.6,0.5-1.1,0.7c-0.5,0.2-1,0.3-1.7,0.3c-0.6,0-1.2-0.1-1.8-0.4c-0.6-0.3-1-0.6-1.5-1.1c-0.4-0.5-0.7-1-1-1.6
							s-0.4-1.2-0.4-1.9c0-0.7,0.1-1.3,0.4-1.9s0.6-1.1,1-1.5c0.4-0.4,0.9-0.8,1.5-1c0.6-0.3,1.1-0.4,1.8-0.4c0.6,0,1.1,0.1,1.5,0.2
							s0.8,0.4,1.1,0.6c0.3,0.2,0.6,0.5,0.8,0.8l0-0.8c0-0.3,0-0.5,0.2-0.6s0.4-0.2,0.7-0.2c0.3,0,0.4,0,0.5,0.1s0.2,0.2,0.2,0.3
							c0,0.1,0.1,0.3,0.1,0.5v7.7c0,0.2,0,0.4-0.1,0.5s-0.1,0.3-0.2,0.3S199.9,19.2,199.6,19.2z M195.7,17.5c0.5,0,1-0.1,1.5-0.4
							c0.4-0.3,0.8-0.7,1.1-1.1c0.3-0.5,0.4-1,0.4-1.6c0-0.6-0.1-1.2-0.4-1.6c-0.3-0.5-0.6-0.8-1.1-1.1s-0.9-0.4-1.5-0.4
							c-0.6,0-1.2,0.1-1.6,0.4c-0.5,0.3-0.8,0.7-1.1,1.2c-0.3,0.5-0.4,1-0.4,1.6c0,0.6,0.1,1.1,0.4,1.6s0.6,0.8,1.1,1.1
							C194.6,17.4,195.1,17.5,195.7,17.5z"/>
						<path style="fill:#363F52;" d="M206.5,15.3c-0.2,0-0.4,0-0.5-0.1c-0.1-0.1-0.2-0.2-0.2-0.3c0-0.1,0-0.3,0-0.4v-1.9
							c0-0.3,0.1-0.5,0.2-0.6c0.1-0.2,0.3-0.3,0.6-0.4c0.2-0.1,0.5-0.2,0.8-0.3c0.3-0.1,0.5-0.3,0.8-0.5c0.2-0.2,0.4-0.4,0.6-0.7
							c0.1-0.3,0.2-0.7,0.2-1.2c0-0.7-0.2-1.3-0.6-1.7c-0.4-0.4-1-0.6-1.8-0.6c-0.4,0-0.7,0.1-1,0.2s-0.6,0.3-0.8,0.5
							c-0.2,0.2-0.4,0.5-0.5,0.8c-0.1,0.2-0.1,0.3-0.2,0.4c-0.1,0.1-0.2,0.2-0.3,0.2c-0.1,0-0.3,0-0.5-0.1c-0.2-0.1-0.4-0.1-0.5-0.2
							c-0.1-0.1-0.1-0.2-0.2-0.3c0-0.1,0-0.3,0-0.4c0.1-0.2,0.2-0.5,0.3-0.7c0.1-0.2,0.3-0.5,0.5-0.7c0.2-0.2,0.5-0.4,0.8-0.6
							c0.3-0.2,0.6-0.3,1-0.4c0.4-0.1,0.8-0.2,1.3-0.2c0.8,0,1.6,0.2,2.2,0.5c0.6,0.3,1.1,0.8,1.4,1.3c0.3,0.6,0.5,1.3,0.5,2
							c0,0.4-0.1,0.8-0.2,1.2c-0.1,0.4-0.3,0.7-0.5,1c-0.2,0.3-0.4,0.6-0.7,0.8c-0.3,0.2-0.6,0.4-0.9,0.6c-0.3,0.2-0.6,0.3-1,0.4
							l0.1-0.2v1.9c0,0.2,0,0.3-0.1,0.4c0,0.1-0.1,0.2-0.2,0.3C207,15.2,206.8,15.3,206.5,15.3z M206.5,19.2c-0.4,0-0.7-0.1-0.9-0.3
							c-0.1-0.2-0.2-0.4-0.2-0.8c0-0.2,0-0.3,0-0.5c0-0.2,0.1-0.3,0.3-0.4s0.4-0.2,0.8-0.2c0.5,0,0.8,0.1,0.9,0.2
							c0.1,0.2,0.2,0.4,0.2,0.8c0,0.2,0,0.3,0,0.5c0,0.2-0.1,0.3-0.3,0.4C207.2,19.2,206.9,19.2,206.5,19.2z"/>
					</g>
					<g style="enable-background:new    ;">
						<path style="fill:#363F52;" d="M305.6,15.1c0.3,0,0.4,0,0.6,0.1c0.1,0.1,0.2,0.2,0.2,0.3c0,0.1,0,0.3,0,0.5v1.9
							c0,0.3-0.1,0.5-0.2,0.6c-0.1,0.2-0.3,0.3-0.6,0.4c-0.2,0.1-0.5,0.2-0.8,0.3c-0.3,0.1-0.5,0.3-0.8,0.4
							c-0.2,0.2-0.4,0.4-0.6,0.7c-0.1,0.3-0.2,0.7-0.2,1.2c0,0.7,0.2,1.3,0.6,1.7c0.4,0.4,1,0.6,1.8,0.6c0.4,0,0.7-0.1,1-0.2
							c0.3-0.1,0.6-0.3,0.8-0.5c0.2-0.2,0.4-0.5,0.5-0.8c0.1-0.2,0.1-0.3,0.2-0.4c0.1-0.1,0.2-0.1,0.3-0.2c0.1,0,0.3,0,0.5,0.1
							c0.2,0.1,0.3,0.1,0.4,0.2c0.1,0.1,0.1,0.2,0.2,0.3s0,0.3-0.1,0.5c-0.1,0.2-0.1,0.5-0.3,0.7c-0.1,0.2-0.3,0.5-0.5,0.7
							c-0.2,0.2-0.5,0.4-0.8,0.6c-0.3,0.2-0.6,0.3-1,0.4s-0.8,0.2-1.2,0.2c-0.8,0-1.6-0.2-2.2-0.5c-0.6-0.3-1.1-0.8-1.4-1.3
							c-0.3-0.6-0.5-1.3-0.5-2c0-0.4,0.1-0.8,0.2-1.2c0.1-0.4,0.3-0.7,0.5-1c0.2-0.3,0.4-0.6,0.7-0.8c0.3-0.2,0.6-0.4,0.9-0.6
							s0.7-0.3,1-0.4l-0.1,0.2v-1.9c0-0.2,0-0.3,0.1-0.4c0-0.1,0.1-0.2,0.2-0.3C305.2,15.1,305.4,15.1,305.6,15.1z M305.6,11.2
							c0.4,0,0.7,0.1,0.9,0.2c0.1,0.2,0.2,0.4,0.2,0.8c0,0.2,0,0.3,0,0.5s-0.1,0.3-0.3,0.4c-0.1,0.1-0.4,0.2-0.8,0.2
							c-0.5,0-0.7-0.1-0.9-0.3c-0.1-0.2-0.2-0.4-0.2-0.8c0-0.2,0-0.3,0-0.5s0.1-0.3,0.3-0.4S305.2,11.2,305.6,11.2z"/>
						<path style="fill:#363F52;" d="M322,7.3c0.3,0.2,0.4,0.4,0.5,0.6c0,0.2,0,0.4-0.2,0.6l-4.7,7.1v4.7c0,0.2,0,0.3-0.1,0.5
							c0,0.1-0.1,0.2-0.2,0.3c-0.1,0.1-0.3,0.1-0.6,0.1s-0.5,0-0.6-0.1c-0.1-0.1-0.2-0.2-0.3-0.3s-0.1-0.3-0.1-0.5v-4.7L311,8.5
							c-0.2-0.2-0.2-0.4-0.2-0.6c0-0.2,0.2-0.4,0.5-0.6c0.2-0.1,0.4-0.2,0.5-0.2c0.1,0,0.3,0,0.4,0.1s0.2,0.2,0.3,0.4l4.1,6.4
							l4.1-6.4c0.1-0.2,0.2-0.3,0.4-0.4c0.1-0.1,0.2-0.1,0.4-0.1C321.7,7.1,321.8,7.2,322,7.3z"/>
						<path style="fill:#363F52;" d="M329.5,11.7l1.9,0l2.8,0c0.2,0,0.3,0,0.5,0c0.1,0,0.2,0.1,0.3,0.2c0.1,0.1,0.1,0.3,0.1,0.6
							s0,0.4-0.1,0.6s-0.2,0.2-0.3,0.2s-0.3,0.1-0.5,0.1l-2.7,0l-2,0c-0.3,0-0.5-0.1-0.6-0.2c-0.1-0.1-0.1-0.4-0.1-0.7
							c0-0.3,0.1-0.5,0.2-0.6C329,11.8,329.2,11.7,329.5,11.7z M333.9,21.2c-0.6,0-1.2-0.1-1.6-0.2c-0.4-0.1-0.8-0.3-1.1-0.6
							c-0.3-0.3-0.5-0.6-0.6-1c-0.1-0.4-0.2-0.9-0.2-1.5V9.1c0-0.2,0-0.3,0.1-0.5c0-0.1,0.1-0.2,0.2-0.3c0.1-0.1,0.3-0.1,0.6-0.1
							c0.3,0,0.4,0,0.6,0.1s0.2,0.2,0.3,0.3c0,0.1,0.1,0.3,0.1,0.5V18c0,0.3,0,0.6,0.1,0.8s0.2,0.4,0.3,0.5c0.1,0.1,0.3,0.2,0.5,0.2
							c0.2,0,0.5,0,0.8,0c0.2,0,0.4,0,0.5,0.1s0.2,0.1,0.3,0.2c0.1,0.1,0.1,0.3,0.1,0.5c0,0.3,0,0.4-0.1,0.6
							c-0.1,0.1-0.2,0.2-0.3,0.2C334.3,21.2,334.1,21.2,333.9,21.2z"/>
						<path style="fill:#363F52;" d="M340.7,21.2c-0.6,0-1.1-0.1-1.6-0.3c-0.5-0.2-0.9-0.5-1.3-0.9c-0.4-0.4-0.7-0.9-0.9-1.4
							c-0.2-0.5-0.3-1.2-0.3-1.9v-4.3c0-0.2,0-0.3,0.1-0.5c0-0.1,0.1-0.2,0.2-0.3c0.1-0.1,0.3-0.1,0.6-0.1s0.4,0,0.6,0.1
							c0.1,0.1,0.2,0.2,0.2,0.3c0,0.1,0.1,0.3,0.1,0.5v4.3c0,0.5,0.1,1,0.3,1.5c0.2,0.4,0.5,0.7,0.9,1c0.4,0.2,0.8,0.3,1.4,0.3
							c0.6,0,1-0.1,1.5-0.3c0.4-0.2,0.7-0.5,0.9-1c0.2-0.4,0.3-0.9,0.3-1.5v-4.4c0-0.2,0-0.3,0.1-0.5c0-0.1,0.1-0.2,0.2-0.3
							c0.1-0.1,0.3-0.1,0.6-0.1s0.4,0,0.6,0.1c0.1,0.1,0.2,0.2,0.2,0.3c0,0.1,0.1,0.3,0.1,0.5v7.9c0,0.2,0,0.3-0.1,0.4
							s-0.1,0.2-0.2,0.3c-0.1,0.1-0.3,0.1-0.6,0.1c-0.2,0-0.3,0-0.4-0.1c-0.1,0-0.2-0.1-0.2-0.2c-0.1-0.1-0.1-0.1-0.1-0.2
							c0-0.1,0-0.2,0-0.3l0.1-0.9c-0.1,0.2-0.3,0.3-0.5,0.5c-0.2,0.2-0.4,0.4-0.6,0.5c-0.2,0.2-0.5,0.3-0.8,0.4
							C341.5,21.2,341.1,21.2,340.7,21.2z"/>
						<path style="fill:#363F52;" d="M353.7,21.2c-0.3,0-0.4,0-0.6-0.1s-0.2-0.2-0.2-0.3c0-0.1-0.1-0.3-0.1-0.5v-7.9
							c0-0.2,0-0.3,0.1-0.5c0-0.1,0.1-0.2,0.2-0.3c0.1-0.1,0.3-0.1,0.6-0.1c0.3,0,0.5,0.1,0.6,0.2c0.1,0.1,0.2,0.3,0.2,0.6l-0.1,0.9
							c0.1-0.2,0.2-0.4,0.4-0.6s0.4-0.4,0.7-0.5c0.3-0.2,0.5-0.3,0.8-0.4c0.3-0.1,0.6-0.1,0.9-0.1c0.5,0,0.9,0.1,1.2,0.2
							c0.4,0.2,0.7,0.4,1,0.7c0.3,0.3,0.5,0.7,0.7,1.1c0.3-0.4,0.5-0.8,0.8-1.1c0.3-0.3,0.6-0.6,1-0.7c0.4-0.2,0.8-0.2,1.3-0.2
							c0.8,0,1.4,0.2,1.9,0.6c0.5,0.4,0.9,0.9,1.2,1.6c0.3,0.7,0.4,1.5,0.4,2.5v4.2c0,0.2,0,0.3,0,0.5c0,0.1-0.1,0.2-0.2,0.3
							c-0.1,0.1-0.3,0.1-0.6,0.1c-0.3,0-0.4,0-0.6-0.1c-0.1-0.1-0.2-0.2-0.2-0.3c0-0.1-0.1-0.3-0.1-0.5v-4.2c0-0.6-0.1-1.1-0.2-1.5
							c-0.1-0.4-0.4-0.8-0.6-1s-0.7-0.4-1.1-0.4c-0.5,0-0.9,0.1-1.3,0.4c-0.4,0.2-0.6,0.6-0.9,1s-0.3,1-0.3,1.6v4.2
							c0,0.2,0,0.4-0.1,0.5c-0.1,0.1-0.2,0.2-0.4,0.3c-0.2,0.1-0.4,0.1-0.6,0c-0.2,0-0.4-0.1-0.5-0.2c-0.1-0.1-0.2-0.2-0.2-0.3
							s0-0.3,0-0.4v-4.2c0-0.6-0.1-1.1-0.2-1.5c-0.1-0.4-0.4-0.8-0.6-1s-0.7-0.4-1.1-0.4c-0.5,0-0.9,0.1-1.3,0.4
							c-0.4,0.2-0.6,0.6-0.9,1c-0.2,0.4-0.3,0.9-0.3,1.5v4.2c0,0.2,0,0.3-0.1,0.5c0,0.1-0.1,0.2-0.2,0.3
							C354.2,21.2,354,21.2,353.7,21.2z"/>
						<path style="fill:#363F52;" d="M373.2,21.2c-0.6,0-1.1-0.1-1.6-0.3c-0.5-0.2-0.9-0.5-1.3-0.9c-0.4-0.4-0.7-0.9-0.9-1.4
							c-0.2-0.5-0.3-1.2-0.3-1.9v-4.3c0-0.2,0-0.3,0.1-0.5c0-0.1,0.1-0.2,0.2-0.3c0.1-0.1,0.3-0.1,0.6-0.1s0.4,0,0.6,0.1
							c0.1,0.1,0.2,0.2,0.2,0.3c0,0.1,0.1,0.3,0.1,0.5v4.3c0,0.5,0.1,1,0.3,1.5c0.2,0.4,0.5,0.7,0.9,1c0.4,0.2,0.8,0.3,1.4,0.3
							c0.6,0,1-0.1,1.5-0.3c0.4-0.2,0.7-0.5,0.9-1c0.2-0.4,0.3-0.9,0.3-1.5v-4.4c0-0.2,0-0.3,0.1-0.5c0-0.1,0.1-0.2,0.2-0.3
							c0.1-0.1,0.3-0.1,0.6-0.1s0.4,0,0.6,0.1c0.1,0.1,0.2,0.2,0.2,0.3c0,0.1,0.1,0.3,0.1,0.5v7.9c0,0.2,0,0.3-0.1,0.4
							s-0.1,0.2-0.2,0.3c-0.1,0.1-0.3,0.1-0.6,0.1c-0.2,0-0.3,0-0.4-0.1c-0.1,0-0.2-0.1-0.2-0.2c-0.1-0.1-0.1-0.1-0.1-0.2
							c0-0.1,0-0.2,0-0.3l0.1-0.9c-0.1,0.2-0.3,0.3-0.5,0.5c-0.2,0.2-0.4,0.4-0.6,0.5c-0.2,0.2-0.5,0.3-0.8,0.4
							C373.9,21.2,373.6,21.2,373.2,21.2z"/>
						<path style="fill:#363F52;" d="M381.1,21.2c-0.3,0-0.4,0-0.6-0.1c-0.1-0.1-0.2-0.2-0.2-0.3c0-0.1-0.1-0.3-0.1-0.5v-7.9
							c0-0.2,0-0.3,0.1-0.4c0-0.1,0.1-0.2,0.2-0.3s0.3-0.1,0.6-0.1c0.2,0,0.4,0,0.5,0.1s0.2,0.1,0.2,0.2c0,0.1,0.1,0.2,0.1,0.3
							c0,0.1,0,0.2,0,0.3l0,0.9c0.1-0.2,0.3-0.4,0.5-0.6c0.2-0.2,0.4-0.4,0.7-0.6c0.3-0.2,0.6-0.3,0.9-0.4c0.3-0.1,0.7-0.1,1-0.1
							c0.6,0,1.1,0.1,1.6,0.3c0.5,0.2,0.9,0.5,1.3,0.9c0.4,0.4,0.6,0.9,0.8,1.4c0.2,0.5,0.3,1.2,0.3,1.9v4.3c0,0.2,0,0.3,0,0.5
							c0,0.1-0.1,0.2-0.2,0.3c-0.1,0.1-0.3,0.1-0.6,0.1c-0.3,0-0.5,0-0.6-0.1c-0.1-0.1-0.2-0.2-0.2-0.3c0-0.1-0.1-0.3-0.1-0.5v-4.3
							c0-0.6-0.1-1-0.3-1.5c-0.2-0.4-0.5-0.7-0.8-1c-0.4-0.2-0.8-0.3-1.4-0.3c-0.5,0-1,0.1-1.4,0.3c-0.4,0.2-0.7,0.6-0.9,1
							c-0.2,0.4-0.3,0.9-0.3,1.5v4.4c0,0.2,0,0.3-0.1,0.5c0,0.1-0.1,0.2-0.2,0.3C381.6,21.1,381.4,21.2,381.1,21.2z"/>
						<path style="fill:#363F52;" d="M392.3,9.1c-0.3,0-0.5,0-0.7-0.1c-0.1-0.1-0.2-0.2-0.3-0.4c0-0.2-0.1-0.3-0.1-0.6
							c0-0.2,0-0.4,0.1-0.5s0.2-0.3,0.3-0.3c0.1-0.1,0.4-0.1,0.7-0.1c0.3,0,0.5,0,0.6,0.1c0.1,0.1,0.2,0.2,0.3,0.4
							c0,0.2,0.1,0.3,0.1,0.6c0,0.2,0,0.4-0.1,0.6c0,0.2-0.1,0.3-0.3,0.3C392.9,9.1,392.6,9.1,392.3,9.1z M392.3,21.2
							c-0.3,0-0.4,0-0.6-0.1c-0.1-0.1-0.2-0.2-0.2-0.3c0-0.1-0.1-0.3-0.1-0.5v-7.9c0-0.2,0-0.3,0.1-0.5c0-0.1,0.1-0.2,0.2-0.3
							c0.1-0.1,0.3-0.1,0.6-0.1c0.3,0,0.4,0,0.6,0.1c0.1,0.1,0.2,0.2,0.2,0.3c0,0.1,0.1,0.3,0.1,0.5v7.9c0,0.2,0,0.3-0.1,0.5
							c0,0.1-0.1,0.2-0.2,0.3C392.8,21.2,392.6,21.2,392.3,21.2z"/>
						<path style="fill:#363F52;" d="M400.4,21.2c-0.7,0-1.3-0.1-1.9-0.3c-0.6-0.2-1.1-0.6-1.6-1s-0.8-0.9-1.1-1.5
							c-0.3-0.6-0.4-1.3-0.4-2c0-0.8,0.1-1.4,0.4-2c0.3-0.6,0.6-1.1,1.1-1.5s1-0.8,1.6-1c0.6-0.2,1.2-0.3,1.9-0.3
							c0.5,0,0.9,0.1,1.3,0.2c0.4,0.1,0.8,0.3,1.2,0.5c0.3,0.2,0.6,0.4,0.7,0.7c0.1,0.2,0.2,0.3,0.3,0.4c0.1,0.1,0.1,0.2,0,0.4
							c-0.1,0.1-0.1,0.2-0.2,0.3c-0.1,0.1-0.2,0.2-0.3,0.2c-0.2,0.2-0.5,0.2-0.7,0.1c-0.1-0.1-0.3-0.3-0.5-0.4
							c-0.2-0.1-0.4-0.2-0.6-0.4c-0.2-0.1-0.4-0.2-0.6-0.2c-0.2-0.1-0.4-0.1-0.7-0.1c-0.6,0-1.2,0.1-1.7,0.4
							c-0.5,0.3-0.9,0.6-1.1,1.1c-0.3,0.5-0.4,1-0.4,1.7s0.1,1.2,0.4,1.6c0.3,0.5,0.6,0.8,1.1,1.1c0.5,0.3,1,0.4,1.6,0.4
							c0.3,0,0.5,0,0.8-0.1c0.3-0.1,0.5-0.2,0.7-0.3c0.2-0.1,0.4-0.3,0.6-0.4c0.1-0.1,0.2-0.2,0.3-0.2c0.1-0.1,0.2-0.1,0.3-0.1
							c0.1,0,0.2,0,0.3,0.1c0.1,0.1,0.2,0.2,0.4,0.4c0.1,0.1,0.2,0.2,0.2,0.4c0,0.1,0,0.3-0.1,0.4s-0.2,0.2-0.3,0.4
							c-0.2,0.2-0.5,0.4-0.9,0.6c-0.4,0.2-0.7,0.4-1.1,0.5C401.2,21.2,400.8,21.2,400.4,21.2z"/>
						<path style="fill:#363F52;" d="M407,9.1c-0.3,0-0.5,0-0.7-0.1c-0.1-0.1-0.2-0.2-0.3-0.4c0-0.2-0.1-0.3-0.1-0.6
							c0-0.2,0-0.4,0.1-0.5s0.2-0.3,0.3-0.3c0.1-0.1,0.4-0.1,0.7-0.1c0.3,0,0.5,0,0.6,0.1c0.1,0.1,0.2,0.2,0.3,0.4
							c0,0.2,0.1,0.3,0.1,0.6c0,0.2,0,0.4-0.1,0.6c0,0.2-0.1,0.3-0.3,0.3C407.5,9.1,407.3,9.1,407,9.1z M407,21.2
							c-0.3,0-0.4,0-0.6-0.1c-0.1-0.1-0.2-0.2-0.2-0.3c0-0.1-0.1-0.3-0.1-0.5v-7.9c0-0.2,0-0.3,0.1-0.5c0-0.1,0.1-0.2,0.2-0.3
							c0.1-0.1,0.3-0.1,0.6-0.1c0.3,0,0.4,0,0.6,0.1c0.1,0.1,0.2,0.2,0.2,0.3c0,0.1,0.1,0.3,0.1,0.5v7.9c0,0.2,0,0.3-0.1,0.5
							c0,0.1-0.1,0.2-0.2,0.3C407.4,21.2,407.2,21.2,407,21.2z"/>
						<path style="fill:#363F52;" d="M411.2,25.1c-0.3,0-0.4,0-0.6-0.1c-0.1-0.1-0.2-0.2-0.3-0.3c0-0.1-0.1-0.3-0.1-0.5V12.4
							c0-0.2,0-0.3,0.1-0.5c0-0.1,0.1-0.2,0.2-0.3c0.1-0.1,0.3-0.1,0.6-0.1c0.3,0,0.5,0,0.6,0.1c0.1,0.1,0.2,0.3,0.2,0.5v12.1
							c0,0.2,0,0.4,0,0.5s-0.1,0.2-0.2,0.3S411.5,25.1,411.2,25.1z M415.4,21.1c-0.7,0-1.2-0.1-1.8-0.4s-1-0.6-1.4-1
							c-0.4-0.4-0.7-0.9-0.9-1.5c-0.2-0.6-0.3-1.2-0.3-1.9c0-0.7,0.1-1.3,0.3-1.9c0.2-0.6,0.5-1.1,0.9-1.5c0.4-0.4,0.8-0.8,1.4-1
							c0.5-0.2,1.1-0.3,1.8-0.3c0.6,0,1.2,0.1,1.7,0.4s1,0.6,1.4,1c0.4,0.4,0.7,1,1,1.6c0.2,0.6,0.4,1.2,0.4,1.9s-0.1,1.3-0.4,1.9
							c-0.2,0.6-0.6,1.1-1,1.5s-0.9,0.8-1.4,1C416.6,21,416,21.1,415.4,21.1z M415.1,19.5c0.6,0,1.1-0.1,1.5-0.4s0.8-0.7,1.1-1.1
							c0.3-0.5,0.4-1,0.4-1.6c0-0.6-0.1-1.2-0.4-1.6c-0.3-0.5-0.6-0.8-1.1-1.1c-0.4-0.3-1-0.4-1.5-0.4c-0.6,0-1.1,0.1-1.5,0.4
							c-0.4,0.3-0.8,0.6-1.1,1.1c-0.3,0.5-0.4,1-0.4,1.6s0.1,1.2,0.4,1.6c0.3,0.5,0.6,0.9,1.1,1.1C414.1,19.3,414.6,19.5,415.1,19.5
							z"/>
						<path style="fill:#363F52;" d="M422.9,9.1c-0.3,0-0.5,0-0.7-0.1c-0.1-0.1-0.2-0.2-0.3-0.4c0-0.2-0.1-0.3-0.1-0.6
							c0-0.2,0-0.4,0.1-0.5s0.2-0.3,0.3-0.3c0.1-0.1,0.4-0.1,0.7-0.1c0.3,0,0.5,0,0.6,0.1c0.1,0.1,0.2,0.2,0.3,0.4
							c0,0.2,0.1,0.3,0.1,0.6c0,0.2,0,0.4-0.1,0.6c0,0.2-0.1,0.3-0.3,0.3C423.5,9.1,423.2,9.1,422.9,9.1z M422.9,21.2
							c-0.3,0-0.4,0-0.6-0.1c-0.1-0.1-0.2-0.2-0.2-0.3c0-0.1-0.1-0.3-0.1-0.5v-7.9c0-0.2,0-0.3,0.1-0.5c0-0.1,0.1-0.2,0.2-0.3
							c0.1-0.1,0.3-0.1,0.6-0.1c0.3,0,0.4,0,0.6,0.1c0.1,0.1,0.2,0.2,0.2,0.3c0,0.1,0.1,0.3,0.1,0.5v7.9c0,0.2,0,0.3-0.1,0.5
							c0,0.1-0.1,0.2-0.2,0.3C423.4,21.2,423.2,21.2,422.9,21.2z"/>
						<path style="fill:#363F52;" d="M430.8,21.3c-0.7,0-1.3-0.1-1.9-0.4c-0.6-0.3-1.1-0.6-1.6-1.1c-0.5-0.4-0.8-1-1.1-1.6
							c-0.3-0.6-0.4-1.3-0.4-2c0-0.7,0.1-1.3,0.4-1.9c0.3-0.6,0.6-1.1,1.1-1.6c0.5-0.5,1-0.8,1.6-1.1s1.2-0.4,1.9-0.4
							c0.9,0,1.8,0.2,2.5,0.6c0.7,0.4,1.3,1,1.8,1.8c0.4,0.7,0.7,1.6,0.7,2.5c0,0.7-0.1,1.4-0.4,2c-0.3,0.6-0.6,1.1-1.1,1.6
							c-0.5,0.4-1,0.8-1.6,1C432.1,21.2,431.5,21.3,430.8,21.3z M430.8,19.6c0.6,0,1.1-0.1,1.6-0.4s0.9-0.7,1.2-1.2s0.4-1.1,0.4-1.7
							s-0.1-1.2-0.4-1.7c-0.3-0.5-0.6-0.9-1.1-1.1s-1-0.4-1.6-0.4c-0.6,0-1.1,0.1-1.6,0.4c-0.5,0.3-0.9,0.7-1.1,1.1
							c-0.3,0.5-0.4,1-0.4,1.6c0,0.6,0.1,1.2,0.4,1.7c0.3,0.5,0.7,0.9,1.2,1.1S430.2,19.6,430.8,19.6z"/>
						<path style="fill:#363F52;" d="M441.3,17.3c-0.2,0-0.4,0-0.5-0.1c-0.1-0.1-0.2-0.2-0.2-0.3c0-0.1,0-0.3,0-0.4v-1.9
							c0-0.3,0.1-0.5,0.2-0.6c0.1-0.2,0.3-0.3,0.6-0.4c0.2-0.1,0.5-0.2,0.8-0.3c0.3-0.1,0.5-0.3,0.8-0.5c0.2-0.2,0.4-0.4,0.6-0.7
							c0.1-0.3,0.2-0.7,0.2-1.2c0-0.7-0.2-1.3-0.6-1.7c-0.4-0.4-1-0.6-1.8-0.6c-0.4,0-0.7,0.1-1,0.2s-0.6,0.3-0.8,0.5
							c-0.2,0.2-0.4,0.5-0.5,0.8c-0.1,0.2-0.1,0.3-0.2,0.4c-0.1,0.1-0.2,0.2-0.3,0.2c-0.1,0-0.3,0-0.5-0.1c-0.2-0.1-0.4-0.1-0.5-0.2
							c-0.1-0.1-0.1-0.2-0.2-0.3c0-0.1,0-0.3,0-0.4c0.1-0.2,0.2-0.5,0.3-0.7c0.1-0.2,0.3-0.5,0.5-0.7c0.2-0.2,0.5-0.4,0.8-0.6
							c0.3-0.2,0.6-0.3,1-0.4c0.4-0.1,0.8-0.2,1.3-0.2c0.8,0,1.6,0.2,2.2,0.5c0.6,0.3,1.1,0.8,1.4,1.3c0.3,0.6,0.5,1.3,0.5,2
							c0,0.4-0.1,0.8-0.2,1.2c-0.1,0.4-0.3,0.7-0.5,1c-0.2,0.3-0.4,0.6-0.7,0.8c-0.3,0.2-0.6,0.4-0.9,0.6c-0.3,0.2-0.6,0.3-1,0.4
							l0.1-0.2v1.9c0,0.2,0,0.3-0.1,0.4c0,0.1-0.1,0.2-0.2,0.3C441.8,17.2,441.6,17.3,441.3,17.3z M441.3,21.2
							c-0.4,0-0.7-0.1-0.9-0.3c-0.1-0.2-0.2-0.4-0.2-0.8c0-0.2,0-0.3,0-0.5c0-0.2,0.1-0.3,0.3-0.4s0.4-0.2,0.8-0.2
							c0.5,0,0.8,0.1,0.9,0.2c0.1,0.2,0.2,0.4,0.2,0.8c0,0.2,0,0.3,0,0.5c0,0.2-0.1,0.3-0.3,0.4C442,21.2,441.7,21.2,441.3,21.2z"/>
					</g>
					<g style="enable-background:new    ;">
						<path style="fill:#363F52;" d="M542,15.1c0.3,0,0.4,0,0.5,0.1c0.1,0.1,0.2,0.2,0.2,0.3c0,0.1,0,0.3,0,0.5v1.9
							c0,0.3-0.1,0.5-0.2,0.6c-0.1,0.2-0.3,0.3-0.6,0.4c-0.2,0.1-0.5,0.2-0.8,0.3c-0.3,0.1-0.5,0.3-0.8,0.4
							c-0.2,0.2-0.4,0.4-0.6,0.7c-0.1,0.3-0.2,0.7-0.2,1.2c0,0.7,0.2,1.3,0.6,1.7c0.4,0.4,1,0.6,1.8,0.6c0.4,0,0.7-0.1,1-0.2
							c0.3-0.1,0.6-0.3,0.8-0.5c0.2-0.2,0.4-0.5,0.5-0.8c0.1-0.2,0.1-0.3,0.2-0.4c0.1-0.1,0.2-0.1,0.3-0.2c0.1,0,0.3,0,0.5,0.1
							c0.2,0.1,0.3,0.1,0.4,0.2c0.1,0.1,0.2,0.2,0.2,0.3c0,0.1,0,0.3,0,0.5c-0.1,0.2-0.2,0.5-0.3,0.7c-0.1,0.2-0.3,0.5-0.5,0.7
							s-0.5,0.4-0.8,0.6c-0.3,0.2-0.6,0.3-1,0.4s-0.8,0.2-1.2,0.2c-0.8,0-1.6-0.2-2.2-0.5c-0.6-0.3-1.1-0.8-1.4-1.3
							c-0.3-0.6-0.5-1.3-0.5-2c0-0.4,0.1-0.8,0.2-1.2c0.1-0.4,0.3-0.7,0.5-1c0.2-0.3,0.4-0.6,0.7-0.8c0.3-0.2,0.6-0.4,0.9-0.6
							c0.3-0.2,0.7-0.3,1-0.4l-0.1,0.2v-1.9c0-0.2,0-0.3,0.1-0.4c0-0.1,0.1-0.2,0.2-0.3C541.5,15.1,541.7,15.1,542,15.1z
							 M541.9,11.2c0.4,0,0.7,0.1,0.9,0.2c0.1,0.2,0.2,0.4,0.2,0.8c0,0.2,0,0.3,0,0.5c0,0.2-0.1,0.3-0.3,0.4
							c-0.1,0.1-0.4,0.2-0.8,0.2c-0.5,0-0.7-0.1-0.9-0.3c-0.1-0.2-0.2-0.4-0.2-0.8c0-0.2,0-0.3,0-0.5c0-0.2,0.1-0.3,0.3-0.4
							S541.6,11.2,541.9,11.2z"/>
						<path style="fill:#363F52;" d="M561.8,19.4c0.3,0.2,0.4,0.4,0.5,0.5c0,0.2,0,0.4-0.2,0.7c-0.1,0.2-0.3,0.3-0.4,0.4
							s-0.2,0.1-0.4,0c-0.1,0-0.3-0.1-0.5-0.2l-2.2-1.5c-0.6,0.6-1.3,1.1-2.1,1.4c-0.8,0.4-1.6,0.5-2.5,0.5c-0.9,0-1.8-0.2-2.7-0.5
							c-0.8-0.4-1.6-0.9-2.2-1.5c-0.6-0.6-1.1-1.4-1.5-2.2c-0.4-0.8-0.5-1.8-0.5-2.7c0-1,0.2-1.9,0.5-2.8c0.3-0.9,0.8-1.6,1.5-2.3
							s1.3-1.2,2.2-1.5c0.8-0.4,1.7-0.6,2.6-0.6c1,0,1.9,0.2,2.7,0.5c0.8,0.4,1.6,0.9,2.2,1.5s1.1,1.4,1.5,2.3
							c0.4,0.9,0.5,1.8,0.5,2.8c0,0.7-0.1,1.3-0.3,2c-0.2,0.6-0.4,1.2-0.8,1.7L561.8,19.4z M553.9,19.5c0.7,0,1.3-0.1,2-0.4
							s1.1-0.6,1.6-1.1s0.8-1,1.1-1.7c0.3-0.6,0.4-1.3,0.4-2.1c0-0.7-0.1-1.4-0.4-2c-0.3-0.6-0.6-1.2-1.1-1.7
							c-0.5-0.5-1-0.9-1.6-1.2S554.6,9,554,9s-1.3,0.1-1.9,0.4c-0.6,0.3-1.1,0.7-1.6,1.1c-0.5,0.5-0.8,1-1.1,1.7
							c-0.3,0.6-0.4,1.3-0.4,2.1c0,0.7,0.1,1.4,0.4,2c0.3,0.6,0.6,1.2,1.1,1.7c0.5,0.5,1,0.9,1.6,1.1
							C552.6,19.4,553.2,19.5,553.9,19.5z"/>
						<path style="fill:#363F52;" d="M568,21.2c-0.6,0-1.1-0.1-1.6-0.3c-0.5-0.2-0.9-0.5-1.3-0.9s-0.7-0.9-0.9-1.4
							c-0.2-0.5-0.3-1.2-0.3-1.9v-4.3c0-0.2,0-0.3,0.1-0.5c0-0.1,0.1-0.2,0.2-0.3s0.3-0.1,0.6-0.1c0.3,0,0.4,0,0.6,0.1
							c0.1,0.1,0.2,0.2,0.2,0.3c0,0.1,0.1,0.3,0.1,0.5v4.3c0,0.5,0.1,1,0.3,1.5c0.2,0.4,0.5,0.7,0.8,1c0.4,0.2,0.8,0.3,1.4,0.3
							c0.6,0,1-0.1,1.5-0.3c0.4-0.2,0.7-0.5,0.9-1s0.3-0.9,0.3-1.5v-4.4c0-0.2,0-0.3,0.1-0.5c0-0.1,0.1-0.2,0.2-0.3s0.3-0.1,0.6-0.1
							c0.3,0,0.4,0,0.6,0.1c0.1,0.1,0.2,0.2,0.2,0.3c0,0.1,0.1,0.3,0.1,0.5v7.9c0,0.2,0,0.3-0.1,0.4s-0.1,0.2-0.2,0.3
							c-0.1,0.1-0.3,0.1-0.6,0.1c-0.2,0-0.3,0-0.5-0.1S571.1,21,571,21c-0.1-0.1-0.1-0.1-0.1-0.2c0-0.1,0-0.2,0-0.3l0.1-0.9
							c-0.1,0.2-0.3,0.3-0.5,0.5s-0.4,0.4-0.6,0.5c-0.2,0.2-0.5,0.3-0.8,0.4C568.7,21.2,568.3,21.2,568,21.2z"/>
						<path style="fill:#363F52;" d="M576,9.1c-0.3,0-0.5,0-0.7-0.1c-0.1-0.1-0.2-0.2-0.3-0.4c0-0.2-0.1-0.3-0.1-0.6
							c0-0.2,0-0.4,0.1-0.5c0.1-0.2,0.2-0.3,0.3-0.3s0.4-0.1,0.7-0.1c0.3,0,0.5,0,0.6,0.1s0.2,0.2,0.3,0.4s0.1,0.3,0.1,0.6
							c0,0.2,0,0.4-0.1,0.6s-0.1,0.3-0.3,0.3S576.2,9.1,576,9.1z M576,21.2c-0.3,0-0.4,0-0.6-0.1c-0.1-0.1-0.2-0.2-0.2-0.3
							c0-0.1-0.1-0.3-0.1-0.5v-7.9c0-0.2,0-0.3,0.1-0.5c0-0.1,0.1-0.2,0.2-0.3c0.1-0.1,0.3-0.1,0.6-0.1c0.3,0,0.4,0,0.6,0.1
							c0.1,0.1,0.2,0.2,0.2,0.3c0,0.1,0.1,0.3,0.1,0.5v7.9c0,0.2,0,0.3-0.1,0.5c0,0.1-0.1,0.2-0.2,0.3
							C576.4,21.2,576.2,21.2,576,21.2z"/>
						<path style="fill:#363F52;" d="M584,21.3c-0.8,0-1.5-0.1-2.1-0.4c-0.6-0.3-1.2-0.6-1.6-1.1c-0.4-0.5-0.8-1-1-1.6
							c-0.2-0.6-0.3-1.2-0.3-1.9c0-0.9,0.2-1.7,0.6-2.5c0.4-0.7,1-1.3,1.8-1.7c0.8-0.4,1.6-0.6,2.6-0.6c0.7,0,1.3,0.1,1.8,0.3
							c0.5,0.2,1,0.5,1.4,0.8c0.4,0.3,0.7,0.7,0.9,1.2c0.2,0.4,0.3,0.9,0.3,1.3c0,0.7-0.2,1.2-0.5,1.4s-0.7,0.4-1.2,0.4h-5.8
							c0,0.6,0.1,1.1,0.5,1.5c0.3,0.4,0.7,0.7,1.2,1s1,0.3,1.5,0.3c0.4,0,0.7,0,1-0.1s0.5-0.1,0.7-0.2s0.4-0.1,0.5-0.2
							c0.1-0.1,0.3-0.1,0.4-0.2c0.1-0.1,0.2-0.1,0.3-0.1c0.1,0,0.2,0,0.3,0s0.2,0.1,0.3,0.3c0.1,0.1,0.1,0.2,0.2,0.3
							c0,0.1,0,0.2,0,0.3c0,0.2-0.2,0.4-0.5,0.6s-0.8,0.4-1.3,0.6C585.4,21.2,584.7,21.3,584,21.3z M580.8,15.7h5
							c0.3,0,0.4,0,0.6-0.1s0.2-0.2,0.2-0.5c0-0.4-0.1-0.7-0.3-1c-0.2-0.3-0.5-0.5-0.9-0.7c-0.4-0.2-0.8-0.3-1.3-0.3
							c-0.6,0-1.1,0.1-1.6,0.4c-0.5,0.2-0.9,0.5-1.1,1C580.9,14.8,580.8,15.2,580.8,15.7z M583.1,10.2c-0.2,0-0.4,0-0.5-0.1
							s-0.2-0.2-0.3-0.5c-0.1-0.3-0.1-0.5,0-0.6c0.1-0.1,0.2-0.3,0.5-0.3l3.2-1.1c0.2,0,0.4,0,0.5,0.1c0.1,0.1,0.2,0.3,0.3,0.5
							c0.1,0.3,0.1,0.5,0,0.6s-0.2,0.3-0.5,0.3L583.1,10.2z"/>
						<path style="fill:#363F52;" d="M591.1,21.2c-0.3,0-0.4,0-0.6-0.1c-0.1-0.1-0.2-0.2-0.2-0.3c0-0.1-0.1-0.3-0.1-0.5v-7.9
							c0-0.2,0-0.3,0.1-0.4c0-0.1,0.1-0.2,0.2-0.3s0.3-0.1,0.6-0.1c0.2,0,0.4,0,0.5,0.1s0.2,0.1,0.2,0.2c0,0.1,0.1,0.2,0.1,0.3
							c0,0.1,0,0.2,0,0.3l0,0.9c0.1-0.2,0.3-0.4,0.5-0.6c0.2-0.2,0.4-0.4,0.7-0.6c0.3-0.2,0.6-0.3,0.9-0.4c0.3-0.1,0.7-0.1,1-0.1
							c0.6,0,1.1,0.1,1.6,0.3s0.9,0.5,1.3,0.9c0.4,0.4,0.6,0.9,0.8,1.4c0.2,0.5,0.3,1.2,0.3,1.9v4.3c0,0.2,0,0.3,0,0.5
							c0,0.1-0.1,0.2-0.2,0.3c-0.1,0.1-0.3,0.1-0.6,0.1c-0.3,0-0.5,0-0.6-0.1c-0.1-0.1-0.2-0.2-0.2-0.3c0-0.1-0.1-0.3-0.1-0.5v-4.3
							c0-0.6-0.1-1-0.3-1.5c-0.2-0.4-0.5-0.7-0.8-1c-0.4-0.2-0.8-0.3-1.4-0.3c-0.5,0-1,0.1-1.4,0.3c-0.4,0.2-0.7,0.6-0.9,1
							c-0.2,0.4-0.3,0.9-0.3,1.5v4.4c0,0.2,0,0.3-0.1,0.5c0,0.1-0.1,0.2-0.2,0.3C591.6,21.1,591.4,21.2,591.1,21.2z"/>
						<path style="fill:#363F52;" d="M606.5,11.7l1.9,0l2.8,0c0.2,0,0.3,0,0.5,0c0.1,0,0.2,0.1,0.3,0.2c0.1,0.1,0.1,0.3,0.1,0.6
							s0,0.4-0.1,0.6c-0.1,0.1-0.2,0.2-0.3,0.2c-0.1,0-0.3,0.1-0.5,0.1l-2.7,0l-2,0c-0.3,0-0.5-0.1-0.6-0.2
							c-0.1-0.1-0.1-0.4-0.1-0.7c0-0.3,0.1-0.5,0.2-0.6C606.1,11.8,606.3,11.7,606.5,11.7z M611,21.2c-0.6,0-1.2-0.1-1.6-0.2
							c-0.4-0.1-0.8-0.3-1.1-0.6c-0.3-0.3-0.5-0.6-0.6-1c-0.1-0.4-0.2-0.9-0.2-1.5V9.1c0-0.2,0-0.3,0.1-0.5c0-0.1,0.1-0.2,0.2-0.3
							s0.3-0.1,0.6-0.1c0.3,0,0.4,0,0.6,0.1c0.1,0.1,0.2,0.2,0.3,0.3c0,0.1,0.1,0.3,0.1,0.5V18c0,0.3,0,0.6,0.1,0.8
							c0.1,0.2,0.2,0.4,0.3,0.5c0.1,0.1,0.3,0.2,0.5,0.2c0.2,0,0.5,0,0.8,0c0.2,0,0.4,0,0.5,0.1c0.1,0,0.2,0.1,0.3,0.2
							c0.1,0.1,0.1,0.3,0.1,0.5c0,0.3,0,0.4-0.1,0.6c-0.1,0.1-0.2,0.2-0.3,0.2C611.4,21.2,611.2,21.2,611,21.2z"/>
						<path style="fill:#363F52;" d="M615,9.1c-0.3,0-0.5,0-0.7-0.1c-0.1-0.1-0.2-0.2-0.3-0.4c0-0.2-0.1-0.3-0.1-0.6
							c0-0.2,0-0.4,0.1-0.5c0.1-0.2,0.2-0.3,0.3-0.3s0.4-0.1,0.7-0.1c0.3,0,0.5,0,0.6,0.1s0.2,0.2,0.3,0.4s0.1,0.3,0.1,0.6
							c0,0.2,0,0.4-0.1,0.6s-0.1,0.3-0.3,0.3S615.3,9.1,615,9.1z M615,21.2c-0.3,0-0.4,0-0.6-0.1c-0.1-0.1-0.2-0.2-0.2-0.3
							c0-0.1-0.1-0.3-0.1-0.5v-7.9c0-0.2,0-0.3,0.1-0.5c0-0.1,0.1-0.2,0.2-0.3c0.1-0.1,0.3-0.1,0.6-0.1c0.3,0,0.4,0,0.6,0.1
							c0.1,0.1,0.2,0.2,0.2,0.3c0,0.1,0.1,0.3,0.1,0.5v7.9c0,0.2,0,0.3-0.1,0.5c0,0.1-0.1,0.2-0.2,0.3
							C615.4,21.2,615.2,21.2,615,21.2z"/>
						<path style="fill:#363F52;" d="M623,21.3c-0.8,0-1.5-0.1-2.1-0.4c-0.6-0.3-1.2-0.6-1.6-1.1c-0.4-0.5-0.8-1-1-1.6
							c-0.2-0.6-0.3-1.2-0.3-1.9c0-0.9,0.2-1.7,0.6-2.5c0.4-0.7,1-1.3,1.8-1.7c0.8-0.4,1.6-0.6,2.6-0.6c0.7,0,1.3,0.1,1.8,0.3
							c0.5,0.2,1,0.5,1.4,0.8c0.4,0.3,0.7,0.7,0.9,1.2c0.2,0.4,0.3,0.9,0.3,1.3c0,0.7-0.2,1.2-0.5,1.4s-0.7,0.4-1.2,0.4h-5.8
							c0,0.6,0.1,1.1,0.5,1.5c0.3,0.4,0.7,0.7,1.2,1s1,0.3,1.5,0.3c0.4,0,0.7,0,1-0.1s0.5-0.1,0.7-0.2s0.4-0.1,0.5-0.2
							c0.1-0.1,0.3-0.1,0.4-0.2c0.1-0.1,0.2-0.1,0.3-0.1c0.1,0,0.2,0,0.3,0s0.2,0.1,0.3,0.3c0.1,0.1,0.1,0.2,0.2,0.3
							c0,0.1,0,0.2,0,0.3c0,0.2-0.2,0.4-0.5,0.6s-0.8,0.4-1.3,0.6C624.4,21.2,623.7,21.3,623,21.3z M619.8,15.7h5
							c0.3,0,0.4,0,0.6-0.1s0.2-0.2,0.2-0.5c0-0.4-0.1-0.7-0.3-1c-0.2-0.3-0.5-0.5-0.9-0.7c-0.4-0.2-0.8-0.3-1.3-0.3
							c-0.6,0-1.1,0.1-1.6,0.4c-0.5,0.2-0.9,0.5-1.1,1C619.9,14.8,619.8,15.2,619.8,15.7z"/>
						<path style="fill:#363F52;" d="M630.1,21.2c-0.3,0-0.4,0-0.6-0.1s-0.2-0.2-0.2-0.3c0-0.1,0-0.3,0-0.5v-7.9
							c0-0.2,0-0.3,0.1-0.4c0-0.1,0.1-0.2,0.2-0.3s0.3-0.1,0.6-0.1c0.2,0,0.4,0,0.5,0.1s0.2,0.1,0.2,0.2s0.1,0.2,0.1,0.3
							c0,0.1,0,0.2,0,0.3l0,0.9c0.1-0.2,0.3-0.4,0.5-0.6s0.4-0.4,0.7-0.6c0.3-0.2,0.6-0.3,0.9-0.4c0.3-0.1,0.7-0.1,1-0.1
							c0.6,0,1.1,0.1,1.6,0.3c0.5,0.2,0.9,0.5,1.3,0.9c0.4,0.4,0.6,0.9,0.8,1.4c0.2,0.5,0.3,1.2,0.3,1.9v4.3c0,0.2,0,0.3,0,0.5
							c0,0.1-0.1,0.2-0.2,0.3c-0.1,0.1-0.3,0.1-0.6,0.1c-0.3,0-0.5,0-0.6-0.1s-0.2-0.2-0.2-0.3c0-0.1-0.1-0.3-0.1-0.5v-4.3
							c0-0.6-0.1-1-0.3-1.5c-0.2-0.4-0.5-0.7-0.8-1c-0.4-0.2-0.8-0.3-1.4-0.3c-0.5,0-1,0.1-1.4,0.3c-0.4,0.2-0.7,0.6-0.9,1
							c-0.2,0.4-0.3,0.9-0.3,1.5v4.4c0,0.2,0,0.3-0.1,0.5c0,0.1-0.1,0.2-0.2,0.3C630.6,21.1,630.4,21.2,630.1,21.2z"/>
						<path style="fill:#363F52;" d="M645,21.3c-0.8,0-1.5-0.1-2.1-0.4s-1.2-0.6-1.6-1.1c-0.4-0.5-0.8-1-1-1.6
							c-0.2-0.6-0.3-1.2-0.3-1.9c0-0.9,0.2-1.7,0.6-2.5c0.4-0.7,1-1.3,1.8-1.7c0.8-0.4,1.6-0.6,2.6-0.6c0.7,0,1.3,0.1,1.8,0.3
							c0.5,0.2,1,0.5,1.3,0.8s0.7,0.7,0.9,1.2s0.3,0.9,0.3,1.3c0,0.7-0.2,1.2-0.5,1.4c-0.3,0.3-0.7,0.4-1.2,0.4h-5.8
							c0,0.6,0.1,1.1,0.5,1.5c0.3,0.4,0.7,0.7,1.2,1s1,0.3,1.5,0.3c0.4,0,0.7,0,1-0.1s0.5-0.1,0.7-0.2s0.4-0.1,0.5-0.2
							c0.1-0.1,0.3-0.1,0.4-0.2c0.1-0.1,0.2-0.1,0.3-0.1c0.1,0,0.2,0,0.3,0s0.2,0.1,0.3,0.3c0.1,0.1,0.1,0.2,0.2,0.3
							c0,0.1,0,0.2,0,0.3c0,0.2-0.2,0.4-0.5,0.6c-0.3,0.2-0.8,0.4-1.3,0.6C646.3,21.2,645.7,21.3,645,21.3z M641.8,15.7h5
							c0.3,0,0.4,0,0.6-0.1c0.1-0.1,0.2-0.2,0.2-0.5c0-0.4-0.1-0.7-0.3-1c-0.2-0.3-0.5-0.5-0.9-0.7c-0.4-0.2-0.8-0.3-1.4-0.3
							c-0.6,0-1.1,0.1-1.6,0.4c-0.5,0.2-0.9,0.5-1.2,1C641.9,14.8,641.8,15.2,641.8,15.7z"/>
						<path style="fill:#363F52;" d="M659.3,21.2c-0.4,0-0.8,0-1.2-0.1c-0.3-0.1-0.6-0.2-0.9-0.3c-0.3-0.2-0.5-0.4-0.6-0.6
							c-0.2-0.3-0.3-0.6-0.4-0.9c-0.1-0.4-0.1-0.8-0.1-1.3v-10c0-0.2,0-0.4,0-0.5c0-0.1,0.1-0.2,0.2-0.3c0.1-0.1,0.3-0.1,0.6-0.1
							c0.3,0,0.5,0,0.6,0.1s0.2,0.2,0.2,0.3c0,0.1,0.1,0.3,0.1,0.5v10c0,0.3,0,0.5,0.1,0.7c0.1,0.2,0.1,0.4,0.2,0.5
							c0.1,0.1,0.3,0.2,0.4,0.3c0.2,0.1,0.4,0.1,0.6,0.1c0.2,0,0.3,0,0.4,0.1c0.1,0,0.2,0.1,0.3,0.2s0.1,0.3,0.1,0.6
							c0,0.3,0,0.5-0.1,0.6c-0.1,0.1-0.2,0.2-0.3,0.2C659.6,21.2,659.5,21.2,659.3,21.2z"/>
						<path style="fill:#363F52;" d="M670.1,21.2c-0.3,0-0.5-0.1-0.6-0.2s-0.2-0.3-0.2-0.6l0.1-1c-0.1,0.2-0.3,0.5-0.6,0.7
							c-0.3,0.3-0.6,0.5-1.1,0.7c-0.5,0.2-1,0.3-1.7,0.3c-0.6,0-1.2-0.1-1.8-0.4c-0.6-0.3-1-0.6-1.5-1.1c-0.4-0.5-0.7-1-1-1.6
							s-0.4-1.2-0.4-1.9c0-0.7,0.1-1.3,0.4-1.9s0.6-1.1,1-1.5c0.4-0.4,0.9-0.8,1.5-1c0.6-0.3,1.1-0.4,1.8-0.4c0.6,0,1.1,0.1,1.5,0.2
							s0.8,0.4,1.1,0.6c0.3,0.2,0.6,0.5,0.8,0.8l0-0.8c0-0.3,0-0.5,0.2-0.6c0.1-0.1,0.4-0.2,0.7-0.2c0.3,0,0.4,0,0.5,0.1
							s0.2,0.2,0.2,0.3c0,0.1,0.1,0.3,0.1,0.5v7.7c0,0.2,0,0.4-0.1,0.5s-0.1,0.3-0.2,0.3S670.4,21.2,670.1,21.2z M666.3,19.5
							c0.5,0,1-0.1,1.5-0.4c0.4-0.3,0.8-0.7,1.1-1.1c0.3-0.5,0.4-1,0.4-1.6c0-0.6-0.1-1.2-0.4-1.6c-0.3-0.5-0.6-0.8-1.1-1.1
							c-0.4-0.3-0.9-0.4-1.5-0.4c-0.6,0-1.2,0.1-1.6,0.4c-0.5,0.3-0.8,0.7-1.1,1.2c-0.3,0.5-0.4,1-0.4,1.6c0,0.6,0.1,1.1,0.4,1.6
							s0.6,0.8,1.1,1.1C665.1,19.4,665.7,19.5,666.3,19.5z"/>
						<path style="fill:#363F52;" d="M683,21.2c-0.7,0-1.3-0.1-2-0.3s-1.1-0.6-1.6-1s-0.8-0.9-1.1-1.5c-0.3-0.6-0.4-1.3-0.4-2
							c0-0.8,0.1-1.4,0.4-2c0.3-0.6,0.6-1.1,1.1-1.5s1-0.8,1.6-1c0.6-0.2,1.2-0.3,1.9-0.3c0.5,0,0.9,0.1,1.3,0.2
							c0.4,0.1,0.8,0.3,1.2,0.5c0.3,0.2,0.6,0.4,0.7,0.7c0.1,0.2,0.2,0.3,0.3,0.4c0.1,0.1,0.1,0.2,0,0.4c-0.1,0.1-0.1,0.2-0.2,0.3
							c-0.1,0.1-0.2,0.2-0.3,0.2c-0.2,0.2-0.5,0.2-0.7,0.1c-0.1-0.1-0.3-0.3-0.5-0.4s-0.4-0.2-0.6-0.4c-0.2-0.1-0.4-0.2-0.6-0.2
							c-0.2-0.1-0.4-0.1-0.7-0.1c-0.6,0-1.2,0.1-1.7,0.4c-0.5,0.3-0.8,0.6-1.1,1.1c-0.3,0.5-0.4,1-0.4,1.7s0.1,1.2,0.4,1.6
							c0.3,0.5,0.6,0.8,1.1,1.1c0.5,0.3,1,0.4,1.6,0.4c0.3,0,0.5,0,0.8-0.1c0.3-0.1,0.5-0.2,0.7-0.3c0.2-0.1,0.4-0.3,0.6-0.4
							c0.1-0.1,0.2-0.2,0.3-0.2c0.1-0.1,0.2-0.1,0.3-0.1c0.1,0,0.2,0,0.3,0.1c0.1,0.1,0.2,0.2,0.4,0.4c0.1,0.1,0.2,0.2,0.2,0.4
							c0,0.1,0,0.3-0.1,0.4c-0.1,0.1-0.2,0.2-0.3,0.4c-0.2,0.2-0.5,0.4-0.8,0.6c-0.4,0.2-0.7,0.4-1.2,0.5
							C683.8,21.2,683.4,21.2,683,21.2z"/>
						<path style="fill:#363F52;" d="M692.5,21.2c-0.6,0-1.1-0.1-1.6-0.3c-0.5-0.2-0.9-0.5-1.3-0.9s-0.7-0.9-0.9-1.4
							c-0.2-0.5-0.3-1.2-0.3-1.9v-4.3c0-0.2,0-0.3,0.1-0.5c0-0.1,0.1-0.2,0.2-0.3s0.3-0.1,0.6-0.1c0.3,0,0.4,0,0.6,0.1
							c0.1,0.1,0.2,0.2,0.2,0.3c0,0.1,0.1,0.3,0.1,0.5v4.3c0,0.5,0.1,1,0.3,1.5c0.2,0.4,0.5,0.7,0.8,1c0.4,0.2,0.8,0.3,1.4,0.3
							c0.6,0,1-0.1,1.5-0.3c0.4-0.2,0.7-0.5,0.9-1s0.3-0.9,0.3-1.5v-4.4c0-0.2,0-0.3,0.1-0.5c0-0.1,0.1-0.2,0.2-0.3s0.3-0.1,0.6-0.1
							c0.3,0,0.4,0,0.6,0.1c0.1,0.1,0.2,0.2,0.2,0.3c0,0.1,0.1,0.3,0.1,0.5v7.9c0,0.2,0,0.3-0.1,0.4s-0.1,0.2-0.2,0.3
							c-0.1,0.1-0.3,0.1-0.6,0.1c-0.2,0-0.3,0-0.5-0.1s-0.2-0.1-0.2-0.2c-0.1-0.1-0.1-0.1-0.1-0.2c0-0.1,0-0.2,0-0.3l0.1-0.9
							c-0.1,0.2-0.3,0.3-0.5,0.5s-0.4,0.4-0.6,0.5c-0.2,0.2-0.5,0.3-0.8,0.4C693.2,21.2,692.9,21.2,692.5,21.2z"/>
						<path style="fill:#363F52;" d="M702.5,21.2c-0.4,0-0.8,0-1.2-0.1c-0.3-0.1-0.6-0.2-0.9-0.3c-0.3-0.2-0.5-0.4-0.6-0.6
							c-0.2-0.3-0.3-0.6-0.4-0.9c-0.1-0.4-0.1-0.8-0.1-1.3v-10c0-0.2,0-0.4,0-0.5c0-0.1,0.1-0.2,0.2-0.3c0.1-0.1,0.3-0.1,0.6-0.1
							c0.3,0,0.5,0,0.6,0.1s0.2,0.2,0.2,0.3c0,0.1,0.1,0.3,0.1,0.5v10c0,0.3,0,0.5,0.1,0.7c0.1,0.2,0.1,0.4,0.2,0.5
							c0.1,0.1,0.3,0.2,0.4,0.3c0.2,0.1,0.4,0.1,0.6,0.1c0.2,0,0.3,0,0.4,0.1c0.1,0,0.2,0.1,0.3,0.2s0.1,0.3,0.1,0.6
							c0,0.3,0,0.5-0.1,0.6c-0.1,0.1-0.2,0.2-0.3,0.2C702.8,21.2,702.7,21.2,702.5,21.2z"/>
						<path style="fill:#363F52;" d="M705.8,25.1c-0.3,0-0.4,0-0.6-0.1s-0.2-0.2-0.3-0.3c0-0.1-0.1-0.3-0.1-0.5V12.4
							c0-0.2,0-0.3,0.1-0.5c0-0.1,0.1-0.2,0.2-0.3c0.1-0.1,0.3-0.1,0.6-0.1c0.3,0,0.5,0,0.7,0.1s0.2,0.3,0.2,0.5v12.1
							c0,0.2,0,0.4,0,0.5s-0.1,0.2-0.2,0.3S706.1,25.1,705.8,25.1z M710,21.1c-0.7,0-1.2-0.1-1.8-0.4s-1-0.6-1.4-1s-0.7-0.9-0.9-1.5
							c-0.2-0.6-0.3-1.2-0.3-1.9c0-0.7,0.1-1.3,0.3-1.9c0.2-0.6,0.5-1.1,0.9-1.5c0.4-0.4,0.8-0.8,1.4-1s1.1-0.3,1.8-0.3
							c0.6,0,1.2,0.1,1.7,0.4s1,0.6,1.4,1c0.4,0.4,0.7,1,1,1.6c0.2,0.6,0.4,1.2,0.4,1.9s-0.1,1.3-0.4,1.9c-0.2,0.6-0.6,1.1-1,1.5
							c-0.4,0.4-0.9,0.8-1.4,1C711.2,21,710.6,21.1,710,21.1z M709.7,19.5c0.6,0,1.1-0.1,1.5-0.4s0.8-0.7,1.1-1.1
							c0.3-0.5,0.4-1,0.4-1.6c0-0.6-0.1-1.2-0.4-1.6c-0.3-0.5-0.6-0.8-1.1-1.1c-0.4-0.3-1-0.4-1.5-0.4c-0.6,0-1.1,0.1-1.5,0.4
							s-0.8,0.6-1.1,1.1c-0.3,0.5-0.4,1-0.4,1.6s0.1,1.2,0.4,1.6c0.3,0.5,0.6,0.9,1.1,1.1S709.2,19.5,709.7,19.5z"/>
						<path style="fill:#363F52;" d="M724.8,21.2c-0.3,0-0.5-0.1-0.6-0.2c-0.1-0.1-0.2-0.3-0.2-0.6l0.1-1c-0.1,0.2-0.3,0.5-0.6,0.7
							s-0.6,0.5-1.1,0.7c-0.5,0.2-1,0.3-1.7,0.3c-0.6,0-1.2-0.1-1.8-0.4c-0.6-0.3-1-0.6-1.5-1.1c-0.4-0.5-0.7-1-1-1.6
							s-0.3-1.2-0.3-1.9c0-0.7,0.1-1.3,0.3-1.9s0.6-1.1,1-1.5c0.4-0.4,0.9-0.8,1.5-1c0.6-0.3,1.1-0.4,1.8-0.4c0.6,0,1.1,0.1,1.5,0.2
							s0.8,0.4,1.1,0.6c0.3,0.2,0.6,0.5,0.8,0.8l0-0.8c0-0.3,0-0.5,0.2-0.6c0.1-0.1,0.4-0.2,0.7-0.2c0.3,0,0.4,0,0.5,0.1
							s0.2,0.2,0.2,0.3c0,0.1,0.1,0.3,0.1,0.5v7.7c0,0.2,0,0.4-0.1,0.5s-0.1,0.3-0.2,0.3S725.1,21.2,724.8,21.2z M721,19.5
							c0.5,0,1-0.1,1.5-0.4c0.4-0.3,0.8-0.7,1.1-1.1c0.3-0.5,0.4-1,0.4-1.6c0-0.6-0.1-1.2-0.4-1.6c-0.3-0.5-0.6-0.8-1.1-1.1
							c-0.4-0.3-0.9-0.4-1.5-0.4c-0.6,0-1.2,0.1-1.6,0.4c-0.5,0.3-0.8,0.7-1.1,1.2c-0.3,0.5-0.4,1-0.4,1.6c0,0.6,0.1,1.1,0.4,1.6
							s0.6,0.8,1.1,1.1C719.8,19.4,720.3,19.5,721,19.5z"/>
						<path style="fill:#363F52;" d="M731.7,17.3c-0.2,0-0.4,0-0.5-0.1c-0.1-0.1-0.2-0.2-0.2-0.3c0-0.1,0-0.3,0-0.4v-1.9
							c0-0.3,0.1-0.5,0.2-0.6c0.1-0.2,0.3-0.3,0.6-0.4s0.5-0.2,0.8-0.3s0.5-0.3,0.8-0.5c0.2-0.2,0.4-0.4,0.6-0.7s0.2-0.7,0.2-1.2
							c0-0.7-0.2-1.3-0.6-1.7c-0.4-0.4-1-0.6-1.8-0.6c-0.4,0-0.7,0.1-1,0.2s-0.6,0.3-0.8,0.5c-0.2,0.2-0.4,0.5-0.5,0.8
							c-0.1,0.2-0.1,0.3-0.2,0.4c-0.1,0.1-0.2,0.2-0.3,0.2c-0.1,0-0.3,0-0.5-0.1c-0.2-0.1-0.4-0.1-0.5-0.2c-0.1-0.1-0.1-0.2-0.2-0.3
							c0-0.1,0-0.3,0-0.4c0.1-0.2,0.2-0.5,0.3-0.7c0.1-0.2,0.3-0.5,0.5-0.7c0.2-0.2,0.5-0.4,0.8-0.6c0.3-0.2,0.6-0.3,1-0.4
							s0.8-0.2,1.3-0.2c0.8,0,1.6,0.2,2.2,0.5c0.6,0.3,1.1,0.8,1.4,1.3c0.3,0.6,0.5,1.3,0.5,2c0,0.4-0.1,0.8-0.2,1.2
							c-0.1,0.4-0.3,0.7-0.5,1c-0.2,0.3-0.4,0.6-0.7,0.8c-0.3,0.2-0.6,0.4-0.9,0.6c-0.3,0.2-0.7,0.3-1,0.4l0.1-0.2v1.9
							c0,0.2,0,0.3-0.1,0.4c0,0.1-0.1,0.2-0.2,0.3C732.2,17.2,732,17.3,731.7,17.3z M731.8,21.2c-0.4,0-0.7-0.1-0.8-0.3
							s-0.2-0.4-0.2-0.8c0-0.2,0-0.3,0-0.5c0-0.2,0.1-0.3,0.3-0.4s0.4-0.2,0.8-0.2c0.5,0,0.8,0.1,0.9,0.2c0.1,0.2,0.2,0.4,0.2,0.8
							c0,0.2,0,0.3,0,0.5c0,0.2-0.1,0.3-0.3,0.4C732.4,21.2,732.1,21.2,731.8,21.2z"/>
					</g>
					<g style="enable-background:new    ;">
						<path style="fill:#363F52;" d="M815.7,9c0.3,0,0.5,0,0.7,0.1s0.2,0.2,0.3,0.4c0.1,0.2,0.1,0.4,0.1,0.6c0,0.4-0.1,0.6-0.2,0.8
							c-0.1,0.2-0.4,0.2-0.8,0.2c-0.3,0-0.5,0-0.7-0.1c-0.1-0.1-0.2-0.2-0.3-0.4c-0.1-0.2-0.1-0.3-0.1-0.6c0-0.4,0.1-0.7,0.2-0.8
							S815.3,9,815.7,9z M815.7,12.9c0.3,0,0.5,0,0.6,0.1c0.1,0.1,0.2,0.2,0.2,0.3c0,0.1,0.1,0.3,0.1,0.5v8.3c0,0.2,0,0.3-0.1,0.5
							c0,0.1-0.1,0.2-0.2,0.3s-0.3,0.1-0.6,0.1c-0.3,0-0.4,0-0.6-0.1s-0.2-0.2-0.2-0.3c0-0.1-0.1-0.3-0.1-0.5v-8.3
							c0-0.2,0-0.3,0.1-0.5c0-0.1,0.1-0.2,0.2-0.3C815.2,13,815.4,12.9,815.7,12.9z"/>
						<path style="fill:#363F52;" d="M820.3,19.2c-0.3,0-0.5,0-0.6-0.1c-0.1-0.1-0.2-0.2-0.2-0.3c0-0.1-0.1-0.3-0.1-0.5V6.1
							c0-0.2,0-0.3,0.1-0.5s0.1-0.2,0.3-0.3c0.1-0.1,0.3-0.1,0.6-0.1c0.3,0,0.4,0,0.6,0.1c0.1,0.1,0.2,0.2,0.2,0.3s0.1,0.3,0.1,0.5
							v12.1c0,0.2,0,0.3-0.1,0.5c0,0.1-0.1,0.2-0.3,0.3C820.8,19.2,820.6,19.2,820.3,19.2z M820.4,12.9v-1.7h8.4l0,1.7H820.4z
							 M829.3,19.2c-0.3,0-0.4,0-0.6-0.1s-0.2-0.2-0.2-0.3c0-0.1-0.1-0.3-0.1-0.5V6.1c0-0.2,0-0.3,0.1-0.5s0.1-0.2,0.3-0.3
							c0.1-0.1,0.3-0.1,0.6-0.1c0.3,0,0.5,0,0.6,0.1c0.1,0.1,0.2,0.2,0.2,0.3c0,0.1,0.1,0.3,0.1,0.5v12.1c0,0.2,0,0.3-0.1,0.5
							c0,0.1-0.1,0.2-0.3,0.3S829.6,19.2,829.3,19.2z"/>
						<path style="fill:#363F52;" d="M841.2,19.2c-0.3,0-0.5-0.1-0.6-0.2s-0.2-0.3-0.2-0.6l0.1-1c-0.1,0.2-0.3,0.5-0.6,0.7
							c-0.3,0.3-0.6,0.5-1.1,0.7c-0.5,0.2-1,0.3-1.7,0.3c-0.6,0-1.2-0.1-1.8-0.4c-0.6-0.3-1-0.6-1.5-1.1c-0.4-0.5-0.7-1-1-1.6
							s-0.4-1.2-0.4-1.9c0-0.7,0.1-1.3,0.4-1.9s0.6-1.1,1-1.5c0.4-0.4,0.9-0.8,1.5-1c0.6-0.3,1.1-0.4,1.8-0.4c0.6,0,1.1,0.1,1.5,0.2
							s0.8,0.4,1.1,0.6c0.3,0.2,0.6,0.5,0.8,0.8l0-0.8c0-0.3,0-0.5,0.2-0.6c0.1-0.1,0.4-0.2,0.7-0.2c0.3,0,0.4,0,0.5,0.1
							S842,9.8,842,10c0,0.1,0.1,0.3,0.1,0.5v7.7c0,0.2,0,0.4-0.1,0.5s-0.1,0.3-0.2,0.3S841.5,19.2,841.2,19.2z M837.4,17.5
							c0.5,0,1-0.1,1.5-0.4c0.4-0.3,0.8-0.7,1.1-1.1c0.3-0.5,0.4-1,0.4-1.6c0-0.6-0.1-1.2-0.4-1.6c-0.3-0.5-0.6-0.8-1.1-1.1
							c-0.4-0.3-0.9-0.4-1.5-0.4c-0.6,0-1.2,0.1-1.6,0.4c-0.5,0.3-0.8,0.7-1.1,1.2c-0.3,0.5-0.4,1-0.4,1.6c0,0.6,0.1,1.1,0.4,1.6
							s0.6,0.8,1.1,1.1C836.2,17.4,836.7,17.5,837.4,17.5z"/>
						<path style="fill:#363F52;" d="M844.8,19.2c-0.3,0-0.5-0.1-0.6-0.2c-0.2-0.1-0.2-0.4-0.2-0.6c0-0.1,0-0.3,0.1-0.4
							c0-0.1,0.1-0.2,0.2-0.3l5.9-6.4h-4.8c-0.2,0-0.3,0-0.5,0c-0.1,0-0.2-0.1-0.3-0.2c-0.1-0.1-0.1-0.3-0.1-0.6
							c0-0.3,0-0.5,0.1-0.6c0.1-0.1,0.2-0.2,0.3-0.2c0.1,0,0.3-0.1,0.5-0.1h6.6c0.3,0,0.5,0.1,0.7,0.2c0.1,0.1,0.2,0.4,0.2,0.6
							c0,0.1,0,0.3-0.1,0.4c0,0.1-0.1,0.2-0.2,0.3l-5.9,6.4h5.5c0.2,0,0.3,0,0.5,0.1c0.1,0,0.2,0.1,0.3,0.3c0.1,0.1,0.1,0.3,0.1,0.6
							c0,0.3,0,0.4-0.1,0.6c-0.1,0.1-0.2,0.2-0.3,0.2c-0.1,0-0.3,0-0.5,0H844.8z"/>
						<path style="fill:#363F52;" d="M860.2,9.7l1.9,0l2.8,0c0.2,0,0.3,0,0.5,0c0.1,0,0.2,0.1,0.3,0.2c0.1,0.1,0.1,0.3,0.1,0.6
							s0,0.4-0.1,0.6c-0.1,0.1-0.2,0.2-0.3,0.2c-0.1,0-0.3,0.1-0.5,0.1l-2.7,0l-2,0c-0.3,0-0.5-0.1-0.6-0.2
							c-0.1-0.1-0.1-0.4-0.1-0.7c0-0.3,0.1-0.5,0.2-0.6C859.8,9.8,860,9.7,860.2,9.7z M864.7,19.2c-0.6,0-1.2-0.1-1.6-0.2
							c-0.4-0.1-0.8-0.3-1.1-0.6c-0.3-0.3-0.5-0.6-0.6-1c-0.1-0.4-0.2-0.9-0.2-1.5V7.1c0-0.2,0-0.3,0.1-0.5c0-0.1,0.1-0.2,0.2-0.3
							s0.3-0.1,0.6-0.1c0.3,0,0.4,0,0.6,0.1c0.1,0.1,0.2,0.2,0.3,0.3c0,0.1,0.1,0.3,0.1,0.5V16c0,0.3,0,0.6,0.1,0.8
							c0.1,0.2,0.2,0.4,0.3,0.5c0.1,0.1,0.3,0.2,0.5,0.2c0.2,0,0.5,0,0.8,0c0.2,0,0.4,0,0.5,0.1c0.1,0,0.2,0.1,0.3,0.2
							c0.1,0.1,0.1,0.3,0.1,0.5c0,0.3,0,0.4-0.1,0.6c-0.1,0.1-0.2,0.2-0.3,0.2C865.1,19.2,864.9,19.2,864.7,19.2z"/>
						<path style="fill:#363F52;" d="M871.5,19.2c-0.6,0-1.1-0.1-1.6-0.3c-0.5-0.2-0.9-0.5-1.3-0.9s-0.7-0.9-0.9-1.4
							c-0.2-0.5-0.3-1.2-0.3-1.9v-4.3c0-0.2,0-0.3,0.1-0.5c0-0.1,0.1-0.2,0.2-0.3s0.3-0.1,0.6-0.1c0.3,0,0.4,0,0.6,0.1
							c0.1,0.1,0.2,0.2,0.2,0.3c0,0.1,0.1,0.3,0.1,0.5v4.3c0,0.5,0.1,1,0.3,1.5c0.2,0.4,0.5,0.7,0.8,1c0.4,0.2,0.8,0.3,1.4,0.3
							c0.6,0,1-0.1,1.5-0.3c0.4-0.2,0.7-0.5,0.9-1s0.3-0.9,0.3-1.5v-4.4c0-0.2,0-0.3,0.1-0.5c0-0.1,0.1-0.2,0.2-0.3s0.3-0.1,0.6-0.1
							c0.3,0,0.4,0,0.6,0.1c0.1,0.1,0.2,0.2,0.2,0.3c0,0.1,0.1,0.3,0.1,0.5v7.9c0,0.2,0,0.3-0.1,0.4s-0.1,0.2-0.2,0.3
							c-0.1,0.1-0.3,0.1-0.6,0.1c-0.2,0-0.3,0-0.5-0.1s-0.2-0.1-0.2-0.2c-0.1-0.1-0.1-0.1-0.1-0.2c0-0.1,0-0.2,0-0.3l0.1-0.9
							c-0.1,0.2-0.3,0.3-0.5,0.5s-0.4,0.4-0.6,0.5c-0.2,0.2-0.5,0.3-0.8,0.4C872.3,19.2,871.9,19.2,871.5,19.2z"/>
						<path style="fill:#363F52;" d="M884.4,23.1c-0.3,0-0.4,0-0.6-0.1s-0.2-0.2-0.3-0.3c0-0.1-0.1-0.3-0.1-0.5V10.4
							c0-0.2,0-0.3,0.1-0.5c0-0.1,0.1-0.2,0.2-0.3c0.1-0.1,0.3-0.1,0.6-0.1c0.3,0,0.5,0,0.7,0.1s0.2,0.3,0.2,0.5v12.1
							c0,0.2,0,0.4,0,0.5S885.1,23,885,23S884.6,23.1,884.4,23.1z M888.5,19.1c-0.7,0-1.2-0.1-1.8-0.4s-1-0.6-1.4-1
							s-0.7-0.9-0.9-1.5c-0.2-0.6-0.3-1.2-0.3-1.9c0-0.7,0.1-1.3,0.3-1.9c0.2-0.6,0.5-1.1,0.9-1.5c0.4-0.4,0.8-0.8,1.4-1
							s1.1-0.3,1.8-0.3c0.6,0,1.2,0.1,1.7,0.4s1,0.6,1.4,1c0.4,0.4,0.7,1,1,1.6c0.2,0.6,0.4,1.2,0.4,1.9s-0.1,1.3-0.4,1.9
							c-0.2,0.6-0.6,1.1-1,1.5c-0.4,0.4-0.9,0.8-1.4,1C889.7,19,889.1,19.1,888.5,19.1z M888.3,17.5c0.6,0,1.1-0.1,1.5-0.4
							s0.8-0.7,1.1-1.1c0.3-0.5,0.4-1,0.4-1.6c0-0.6-0.1-1.2-0.4-1.6c-0.3-0.5-0.6-0.8-1.1-1.1c-0.4-0.3-1-0.4-1.5-0.4
							c-0.6,0-1.1,0.1-1.5,0.4s-0.8,0.6-1.1,1.1c-0.3,0.5-0.4,1-0.4,1.6s0.1,1.2,0.4,1.6c0.3,0.5,0.6,0.9,1.1,1.1
							S887.7,17.5,888.3,17.5z"/>
						<path style="fill:#363F52;" d="M903.3,19.2c-0.3,0-0.5-0.1-0.6-0.2s-0.2-0.3-0.2-0.6l0.1-1c-0.1,0.2-0.3,0.5-0.6,0.7
							c-0.3,0.3-0.6,0.5-1.1,0.7c-0.5,0.2-1,0.3-1.7,0.3c-0.6,0-1.2-0.1-1.8-0.4c-0.6-0.3-1-0.6-1.5-1.1c-0.4-0.5-0.7-1-1-1.6
							s-0.4-1.2-0.4-1.9c0-0.7,0.1-1.3,0.4-1.9s0.6-1.1,1-1.5c0.4-0.4,0.9-0.8,1.5-1c0.6-0.3,1.1-0.4,1.8-0.4c0.6,0,1.1,0.1,1.5,0.2
							s0.8,0.4,1.1,0.6c0.3,0.2,0.6,0.5,0.8,0.8l0-0.8c0-0.3,0-0.5,0.2-0.6c0.1-0.1,0.4-0.2,0.7-0.2c0.3,0,0.4,0,0.5,0.1
							s0.2,0.2,0.2,0.3c0,0.1,0.1,0.3,0.1,0.5v7.7c0,0.2,0,0.4-0.1,0.5s-0.1,0.3-0.2,0.3S903.6,19.2,903.3,19.2z M899.5,17.5
							c0.5,0,1-0.1,1.5-0.4c0.4-0.3,0.8-0.7,1.1-1.1c0.3-0.5,0.4-1,0.4-1.6c0-0.6-0.1-1.2-0.4-1.6c-0.3-0.5-0.6-0.8-1.1-1.1
							c-0.4-0.3-0.9-0.4-1.5-0.4c-0.6,0-1.2,0.1-1.6,0.4c-0.5,0.3-0.8,0.7-1.1,1.2c-0.3,0.5-0.4,1-0.4,1.6c0,0.6,0.1,1.1,0.4,1.6
							s0.6,0.8,1.1,1.1C898.3,17.4,898.9,17.5,899.5,17.5z"/>
						<path style="fill:#363F52;" d="M907.5,19.2c-0.3,0-0.4,0-0.6-0.1s-0.2-0.2-0.2-0.3c0-0.1,0-0.3,0-0.5v-7.9
							c0-0.2,0-0.4,0.1-0.5c0-0.1,0.1-0.2,0.2-0.3c0.1-0.1,0.3-0.1,0.6-0.1c0.2,0,0.4,0,0.5,0.1c0.1,0.1,0.2,0.1,0.3,0.3
							c0,0.1,0.1,0.2,0.1,0.4l-0.1,0.6c0.1-0.2,0.2-0.3,0.3-0.5c0.1-0.2,0.3-0.3,0.5-0.5c0.2-0.1,0.4-0.3,0.7-0.4
							c0.3-0.1,0.6-0.1,1-0.1c0.2,0,0.4,0,0.6,0c0.2,0,0.4,0.1,0.5,0.2c0.2,0.1,0.3,0.1,0.4,0.2c0.1,0.1,0.2,0.2,0.3,0.3
							c0.1,0.1,0.1,0.2,0.1,0.4c0,0.3-0.1,0.5-0.3,0.8c-0.2,0.2-0.4,0.3-0.6,0.3c-0.2,0-0.3,0-0.4-0.1c-0.1,0-0.2-0.1-0.2-0.1
							c-0.1-0.1-0.2-0.1-0.3-0.2c-0.1,0-0.3-0.1-0.6-0.1c-0.2,0-0.4,0-0.6,0.1c-0.2,0.1-0.4,0.2-0.6,0.4c-0.2,0.2-0.4,0.3-0.5,0.6
							c-0.1,0.2-0.2,0.5-0.2,0.8v5.4c0,0.2,0,0.3-0.1,0.5c0,0.1-0.1,0.2-0.2,0.3C907.9,19.2,907.7,19.2,907.5,19.2z"/>
						<path style="fill:#363F52;" d="M914.8,9.7l1.9,0l2.8,0c0.2,0,0.3,0,0.5,0c0.1,0,0.2,0.1,0.3,0.2c0.1,0.1,0.1,0.3,0.1,0.6
							s0,0.4-0.1,0.6c-0.1,0.1-0.2,0.2-0.3,0.2c-0.1,0-0.3,0.1-0.5,0.1l-2.7,0l-2,0c-0.3,0-0.5-0.1-0.6-0.2
							c-0.1-0.1-0.2-0.4-0.2-0.7c0-0.3,0.1-0.5,0.2-0.6C914.3,9.8,914.5,9.7,914.8,9.7z M919.3,19.2c-0.6,0-1.2-0.1-1.6-0.2
							c-0.4-0.1-0.8-0.3-1.1-0.6c-0.3-0.3-0.5-0.6-0.6-1c-0.1-0.4-0.2-0.9-0.2-1.5V7.1c0-0.2,0-0.3,0.1-0.5c0-0.1,0.1-0.2,0.2-0.3
							c0.1-0.1,0.3-0.1,0.6-0.1c0.3,0,0.4,0,0.6,0.1c0.1,0.1,0.2,0.2,0.3,0.3c0,0.1,0.1,0.3,0.1,0.5V16c0,0.3,0,0.6,0.1,0.8
							c0.1,0.2,0.2,0.4,0.3,0.5c0.1,0.1,0.3,0.2,0.5,0.2c0.2,0,0.5,0,0.8,0c0.2,0,0.4,0,0.5,0.1c0.1,0,0.2,0.1,0.3,0.2
							s0.1,0.3,0.1,0.5c0,0.3,0,0.4-0.1,0.6c-0.1,0.1-0.2,0.2-0.3,0.2C919.6,19.2,919.4,19.2,919.3,19.2z"/>
						<path style="fill:#363F52;" d="M926.8,19.3c-0.8,0-1.5-0.1-2.1-0.4c-0.6-0.3-1.2-0.6-1.6-1.1c-0.4-0.5-0.8-1-1-1.6
							c-0.2-0.6-0.3-1.2-0.3-1.9c0-0.9,0.2-1.7,0.6-2.5c0.4-0.7,1-1.3,1.8-1.7c0.8-0.4,1.6-0.6,2.6-0.6c0.7,0,1.3,0.1,1.8,0.3
							c0.5,0.2,1,0.5,1.4,0.8c0.4,0.3,0.7,0.7,0.9,1.2c0.2,0.4,0.3,0.9,0.3,1.3c0,0.7-0.2,1.2-0.5,1.4s-0.7,0.4-1.2,0.4h-5.8
							c0,0.6,0.1,1.1,0.5,1.5c0.3,0.4,0.7,0.7,1.2,1s1,0.3,1.5,0.3c0.4,0,0.7,0,1-0.1s0.5-0.1,0.7-0.2s0.4-0.1,0.5-0.2
							c0.1-0.1,0.3-0.1,0.4-0.2c0.1-0.1,0.2-0.1,0.3-0.1c0.1,0,0.2,0,0.3,0s0.2,0.1,0.3,0.3c0.1,0.1,0.1,0.2,0.2,0.3
							c0,0.1,0,0.2,0,0.3c0,0.2-0.2,0.4-0.5,0.6s-0.8,0.4-1.3,0.6C928.2,19.2,927.5,19.3,926.8,19.3z M923.6,13.7h5
							c0.3,0,0.4,0,0.6-0.1s0.2-0.2,0.2-0.5c0-0.4-0.1-0.7-0.3-1c-0.2-0.3-0.5-0.5-0.9-0.7c-0.4-0.2-0.8-0.3-1.3-0.3
							c-0.6,0-1.1,0.1-1.6,0.4c-0.5,0.2-0.9,0.5-1.1,1C923.7,12.8,923.6,13.2,923.6,13.7z"/>
						<path style="fill:#363F52;" d="M934.1,19.2c-0.4,0-0.7-0.1-0.8-0.2c-0.1-0.2-0.2-0.4-0.2-0.8c0-0.2,0-0.4,0.1-0.6
							c0.1-0.2,0.2-0.3,0.3-0.4c0.1-0.1,0.4-0.1,0.7-0.1c0.4,0,0.7,0.1,0.9,0.2c0.1,0.2,0.2,0.4,0.2,0.8c0,0.2,0,0.4-0.1,0.6
							c-0.1,0.2-0.2,0.3-0.3,0.4C934.6,19.2,934.4,19.2,934.1,19.2z M934.1,15.3c-0.3,0-0.5,0-0.6-0.1c-0.1-0.1-0.2-0.2-0.2-0.3
							c0-0.1-0.1-0.3-0.1-0.5V6.1c0-0.2,0-0.3,0.1-0.5c0-0.1,0.1-0.2,0.2-0.3c0.1-0.1,0.3-0.1,0.6-0.1c0.3,0,0.5,0,0.6,0.1
							c0.1,0.1,0.2,0.2,0.2,0.3s0.1,0.3,0.1,0.5v8.3c0,0.2,0,0.3-0.1,0.5c0,0.1-0.1,0.2-0.2,0.3S934.4,15.3,934.1,15.3z"/>
					</g>
					
						<line id="Line-2" style="fill:none;stroke:#363F52;stroke-width:2;stroke-linecap:square;" x1="117.5" y1="33.5" x2="117.5" y2="50.5"/>
					
						<line id="Line-2-Copy" style="fill:none;stroke:#363F52;stroke-width:2;stroke-linecap:square;" x1="374" y1="33.5" x2="374" y2="50.5"/>
					
						<line id="Line-2-Copy-2" style="fill:none;stroke:#363F52;stroke-width:2;stroke-linecap:square;" x1="627" y1="33.5" x2="627" y2="50.5"/>
					
						<line id="Line-2-Copy-3" style="fill:none;stroke:#363F52;stroke-width:2;stroke-linecap:square;" x1="868" y1="33.5" x2="868" y2="50.5"/>
					
						<path id="Rectangle_00000103974825227158089350000002033867204083647635_" style="fill:none;stroke:#363F52;stroke-width:2;" d="
						M9,51h975c4.4,0,8,3.6,8,8v4c0,4.4-3.6,8-8,8H9c-4.4,0-8-3.6-8-8v-4C1,54.6,4.6,51,9,51z"/>
				</g>
			</g>
		</g>
	</g>
</g>
</svg>
