<?xml version="1.0" encoding="utf-8"?>
<!-- Generator: Adobe Illustrator 26.2.1, SVG Export Plug-In . SVG Version: 6.00 Build 0)  -->
<svg version="1.1" id="Capa_1" xmlns="http://www.w3.org/2000/svg" xmlns:xlink="http://www.w3.org/1999/xlink" x="0px" y="0px"
	 viewBox="0 0 993 62" style="enable-background:new 0 0 993 62;" xml:space="preserve">
<style type="text/css">
	.st0{fill-rule:evenodd;clip-rule:evenodd;fill:#F4785C;}
	.st1{fill-rule:evenodd;clip-rule:evenodd;fill:#FFCF7C;}
	.st2{fill-rule:evenodd;clip-rule:evenodd;fill:#6794A1;}
	.st3{display:none;}
	.st4{display:inline;fill-rule:evenodd;clip-rule:evenodd;fill:#363F52;}
	.st5{enable-background:new    ;}
	.st6{fill:#363F52;}
	.st7{fill:none;stroke:#363F52;stroke-width:2;stroke-linecap:square;}
	.st8{fill:none;stroke:#363F52;stroke-width:2;}
</style>
<g id="Rojo">
	<path id="Rectangle" class="st0" d="M8,40h242l0,0v10.1V62H8c-4.4,0-8-3.6-8-8v-6C0,43.6,3.6,40,8,40z"/>
</g>
<g id="Amarillo">
	<rect id="Rectangle-Copy-5" x="249" y="40" class="st1" width="248" height="22"/>
</g>
<g id="Celeste">
	
		<rect id="Rectangle-Copy-5_00000153699689378823420880000004104190320383768202_" x="494" y="40" class="st2" width="256" height="22"/>
</g>
<g id="Azul_Marino" class="st3">
	<path id="Rectangle_00000044177519576757744970000004178831731849104565_" class="st4" d="M985,62H743l0,0V51.9V40h242
		c4.4,0,8,3.6,8,8v6C993,58.4,989.4,62,985,62z"/>
</g>
<desc>Created with Sketch.</desc>
<g id="Group-3">
	<g class="st5">
		<path class="st6" d="M44.3,9.1c0.3,0,0.4,0,0.6,0.1c0.1,0.1,0.2,0.2,0.2,0.3s0,0.3,0,0.5v1.9c0,0.3-0.1,0.5-0.2,0.6
			c-0.1,0.2-0.3,0.3-0.6,0.4c-0.2,0.1-0.5,0.2-0.8,0.3s-0.5,0.3-0.8,0.4c-0.2,0.2-0.4,0.4-0.6,0.7c-0.1,0.3-0.2,0.7-0.2,1.2
			c0,0.7,0.2,1.3,0.6,1.7c0.4,0.4,1,0.6,1.8,0.6c0.4,0,0.7-0.1,1-0.2s0.6-0.3,0.8-0.5s0.4-0.5,0.5-0.8c0.1-0.2,0.1-0.3,0.2-0.4
			c0.1-0.1,0.2-0.1,0.3-0.2c0.1,0,0.3,0,0.5,0.1s0.3,0.1,0.4,0.2c0.1,0.1,0.1,0.2,0.2,0.3s0,0.3-0.1,0.5s-0.1,0.5-0.3,0.7
			c-0.1,0.2-0.3,0.5-0.5,0.7s-0.5,0.4-0.8,0.6s-0.6,0.3-1,0.4s-0.8,0.2-1.2,0.2c-0.8,0-1.6-0.2-2.2-0.5c-0.6-0.3-1.1-0.8-1.4-1.3
			c-0.3-0.6-0.5-1.3-0.5-2c0-0.4,0.1-0.8,0.2-1.2c0.1-0.4,0.3-0.7,0.5-1s0.4-0.6,0.7-0.8s0.6-0.4,0.9-0.6s0.7-0.3,1-0.4l-0.1,0.2
			V9.9c0-0.2,0-0.3,0.1-0.4c0-0.1,0.1-0.2,0.2-0.3C43.9,9.1,44,9.1,44.3,9.1z M44.3,5.2c0.4,0,0.7,0.1,0.9,0.2
			c0.1,0.2,0.2,0.4,0.2,0.8c0,0.2,0,0.3,0,0.5S45.2,7,45,7.1c-0.1,0.1-0.4,0.2-0.8,0.2c-0.5,0-0.7-0.1-0.9-0.3
			c-0.1-0.2-0.2-0.4-0.2-0.8c0-0.2,0-0.3,0-0.5s0.1-0.3,0.3-0.4S43.9,5.2,44.3,5.2z"/>
		<path class="st6" d="M57,15.2c-0.7,0-1.4-0.1-2.1-0.3c-0.7-0.2-1.3-0.5-1.9-0.9c-0.6-0.4-1.1-0.9-1.5-1.5s-0.8-1.3-1.1-2
			S50,9,50,8.1s0.1-1.6,0.4-2.4s0.6-1.4,1-1.9c0.4-0.6,1-1,1.6-1.4s1.2-0.7,1.9-0.9s1.4-0.3,2.1-0.3c0.7,0,1.2,0.1,1.7,0.2
			s0.9,0.3,1.2,0.4s0.5,0.3,0.6,0.3c0.2,0.1,0.4,0.2,0.5,0.4c0.2,0.1,0.3,0.3,0.3,0.5c0,0.1,0,0.3,0,0.4s-0.1,0.2-0.2,0.3
			C61,3.8,60.9,3.9,60.8,4c-0.1,0.1-0.2,0.1-0.4,0.1S60.1,4.1,60,4c-0.1-0.1-0.2-0.2-0.4-0.3c-0.1-0.1-0.2-0.1-0.5-0.3
			c-0.2-0.1-0.5-0.2-0.9-0.3s-0.8-0.2-1.4-0.2c-0.7,0-1.3,0.1-1.9,0.4c-0.6,0.2-1.2,0.6-1.6,1.1s-0.8,1-1.1,1.6s-0.4,1.4-0.4,2.2
			s0.1,1.5,0.4,2.2c0.3,0.6,0.6,1.2,1.1,1.7s1,0.8,1.6,1s1.3,0.4,1.9,0.4c0.5,0,1-0.1,1.3-0.2s0.7-0.2,0.9-0.4
			c0.2-0.1,0.4-0.2,0.5-0.3s0.3-0.2,0.4-0.2s0.2-0.1,0.4-0.1s0.3,0,0.4,0.1c0.1,0.1,0.2,0.2,0.3,0.4c0.1,0.1,0.1,0.2,0.2,0.3
			c0,0.1,0.1,0.2,0,0.4c0,0.2-0.1,0.4-0.3,0.5s-0.4,0.3-0.5,0.4s-0.3,0.2-0.6,0.3c-0.3,0.2-0.7,0.3-1.2,0.4
			C58.2,15.2,57.6,15.2,57,15.2z"/>
		<path class="st6" d="M67.4,15.2c-0.6,0-1.1-0.1-1.6-0.3s-0.9-0.5-1.3-0.9s-0.7-0.9-0.9-1.4s-0.3-1.2-0.3-1.9V6.4
			c0-0.2,0-0.3,0.1-0.5c0-0.1,0.1-0.2,0.2-0.3c0.1-0.1,0.3-0.1,0.6-0.1c0.3,0,0.4,0,0.6,0.1C64.9,5.7,65,5.8,65,5.9s0.1,0.3,0.1,0.5
			v4.3c0,0.5,0.1,1,0.3,1.5c0.2,0.4,0.5,0.7,0.9,1c0.4,0.2,0.8,0.3,1.4,0.3s1-0.1,1.5-0.3c0.4-0.2,0.7-0.5,0.9-1
			c0.2-0.4,0.3-0.9,0.3-1.5V6.3c0-0.2,0-0.3,0.1-0.5c0-0.1,0.1-0.2,0.2-0.3s0.3-0.1,0.6-0.1s0.4,0,0.6,0.1c0,0.2,0.1,0.3,0.1,0.4
			s0.1,0.3,0.1,0.5v7.9c0,0.2,0,0.3-0.1,0.4s-0.1,0.2-0.2,0.3s-0.3,0.1-0.6,0.1c-0.2,0-0.3,0-0.4-0.1c-0.1,0-0.2-0.1-0.2-0.2
			c-0.1-0.1-0.1-0.1-0.1-0.2s0-0.2,0-0.3l0.1-0.9c-0.1,0.2-0.3,0.3-0.5,0.5s-0.4,0.4-0.6,0.5c-0.2,0.2-0.5,0.3-0.8,0.4
			C68.2,15.2,67.8,15.2,67.4,15.2z"/>
		<path class="st6" d="M82.7,15.2c-0.3,0-0.5-0.1-0.6-0.2s-0.2-0.3-0.2-0.6l0.1-1c-0.1,0.2-0.3,0.5-0.6,0.7
			c-0.3,0.3-0.6,0.5-1.1,0.7s-1,0.3-1.7,0.3c-0.6,0-1.2-0.1-1.8-0.4c-0.6-0.3-1-0.6-1.5-1.1c-0.4-0.5-0.7-1-1-1.6s-0.4-1.2-0.4-1.9
			s0.1-1.3,0.4-1.9s0.6-1.1,1-1.5s0.9-0.8,1.5-1c0.6-0.3,1.1-0.4,1.8-0.4c0.6,0,1.1,0.1,1.5,0.2s0.8,0.4,1.1,0.6
			c0.3,0.2,0.6,0.5,0.8,0.8V6.1c0-0.3,0-0.5,0.2-0.6s0.4-0.2,0.7-0.2c0.3,0,0.4,0,0.5,0.1s0.2,0.2,0.2,0.3s0.1,0.3,0.1,0.5v7.7
			c0,0.2,0,0.4-0.1,0.5s-0.1,0.3-0.2,0.3S82.9,15.2,82.7,15.2z M78.8,13.5c0.5,0,1-0.1,1.5-0.4c0.4-0.3,0.8-0.7,1.1-1.1
			c0.3-0.5,0.4-1,0.4-1.6s-0.1-1.2-0.4-1.6c-0.3-0.5-0.6-0.8-1.1-1.1s-0.9-0.4-1.5-0.4s-1.2,0.1-1.6,0.4c-0.5,0.3-0.8,0.7-1.1,1.2
			c-0.3,0.5-0.4,1-0.4,1.6s0.1,1.1,0.4,1.6s0.6,0.8,1.1,1.1C77.6,13.4,78.2,13.5,78.8,13.5z M78.3,4.2c-0.2,0-0.4,0-0.5-0.1
			c-0.1-0.1-0.2-0.2-0.3-0.5c-0.1-0.3-0.1-0.5,0-0.6s0.2-0.3,0.5-0.3l3.2-1.1c0.2,0,0.4,0,0.5,0.1S81.9,2,82,2.2c0,0.2,0,0.5,0,0.6
			S81.7,3,81.5,3.1L78.3,4.2z"/>
		<path class="st6" d="M89,15.2c-0.4,0-0.8,0-1.1-0.1c-0.3-0.1-0.6-0.2-0.9-0.3s-0.5-0.4-0.6-0.6c-0.2-0.3-0.3-0.6-0.4-0.9
			c-0.1-0.4-0.1-0.8-0.1-1.3V2c0-0.2,0-0.4,0-0.5s0.1-0.2,0.2-0.3S86.4,1,86.7,1c0.3,0,0.5,0,0.6,0.1s0.2,0.2,0.2,0.3
			s0.1,0.3,0.1,0.5v10c0,0.3,0,0.5,0.1,0.7s0.1,0.4,0.2,0.5s0.3,0.2,0.4,0.3c0.2,0.1,0.4,0.1,0.6,0.1s0.3,0,0.4,0.1
			c0.1,0,0.2,0.1,0.3,0.2c0.1,0.1,0.1,0.3,0.1,0.6s0,0.5-0.1,0.6s-0.2,0.2-0.3,0.2C89.3,15.2,89.1,15.2,89,15.2z"/>
		<path class="st6" d="M101.2,15.3c-0.8,0-1.5-0.1-2.1-0.4s-1.2-0.6-1.6-1.1s-0.8-1-1-1.6s-0.3-1.2-0.3-1.9c0-0.9,0.2-1.7,0.6-2.5
			c0.4-0.7,1-1.3,1.8-1.7s1.6-0.6,2.6-0.6c0.7,0,1.3,0.1,1.8,0.3s1,0.5,1.4,0.8s0.7,0.7,0.9,1.2c0.2,0.4,0.3,0.9,0.3,1.3
			c0,0.7-0.2,1.2-0.5,1.4c-0.3,0.3-0.7,0.4-1.2,0.4H98c0,0.6,0.1,1.1,0.5,1.5s0.7,0.7,1.2,1s1,0.3,1.5,0.3c0.4,0,0.7,0,1-0.1
			s0.5-0.1,0.7-0.2s0.4-0.1,0.5-0.2s0.3-0.1,0.4-0.2s0.2-0.1,0.3-0.1c0.1,0,0.2,0,0.3,0s0.2,0.1,0.3,0.3c0.1,0.1,0.1,0.2,0.2,0.3
			c0,0.1,0,0.2,0,0.3c0,0.2-0.2,0.4-0.5,0.6s-0.8,0.4-1.3,0.6C102.5,15.2,101.9,15.3,101.2,15.3z M98,9.7h5c0.3,0,0.4,0,0.6-0.1
			c0.1-0.1,0.2-0.2,0.2-0.5c0-0.4-0.1-0.7-0.3-1c-0.2-0.3-0.5-0.5-0.9-0.7s-0.8-0.3-1.4-0.3s-1.1,0.1-1.6,0.4s-0.9,0.5-1.1,1
			C98.1,8.8,98,9.2,98,9.7z"/>
		<path class="st6" d="M110.6,15.3c-0.3,0-0.7,0-1-0.1s-0.7-0.2-1-0.3s-0.6-0.3-0.9-0.5c-0.2-0.2-0.4-0.4-0.5-0.6
			c-0.1-0.1-0.1-0.3-0.1-0.4s0-0.2,0.1-0.3s0.1-0.2,0.2-0.3c0.1-0.2,0.3-0.2,0.4-0.2s0.3,0.1,0.5,0.3c0.1,0.1,0.3,0.2,0.5,0.3
			s0.4,0.2,0.6,0.3s0.4,0.2,0.7,0.2c0.2,0.1,0.4,0.1,0.6,0.1c0.6,0,1.1-0.1,1.5-0.4c0.4-0.2,0.6-0.5,0.6-0.9c0-0.2,0-0.4-0.1-0.6
			s-0.2-0.3-0.4-0.4c-0.2-0.1-0.3-0.2-0.5-0.3s-0.4-0.2-0.7-0.2c-0.2-0.1-0.5-0.1-0.7-0.2c-0.4-0.1-0.7-0.2-1.1-0.3
			c-0.3-0.1-0.7-0.3-0.9-0.5c-0.3-0.2-0.5-0.4-0.7-0.7s-0.3-0.7-0.3-1.2s0.1-1,0.4-1.4s0.7-0.7,1.2-0.9s1.1-0.3,1.8-0.3
			c0.3,0,0.6,0,0.8,0.1c0.3,0,0.5,0.1,0.7,0.2s0.5,0.2,0.7,0.3s0.4,0.2,0.6,0.4S114,6.8,114,7s-0.1,0.4-0.2,0.6s-0.3,0.3-0.4,0.3
			s-0.3,0-0.4-0.1c-0.2-0.2-0.4-0.3-0.7-0.4c-0.2-0.1-0.5-0.2-0.7-0.3C111.3,7,111.1,7,110.8,7s-0.6,0-0.9,0.1s-0.5,0.2-0.6,0.4
			s-0.2,0.4-0.2,0.6c0,0.2,0.1,0.4,0.2,0.5s0.3,0.2,0.4,0.3c0.2,0.1,0.4,0.2,0.6,0.2s0.5,0.1,0.8,0.2c0.4,0.1,0.8,0.2,1.2,0.3
			s0.8,0.3,1.1,0.5s0.6,0.5,0.8,0.8c0.2,0.3,0.3,0.8,0.3,1.3c0,0.9-0.3,1.6-1,2.1C112.7,15,111.8,15.3,110.6,15.3z"/>
		<path class="st6" d="M122.5,15.2c-0.3,0-0.4,0-0.6-0.1s-0.2-0.2-0.2-0.3s-0.1-0.3-0.1-0.5V6.4c0-0.2,0-0.3,0.1-0.5
			c0-0.1,0.1-0.2,0.2-0.3s0.3-0.1,0.6-0.1c0.3,0,0.5,0.1,0.6,0.2s0.2,0.3,0.2,0.6l-0.1,0.9c0.1-0.2,0.2-0.4,0.4-0.6s0.4-0.4,0.7-0.5
			c0.3-0.2,0.5-0.3,0.8-0.4s0.6-0.1,0.9-0.1c0.5,0,0.9,0.1,1.2,0.2c0.4,0.2,0.7,0.4,1,0.7s0.5,0.7,0.7,1.1c0.3-0.4,0.5-0.8,0.8-1.1
			s0.6-0.6,1-0.7c0.4-0.2,0.8-0.2,1.3-0.2c0.8,0,1.4,0.2,1.9,0.6s0.9,0.9,1.2,1.6c0.3,0.7,0.4,1.5,0.4,2.5v4.2c0,0.2,0,0.3,0,0.5
			c0,0.1-0.1,0.2-0.2,0.3c-0.1,0.1-0.3,0.1-0.6,0.1s-0.4,0-0.6-0.1c-0.1-0.1-0.2-0.2-0.2-0.3s-0.1-0.3-0.1-0.5v-4.2
			c0-0.6-0.1-1.1-0.2-1.5c-0.1-0.4-0.4-0.8-0.6-1s-0.7-0.4-1.1-0.4c-0.5,0-0.9,0.1-1.3,0.4c-0.4,0.2-0.6,0.6-0.9,1s-0.3,1-0.3,1.6
			v4.2c0,0.2,0,0.4-0.1,0.5s-0.2,0.2-0.4,0.3s-0.4,0.1-0.6,0c-0.2,0-0.4-0.1-0.5-0.2s-0.2-0.2-0.2-0.3s0-0.3,0-0.4v-4.2
			c0-0.6-0.1-1.1-0.2-1.5s-0.4-0.8-0.6-1s-0.7-0.4-1.1-0.4c-0.5,0-0.9,0.1-1.3,0.4c-0.4,0.2-0.6,0.6-0.9,1c-0.2,0.4-0.3,0.9-0.3,1.5
			v4.2c0,0.2,0,0.3-0.1,0.5c0,0.1-0.1,0.2-0.2,0.3C123,15.2,122.8,15.2,122.5,15.2z"/>
		<path class="st6" d="M139.2,3.1c-0.3,0-0.5,0-0.7-0.1c-0.1-0.1-0.2-0.2-0.3-0.4c0-0.2-0.1-0.3-0.1-0.6c0-0.2,0-0.4,0.1-0.5
			s0.2-0.3,0.3-0.3c0.1-0.1,0.4-0.1,0.7-0.1s0.5,0,0.6,0.1s0.2,0.2,0.3,0.4c0,0.2,0.1,0.3,0.1,0.6c0,0.2,0,0.4-0.1,0.6
			c0,0.2-0.1,0.3-0.3,0.3C139.7,3.1,139.5,3.1,139.2,3.1z M139.2,15.2c-0.3,0-0.4,0-0.6-0.1c-0.1-0.1-0.2-0.2-0.2-0.3
			s-0.1-0.3-0.1-0.5V6.4c0-0.2,0-0.3,0.1-0.5c0-0.1,0.1-0.2,0.2-0.3c0.1-0.1,0.3-0.1,0.6-0.1s0.4,0,0.6,0.1c0.1,0.1,0.2,0.2,0.2,0.3
			s0.1,0.3,0.1,0.5v7.9c0,0.2,0,0.3-0.1,0.5c0,0.1-0.1,0.2-0.2,0.3C139.6,15.2,139.4,15.2,139.2,15.2z"/>
		<path class="st6" d="M148.5,15.2c-0.3,0-0.4,0-0.6-0.1s-0.2-0.2-0.2-0.3s0-0.3,0-0.5V2c0-0.2,0-0.3,0.1-0.5c0-0.1,0.1-0.2,0.3-0.3
			s0.3-0.1,0.6-0.1s0.5,0,0.6,0.1s0.2,0.2,0.2,0.3c0,0.1,0,0.3,0,0.5v4.9c0.3-0.4,0.7-0.7,1.2-1s1-0.4,1.7-0.4
			c0.8,0,1.5,0.2,2.1,0.5c0.6,0.4,1.1,0.9,1.5,1.5c0.4,0.7,0.5,1.5,0.5,2.4v4.3c0,0.2,0,0.3-0.1,0.5c0,0.1-0.1,0.2-0.2,0.3
			s-0.3,0.1-0.6,0.1s-0.4,0-0.6-0.1s-0.2-0.2-0.3-0.3c0-0.1-0.1-0.3-0.1-0.5V9.9c0-0.6-0.1-1-0.3-1.5c-0.2-0.4-0.5-0.7-0.8-1
			c-0.4-0.2-0.8-0.3-1.4-0.3c-0.8,0-1.4,0.2-1.9,0.7c-0.5,0.4-0.8,1-0.9,1.7v4.7c0,0.2,0,0.3-0.1,0.5c0,0.1-0.1,0.2-0.2,0.3
			S148.8,15.2,148.5,15.2z"/>
		<path class="st6" d="M162.3,15.2c-0.6,0-1.1-0.1-1.6-0.3s-0.9-0.5-1.3-0.9c-0.4-0.4-0.7-0.9-0.9-1.4s-0.3-1.2-0.3-1.9V6.4
			c0-0.2,0-0.3,0.1-0.5c0-0.1,0.1-0.2,0.2-0.3c0.1-0.1,0.3-0.1,0.6-0.1s0.4,0,0.6,0.1c0.1,0.1,0.2,0.2,0.2,0.3s0.1,0.3,0.1,0.5v4.3
			c0,0.5,0.1,1,0.3,1.5c0.2,0.4,0.5,0.7,0.9,1c0.4,0.2,0.8,0.3,1.4,0.3c0.6,0,1-0.1,1.5-0.3c0.4-0.2,0.7-0.5,0.9-1
			c0.2-0.4,0.3-0.9,0.3-1.5V6.3c0-0.2,0-0.3,0.1-0.5c0-0.1,0.1-0.2,0.2-0.3c0.1-0.1,0.3-0.1,0.6-0.1s0.4,0,0.6,0.1
			c0.1,0.1,0.2,0.2,0.2,0.3s0.1,0.3,0.1,0.5v7.9c0,0.2,0,0.3-0.1,0.4s-0.1,0.2-0.2,0.3c-0.1,0.1-0.3,0.1-0.6,0.1
			c-0.2,0-0.3,0-0.4-0.1c-0.1,0-0.2-0.1-0.2-0.2c-0.1-0.1-0.1-0.1-0.1-0.2s0-0.2,0-0.3l0.1-0.9c-0.1,0.2-0.3,0.3-0.5,0.5
			s-0.4,0.4-0.6,0.5c-0.2,0.2-0.5,0.3-0.8,0.4C163,15.2,162.7,15.2,162.3,15.2z"/>
		<path class="st6" d="M173.9,15.3c-0.8,0-1.5-0.1-2.1-0.4s-1.2-0.6-1.6-1.1s-0.8-1-1-1.6s-0.3-1.2-0.3-1.9c0-0.9,0.2-1.7,0.6-2.5
			c0.4-0.7,1-1.3,1.8-1.7s1.6-0.6,2.6-0.6c0.7,0,1.3,0.1,1.8,0.3s1,0.5,1.4,0.8s0.7,0.7,0.9,1.2c0.2,0.4,0.3,0.9,0.3,1.3
			c0,0.7-0.2,1.2-0.5,1.4c-0.3,0.3-0.7,0.4-1.2,0.4h-5.8c0,0.6,0.1,1.1,0.5,1.5s0.7,0.7,1.2,1s1,0.3,1.5,0.3c0.4,0,0.7,0,1-0.1
			s0.5-0.1,0.7-0.2s0.4-0.1,0.5-0.2s0.3-0.1,0.4-0.2c0.1-0.1,0.2-0.1,0.3-0.1s0.2,0,0.3,0s0.2,0.1,0.3,0.3c0.1,0.1,0.1,0.2,0.2,0.3
			c0,0.1,0,0.2,0,0.3c0,0.2-0.2,0.4-0.5,0.6s-0.8,0.4-1.3,0.6C175.2,15.2,174.6,15.3,173.9,15.3z M170.7,9.7h5c0.3,0,0.4,0,0.6-0.1
			c0.1-0.1,0.2-0.2,0.2-0.5c0-0.4-0.1-0.7-0.3-1c-0.2-0.3-0.5-0.5-0.9-0.7s-0.8-0.3-1.4-0.3c-0.6,0-1.1,0.1-1.6,0.4s-0.9,0.5-1.1,1
			C170.8,8.8,170.7,9.2,170.7,9.7z"/>
		<path class="st6" d="M183.2,15.2c-0.4,0-0.8,0-1.1-0.1s-0.6-0.2-0.9-0.3s-0.5-0.4-0.6-0.6c-0.2-0.3-0.3-0.6-0.4-0.9
			c-0.1-0.4-0.1-0.8-0.1-1.3V2c0-0.2,0-0.4,0-0.5s0.1-0.2,0.2-0.3s0.3-0.1,0.6-0.1s0.5,0,0.6,0.1s0.2,0.2,0.2,0.3
			c0,0.1,0.1,0.3,0.1,0.5v10c0,0.3,0,0.5,0.1,0.7s0.1,0.4,0.2,0.5c0.1,0.1,0.3,0.2,0.4,0.3c0.2,0.1,0.4,0.1,0.6,0.1
			c0.2,0,0.3,0,0.4,0.1c0.1,0,0.2,0.1,0.3,0.2s0.1,0.3,0.1,0.6s0,0.5-0.1,0.6s-0.2,0.2-0.3,0.2C183.5,15.2,183.3,15.2,183.2,15.2z"
			/>
		<path class="st6" d="M188.8,15.2c-0.4,0-0.8,0-1.1-0.1s-0.6-0.2-0.9-0.3s-0.5-0.4-0.6-0.6c-0.2-0.3-0.3-0.6-0.4-0.9
			c-0.1-0.4-0.1-0.8-0.1-1.3V2c0-0.2,0-0.4,0-0.5s0.1-0.2,0.2-0.3s0.3-0.1,0.6-0.1s0.5,0,0.6,0.1s0.2,0.2,0.2,0.3
			c0,0.1,0.1,0.3,0.1,0.5v10c0,0.3,0,0.5,0.1,0.7s0.1,0.4,0.2,0.5c0.1,0.1,0.3,0.2,0.4,0.3c0.2,0.1,0.4,0.1,0.6,0.1
			c0.2,0,0.3,0,0.4,0.1c0.1,0,0.2,0.1,0.3,0.2s0.1,0.3,0.1,0.6s0,0.5-0.1,0.6s-0.2,0.2-0.3,0.2C189.1,15.2,188.9,15.2,188.8,15.2z"
			/>
		<path class="st6" d="M199.6,15.2c-0.3,0-0.5-0.1-0.6-0.2s-0.2-0.3-0.2-0.6l0.1-1c-0.1,0.2-0.3,0.5-0.6,0.7
			c-0.3,0.3-0.6,0.5-1.1,0.7s-1,0.3-1.7,0.3c-0.6,0-1.2-0.1-1.8-0.4s-1-0.6-1.5-1.1c-0.4-0.5-0.7-1-1-1.6s-0.4-1.2-0.4-1.9
			s0.1-1.3,0.4-1.9s0.6-1.1,1-1.5s0.9-0.8,1.5-1c0.6-0.3,1.1-0.4,1.8-0.4c0.6,0,1.1,0.1,1.5,0.2s0.8,0.4,1.1,0.6s0.6,0.5,0.8,0.8
			V6.1c0-0.3,0-0.5,0.2-0.6s0.4-0.2,0.7-0.2s0.4,0,0.5,0.1s0.2,0.2,0.2,0.3s0.1,0.3,0.1,0.5v7.7c0,0.2,0,0.4-0.1,0.5
			s-0.1,0.3-0.2,0.3S199.9,15.2,199.6,15.2z M195.7,13.5c0.5,0,1-0.1,1.5-0.4c0.4-0.3,0.8-0.7,1.1-1.1c0.3-0.5,0.4-1,0.4-1.6
			s-0.1-1.2-0.4-1.6c-0.3-0.5-0.6-0.8-1.1-1.1s-0.9-0.4-1.5-0.4s-1.2,0.1-1.6,0.4c-0.5,0.3-0.8,0.7-1.1,1.2s-0.4,1-0.4,1.6
			s0.1,1.1,0.4,1.6c0.3,0.5,0.6,0.8,1.1,1.1C194.6,13.4,195.1,13.5,195.7,13.5z"/>
		<path class="st6" d="M206.5,11.3c-0.2,0-0.4,0-0.5-0.1s-0.2-0.2-0.2-0.3s0-0.3,0-0.4V8.6c0-0.3,0.1-0.5,0.2-0.6
			c0.1-0.2,0.3-0.3,0.6-0.4c0.2-0.1,0.5-0.2,0.8-0.3s0.5-0.3,0.8-0.5c0.2-0.2,0.4-0.4,0.6-0.7c0.1-0.3,0.2-0.7,0.2-1.2
			c0-0.7-0.2-1.3-0.6-1.7c-0.4-0.4-1-0.6-1.8-0.6c-0.4,0-0.7,0.1-1,0.2s-0.6,0.3-0.8,0.5s-0.4,0.5-0.5,0.8c-0.1,0.2-0.1,0.3-0.2,0.4
			c-0.1,0.1-0.2,0.2-0.3,0.2s-0.3,0-0.5-0.1s-0.4-0.1-0.5-0.2s-0.1-0.2-0.2-0.3c0-0.1,0-0.3,0-0.4c0.1-0.2,0.2-0.5,0.3-0.7
			s0.3-0.5,0.5-0.7s0.5-0.4,0.8-0.6s0.6-0.3,1-0.4s0.8-0.2,1.3-0.2c0.8,0,1.6,0.2,2.2,0.5c0.6,0.3,1.1,0.8,1.4,1.3
			c0.3,0.6,0.5,1.3,0.5,2c0,0.4-0.1,0.8-0.2,1.2c-0.1,0.4-0.3,0.7-0.5,1s-0.4,0.6-0.7,0.8c-0.3,0.2-0.6,0.4-0.9,0.6
			c-0.3,0.2-0.6,0.3-1,0.4l0.1-0.2v1.9c0,0.2,0,0.3-0.1,0.4c0,0.1-0.1,0.2-0.2,0.3C207,11.2,206.8,11.3,206.5,11.3z M206.5,15.2
			c-0.4,0-0.7-0.1-0.9-0.3c-0.1-0.2-0.2-0.4-0.2-0.8c0-0.2,0-0.3,0-0.5s0.1-0.3,0.3-0.4s0.4-0.2,0.8-0.2c0.5,0,0.8,0.1,0.9,0.2
			c0.1,0.2,0.2,0.4,0.2,0.8c0,0.2,0,0.3,0,0.5s-0.1,0.3-0.3,0.4C207.2,15.2,206.9,15.2,206.5,15.2z"/>
	</g>
	<g class="st5">
		<path class="st6" d="M305.6,9.1c0.3,0,0.4,0,0.6,0.1c0.1,0.1,0.2,0.2,0.2,0.3s0,0.3,0,0.5v1.9c0,0.3-0.1,0.5-0.2,0.6
			c-0.1,0.2-0.3,0.3-0.6,0.4c-0.2,0.1-0.5,0.2-0.8,0.3s-0.5,0.3-0.8,0.4c-0.2,0.2-0.4,0.4-0.6,0.7c-0.1,0.3-0.2,0.7-0.2,1.2
			c0,0.7,0.2,1.3,0.6,1.7c0.4,0.4,1,0.6,1.8,0.6c0.4,0,0.7-0.1,1-0.2s0.6-0.3,0.8-0.5c0.2-0.2,0.4-0.5,0.5-0.8
			c0.1-0.2,0.1-0.3,0.2-0.4s0.2-0.1,0.3-0.2c0.1,0,0.3,0,0.5,0.1s0.3,0.1,0.4,0.2s0.1,0.2,0.2,0.3s0,0.3-0.1,0.5s-0.1,0.5-0.3,0.7
			c-0.1,0.2-0.3,0.5-0.5,0.7s-0.5,0.4-0.8,0.6s-0.6,0.3-1,0.4s-0.8,0.2-1.2,0.2c-0.8,0-1.6-0.2-2.2-0.5s-1.1-0.8-1.4-1.3
			c-0.3-0.6-0.5-1.3-0.5-2c0-0.4,0.1-0.8,0.2-1.2s0.3-0.7,0.5-1s0.4-0.6,0.7-0.8c0.3-0.2,0.6-0.4,0.9-0.6s0.7-0.3,1-0.4l-0.1,0.2
			V9.9c0-0.2,0-0.3,0.1-0.4c0-0.1,0.1-0.2,0.2-0.3C305.2,9.1,305.4,9.1,305.6,9.1z M305.6,5.2c0.4,0,0.7,0.1,0.9,0.2
			c0.1,0.2,0.2,0.4,0.2,0.8c0,0.2,0,0.3,0,0.5s-0.1,0.3-0.3,0.4c-0.1,0.1-0.4,0.2-0.8,0.2c-0.5,0-0.7-0.1-0.9-0.3
			c-0.1-0.2-0.2-0.4-0.2-0.8c0-0.2,0-0.3,0-0.5s0.1-0.3,0.3-0.4S305.2,5.2,305.6,5.2z"/>
		<path class="st6" d="M322,1.3c0.3,0.2,0.4,0.4,0.5,0.6c0,0.2,0,0.4-0.2,0.6l-4.7,7.1v4.7c0,0.2,0,0.3-0.1,0.5
			c0,0.1-0.1,0.2-0.2,0.3s-0.3,0.1-0.6,0.1s-0.5,0-0.6-0.1s-0.2-0.2-0.3-0.3s-0.1-0.3-0.1-0.5V9.6L311,2.5c-0.2-0.2-0.2-0.4-0.2-0.6
			s0.2-0.4,0.5-0.6c0.2-0.1,0.4-0.2,0.5-0.2s0.3,0,0.4,0.1s0.2,0.2,0.3,0.4l4.1,6.4l4.1-6.4c0.1-0.2,0.2-0.3,0.4-0.4
			c0.1-0.1,0.2-0.1,0.4-0.1C321.7,1.1,321.8,1.2,322,1.3z"/>
		<path class="st6" d="M329.5,5.7h1.9h2.8c0.2,0,0.3,0,0.5,0c0.1,0,0.2,0.1,0.3,0.2c0.1,0.1,0.1,0.3,0.1,0.6s0,0.4-0.1,0.6
			s-0.2,0.2-0.3,0.2s-0.3,0.1-0.5,0.1h-2.7h-2c-0.3,0-0.5-0.1-0.6-0.2s-0.1-0.4-0.1-0.7s0.1-0.5,0.2-0.6
			C329,5.8,329.2,5.7,329.5,5.7z M333.9,15.2c-0.6,0-1.2-0.1-1.6-0.2s-0.8-0.3-1.1-0.6c-0.3-0.3-0.5-0.6-0.6-1s-0.2-0.9-0.2-1.5V3.1
			c0-0.2,0-0.3,0.1-0.5c0-0.1,0.1-0.2,0.2-0.3s0.3-0.1,0.6-0.1c0.3,0,0.4,0,0.6,0.1s0.2,0.2,0.3,0.3c0,0.1,0.1,0.3,0.1,0.5V12
			c0,0.3,0,0.6,0.1,0.8s0.2,0.4,0.3,0.5c0.1,0.1,0.3,0.2,0.5,0.2s0.5,0,0.8,0c0.2,0,0.4,0,0.5,0.1s0.2,0.1,0.3,0.2
			c0.1,0.1,0.1,0.3,0.1,0.5c0,0.3,0,0.4-0.1,0.6c-0.1,0.1-0.2,0.2-0.3,0.2C334.3,15.2,334.1,15.2,333.9,15.2z"/>
		<path class="st6" d="M340.7,15.2c-0.6,0-1.1-0.1-1.6-0.3s-0.9-0.5-1.3-0.9s-0.7-0.9-0.9-1.4c-0.2-0.5-0.3-1.2-0.3-1.9V6.4
			c0-0.2,0-0.3,0.1-0.5c0-0.1,0.1-0.2,0.2-0.3s0.3-0.1,0.6-0.1s0.4,0,0.6,0.1c0.1,0.1,0.2,0.2,0.2,0.3s0.1,0.3,0.1,0.5v4.3
			c0,0.5,0.1,1,0.3,1.5c0.2,0.4,0.5,0.7,0.9,1c0.4,0.2,0.8,0.3,1.4,0.3s1-0.1,1.5-0.3c0.4-0.2,0.7-0.5,0.9-1
			c0.2-0.4,0.3-0.9,0.3-1.5V6.3c0-0.2,0-0.3,0.1-0.5c0-0.1,0.1-0.2,0.2-0.3s0.3-0.1,0.6-0.1s0.4,0,0.6,0.1c0.1,0.1,0.2,0.2,0.2,0.3
			s0.1,0.3,0.1,0.5v7.9c0,0.2,0,0.3-0.1,0.4s-0.1,0.2-0.2,0.3s-0.3,0.1-0.6,0.1c-0.2,0-0.3,0-0.4-0.1c-0.1,0-0.2-0.1-0.2-0.2
			c-0.1-0.1-0.1-0.1-0.1-0.2s0-0.2,0-0.3l0.1-0.9c-0.1,0.2-0.3,0.3-0.5,0.5s-0.4,0.4-0.6,0.5c-0.2,0.2-0.5,0.3-0.8,0.4
			C341.5,15.2,341.1,15.2,340.7,15.2z"/>
		<path class="st6" d="M353.7,15.2c-0.3,0-0.4,0-0.6-0.1s-0.2-0.2-0.2-0.3s-0.1-0.3-0.1-0.5V6.4c0-0.2,0-0.3,0.1-0.5
			c0-0.1,0.1-0.2,0.2-0.3s0.3-0.1,0.6-0.1c0.3,0,0.5,0.1,0.6,0.2s0.2,0.3,0.2,0.6l-0.1,0.9c0.1-0.2,0.2-0.4,0.4-0.6s0.4-0.4,0.7-0.5
			c0.3-0.2,0.5-0.3,0.8-0.4s0.6-0.1,0.9-0.1c0.5,0,0.9,0.1,1.2,0.2c0.4,0.2,0.7,0.4,1,0.7s0.5,0.7,0.7,1.1c0.3-0.4,0.5-0.8,0.8-1.1
			s0.6-0.6,1-0.7c0.4-0.2,0.8-0.2,1.3-0.2c0.8,0,1.4,0.2,1.9,0.6s0.9,0.9,1.2,1.6c0.3,0.7,0.4,1.5,0.4,2.5v4.2c0,0.2,0,0.3,0,0.5
			c0,0.1-0.1,0.2-0.2,0.3s-0.3,0.1-0.6,0.1c-0.3,0-0.4,0-0.6-0.1c-0.1-0.1-0.2-0.2-0.2-0.3s-0.1-0.3-0.1-0.5v-4.2
			c0-0.6-0.1-1.1-0.2-1.5s-0.4-0.8-0.6-1s-0.7-0.4-1.1-0.4c-0.5,0-0.9,0.1-1.3,0.4c-0.4,0.2-0.6,0.6-0.9,1s-0.3,1-0.3,1.6v4.2
			c0,0.2,0,0.4-0.1,0.5s-0.2,0.2-0.4,0.3c-0.2,0.1-0.4,0.1-0.6,0c-0.2,0-0.4-0.1-0.5-0.2s-0.2-0.2-0.2-0.3s0-0.3,0-0.4v-4.2
			c0-0.6-0.1-1.1-0.2-1.5s-0.4-0.8-0.6-1s-0.7-0.4-1.1-0.4c-0.5,0-0.9,0.1-1.3,0.4c-0.4,0.2-0.6,0.6-0.9,1c-0.2,0.4-0.3,0.9-0.3,1.5
			v4.2c0,0.2,0,0.3-0.1,0.5c0,0.1-0.1,0.2-0.2,0.3C354.2,15.2,354,15.2,353.7,15.2z"/>
		<path class="st6" d="M373.2,15.2c-0.6,0-1.1-0.1-1.6-0.3s-0.9-0.5-1.3-0.9s-0.7-0.9-0.9-1.4c-0.2-0.5-0.3-1.2-0.3-1.9V6.4
			c0-0.2,0-0.3,0.1-0.5c0-0.1,0.1-0.2,0.2-0.3s0.3-0.1,0.6-0.1s0.4,0,0.6,0.1c0.1,0.1,0.2,0.2,0.2,0.3s0.1,0.3,0.1,0.5v4.3
			c0,0.5,0.1,1,0.3,1.5c0.2,0.4,0.5,0.7,0.9,1c0.4,0.2,0.8,0.3,1.4,0.3s1-0.1,1.5-0.3c0.4-0.2,0.7-0.5,0.9-1
			c0.2-0.4,0.3-0.9,0.3-1.5V6.3c0-0.2,0-0.3,0.1-0.5c0-0.1,0.1-0.2,0.2-0.3s0.3-0.1,0.6-0.1s0.4,0,0.6,0.1c0.1,0.1,0.2,0.2,0.2,0.3
			s0.1,0.3,0.1,0.5v7.9c0,0.2,0,0.3-0.1,0.4s-0.1,0.2-0.2,0.3s-0.3,0.1-0.6,0.1c-0.2,0-0.3,0-0.4-0.1c-0.1,0-0.2-0.1-0.2-0.2
			c-0.1-0.1-0.1-0.1-0.1-0.2s0-0.2,0-0.3l0.1-0.9c-0.1,0.2-0.3,0.3-0.5,0.5s-0.4,0.4-0.6,0.5c-0.2,0.2-0.5,0.3-0.8,0.4
			C373.9,15.2,373.6,15.2,373.2,15.2z"/>
		<path class="st6" d="M381.1,15.2c-0.3,0-0.4,0-0.6-0.1c-0.1-0.1-0.2-0.2-0.2-0.3s-0.1-0.3-0.1-0.5V6.4c0-0.2,0-0.3,0.1-0.4
			c0-0.1,0.1-0.2,0.2-0.3s0.3-0.1,0.6-0.1c0.2,0,0.4,0,0.5,0.1s0.2,0.1,0.2,0.2s0.1,0.2,0.1,0.3s0,0.2,0,0.3v0.9
			c0.1-0.2,0.3-0.4,0.5-0.6s0.4-0.4,0.7-0.6c0.3-0.2,0.6-0.3,0.9-0.4s0.7-0.1,1-0.1c0.6,0,1.1,0.1,1.6,0.3s0.9,0.5,1.3,0.9
			s0.6,0.9,0.8,1.4c0.2,0.5,0.3,1.2,0.3,1.9v4.3c0,0.2,0,0.3,0,0.5c0,0.1-0.1,0.2-0.2,0.3s-0.3,0.1-0.6,0.1c-0.3,0-0.5,0-0.6-0.1
			s-0.2-0.2-0.2-0.3s-0.1-0.3-0.1-0.5v-4.3c0-0.6-0.1-1-0.3-1.5c-0.2-0.4-0.5-0.7-0.8-1c-0.4-0.2-0.8-0.3-1.4-0.3
			c-0.5,0-1,0.1-1.4,0.3s-0.7,0.6-0.9,1c-0.2,0.4-0.3,0.9-0.3,1.5v4.4c0,0.2,0,0.3-0.1,0.5c0,0.1-0.1,0.2-0.2,0.3
			C381.6,15.1,381.4,15.2,381.1,15.2z"/>
		<path class="st6" d="M392.3,3.1c-0.3,0-0.5,0-0.7-0.1c-0.1-0.1-0.2-0.2-0.3-0.4c0-0.2-0.1-0.3-0.1-0.6c0-0.2,0-0.4,0.1-0.5
			s0.2-0.3,0.3-0.3c0.1-0.1,0.4-0.1,0.7-0.1c0.3,0,0.5,0,0.6,0.1s0.2,0.2,0.3,0.4c0,0.2,0.1,0.3,0.1,0.6c0,0.2,0,0.4-0.1,0.6
			c0,0.2-0.1,0.3-0.3,0.3C392.9,3.1,392.6,3.1,392.3,3.1z M392.3,15.2c-0.3,0-0.4,0-0.6-0.1c-0.1-0.1-0.2-0.2-0.2-0.3
			s-0.1-0.3-0.1-0.5V6.4c0-0.2,0-0.3,0.1-0.5c0-0.1,0.1-0.2,0.2-0.3s0.3-0.1,0.6-0.1c0.3,0,0.4,0,0.6,0.1c0.1,0.1,0.2,0.2,0.2,0.3
			s0.1,0.3,0.1,0.5v7.9c0,0.2,0,0.3-0.1,0.5c0,0.1-0.1,0.2-0.2,0.3C392.8,15.2,392.6,15.2,392.3,15.2z"/>
		<path class="st6" d="M400.4,15.2c-0.7,0-1.3-0.1-1.9-0.3s-1.1-0.6-1.6-1s-0.8-0.9-1.1-1.5c-0.3-0.6-0.4-1.3-0.4-2
			c0-0.8,0.1-1.4,0.4-2s0.6-1.1,1.1-1.5s1-0.8,1.6-1s1.2-0.3,1.9-0.3c0.5,0,0.9,0.1,1.3,0.2s0.8,0.3,1.2,0.5
			c0.3,0.2,0.6,0.4,0.7,0.7c0.1,0.2,0.2,0.3,0.3,0.4c0.1,0.1,0.1,0.2,0,0.4c-0.1,0.1-0.1,0.2-0.2,0.3c-0.1,0.1-0.2,0.2-0.3,0.2
			c-0.2,0.2-0.5,0.2-0.7,0.1c-0.1-0.1-0.3-0.3-0.5-0.4c-0.2-0.1-0.4-0.2-0.6-0.4c-0.2-0.1-0.4-0.2-0.6-0.2c-0.2-0.1-0.4-0.1-0.7-0.1
			c-0.6,0-1.2,0.1-1.7,0.4s-0.9,0.6-1.1,1.1c-0.3,0.5-0.4,1-0.4,1.7s0.1,1.2,0.4,1.6c0.3,0.5,0.6,0.8,1.1,1.1s1,0.4,1.6,0.4
			c0.3,0,0.5,0,0.8-0.1s0.5-0.2,0.7-0.3s0.4-0.3,0.6-0.4c0.1-0.1,0.2-0.2,0.3-0.2c0.1-0.1,0.2-0.1,0.3-0.1c0.1,0,0.2,0,0.3,0.1
			c0.1,0.1,0.2,0.2,0.4,0.4c0.1,0.1,0.2,0.2,0.2,0.4c0,0.1,0,0.3-0.1,0.4s-0.2,0.2-0.3,0.4c-0.2,0.2-0.5,0.4-0.9,0.6
			s-0.7,0.4-1.1,0.5C401.2,15.2,400.8,15.2,400.4,15.2z"/>
		<path class="st6" d="M407,3.1c-0.3,0-0.5,0-0.7-0.1c-0.1-0.1-0.2-0.2-0.3-0.4c0-0.2-0.1-0.3-0.1-0.6c0-0.2,0-0.4,0.1-0.5
			s0.2-0.3,0.3-0.3c0.1-0.1,0.4-0.1,0.7-0.1c0.3,0,0.5,0,0.6,0.1s0.2,0.2,0.3,0.4c0,0.2,0.1,0.3,0.1,0.6c0,0.2,0,0.4-0.1,0.6
			c0,0.2-0.1,0.3-0.3,0.3C407.5,3.1,407.3,3.1,407,3.1z M407,15.2c-0.3,0-0.4,0-0.6-0.1c-0.1-0.1-0.2-0.2-0.2-0.3s-0.1-0.3-0.1-0.5
			V6.4c0-0.2,0-0.3,0.1-0.5c0-0.1,0.1-0.2,0.2-0.3s0.3-0.1,0.6-0.1c0.3,0,0.4,0,0.6,0.1c0.1,0.1,0.2,0.2,0.2,0.3s0.1,0.3,0.1,0.5
			v7.9c0,0.2,0,0.3-0.1,0.5c0,0.1-0.1,0.2-0.2,0.3C407.4,15.2,407.2,15.2,407,15.2z"/>
		<path class="st6" d="M411.2,19.1c-0.3,0-0.4,0-0.6-0.1c-0.1-0.1-0.2-0.2-0.3-0.3c0-0.1-0.1-0.3-0.1-0.5V6.4c0-0.2,0-0.3,0.1-0.5
			c0-0.1,0.1-0.2,0.2-0.3s0.3-0.1,0.6-0.1c0.3,0,0.5,0,0.6,0.1s0.2,0.3,0.2,0.5v12.1c0,0.2,0,0.4,0,0.5s-0.1,0.2-0.2,0.3
			S411.5,19.1,411.2,19.1z M415.4,15.1c-0.7,0-1.2-0.1-1.8-0.4s-1-0.6-1.4-1s-0.7-0.9-0.9-1.5c-0.2-0.6-0.3-1.2-0.3-1.9
			s0.1-1.3,0.3-1.9c0.2-0.6,0.5-1.1,0.9-1.5s0.8-0.8,1.4-1c0.5-0.2,1.1-0.3,1.8-0.3c0.6,0,1.2,0.1,1.7,0.4s1,0.6,1.4,1s0.7,1,1,1.6
			c0.2,0.6,0.4,1.2,0.4,1.9s-0.1,1.3-0.4,1.9c-0.2,0.6-0.6,1.1-1,1.5s-0.9,0.8-1.4,1C416.6,15,416,15.1,415.4,15.1z M415.1,13.5
			c0.6,0,1.1-0.1,1.5-0.4s0.8-0.7,1.1-1.1c0.3-0.5,0.4-1,0.4-1.6s-0.1-1.2-0.4-1.6c-0.3-0.5-0.6-0.8-1.1-1.1c-0.4-0.3-1-0.4-1.5-0.4
			c-0.6,0-1.1,0.1-1.5,0.4s-0.8,0.6-1.1,1.1c-0.3,0.5-0.4,1-0.4,1.6s0.1,1.2,0.4,1.6c0.3,0.5,0.6,0.9,1.1,1.1
			C414.1,13.3,414.6,13.5,415.1,13.5z"/>
		<path class="st6" d="M422.9,3.1c-0.3,0-0.5,0-0.7-0.1c-0.1-0.1-0.2-0.2-0.3-0.4c0-0.2-0.1-0.3-0.1-0.6c0-0.2,0-0.4,0.1-0.5
			s0.2-0.3,0.3-0.3c0.1-0.1,0.4-0.1,0.7-0.1c0.3,0,0.5,0,0.6,0.1s0.2,0.2,0.3,0.4c0,0.2,0.1,0.3,0.1,0.6c0,0.2,0,0.4-0.1,0.6
			c0,0.2-0.1,0.3-0.3,0.3C423.5,3.1,423.2,3.1,422.9,3.1z M422.9,15.2c-0.3,0-0.4,0-0.6-0.1c-0.1-0.1-0.2-0.2-0.2-0.3
			s-0.1-0.3-0.1-0.5V6.4c0-0.2,0-0.3,0.1-0.5c0-0.1,0.1-0.2,0.2-0.3s0.3-0.1,0.6-0.1c0.3,0,0.4,0,0.6,0.1c0.1,0.1,0.2,0.2,0.2,0.3
			s0.1,0.3,0.1,0.5v7.9c0,0.2,0,0.3-0.1,0.5c0,0.1-0.1,0.2-0.2,0.3C423.4,15.2,423.2,15.2,422.9,15.2z"/>
		<path class="st6" d="M430.8,15.3c-0.7,0-1.3-0.1-1.9-0.4s-1.1-0.6-1.6-1.1c-0.5-0.4-0.8-1-1.1-1.6c-0.3-0.6-0.4-1.3-0.4-2
			s0.1-1.3,0.4-1.9c0.3-0.6,0.6-1.1,1.1-1.6s1-0.8,1.6-1.1s1.2-0.4,1.9-0.4c0.9,0,1.8,0.2,2.5,0.6s1.3,1,1.8,1.8
			c0.4,0.7,0.7,1.6,0.7,2.5c0,0.7-0.1,1.4-0.4,2s-0.6,1.1-1.1,1.6c-0.5,0.4-1,0.8-1.6,1C432.1,15.2,431.5,15.3,430.8,15.3z
			 M430.8,13.6c0.6,0,1.1-0.1,1.6-0.4s0.9-0.7,1.2-1.2s0.4-1.1,0.4-1.7s-0.1-1.2-0.4-1.7s-0.6-0.9-1.1-1.1s-1-0.4-1.6-0.4
			s-1.1,0.1-1.6,0.4s-0.9,0.7-1.1,1.1c-0.3,0.5-0.4,1-0.4,1.6s0.1,1.2,0.4,1.7s0.7,0.9,1.2,1.1S430.2,13.6,430.8,13.6z"/>
		<path class="st6" d="M441.3,11.3c-0.2,0-0.4,0-0.5-0.1s-0.2-0.2-0.2-0.3s0-0.3,0-0.4V8.6c0-0.3,0.1-0.5,0.2-0.6
			c0.1-0.2,0.3-0.3,0.6-0.4c0.2-0.1,0.5-0.2,0.8-0.3s0.5-0.3,0.8-0.5c0.2-0.2,0.4-0.4,0.6-0.7c0.1-0.3,0.2-0.7,0.2-1.2
			c0-0.7-0.2-1.3-0.6-1.7s-1-0.6-1.8-0.6c-0.4,0-0.7,0.1-1,0.2s-0.6,0.3-0.8,0.5c-0.2,0.2-0.4,0.5-0.5,0.8c-0.1,0.2-0.1,0.3-0.2,0.4
			s-0.2,0.2-0.3,0.2c-0.1,0-0.3,0-0.5-0.1s-0.4-0.1-0.5-0.2s-0.1-0.2-0.2-0.3c0-0.1,0-0.3,0-0.4c0.1-0.2,0.2-0.5,0.3-0.7
			c0.1-0.2,0.3-0.5,0.5-0.7s0.5-0.4,0.8-0.6s0.6-0.3,1-0.4s0.8-0.2,1.3-0.2c0.8,0,1.6,0.2,2.2,0.5s1.1,0.8,1.4,1.3
			c0.3,0.6,0.5,1.3,0.5,2c0,0.4-0.1,0.8-0.2,1.2s-0.3,0.7-0.5,1s-0.4,0.6-0.7,0.8c-0.3,0.2-0.6,0.4-0.9,0.6c-0.3,0.2-0.6,0.3-1,0.4
			l0.1-0.2v1.9c0,0.2,0,0.3-0.1,0.4c0,0.1-0.1,0.2-0.2,0.3C441.8,11.2,441.6,11.3,441.3,11.3z M441.3,15.2c-0.4,0-0.7-0.1-0.9-0.3
			c-0.1-0.2-0.2-0.4-0.2-0.8c0-0.2,0-0.3,0-0.5s0.1-0.3,0.3-0.4s0.4-0.2,0.8-0.2c0.5,0,0.8,0.1,0.9,0.2c0.1,0.2,0.2,0.4,0.2,0.8
			c0,0.2,0,0.3,0,0.5s-0.1,0.3-0.3,0.4C442,15.2,441.7,15.2,441.3,15.2z"/>
	</g>
	<g class="st5">
		<path class="st6" d="M812.7,4c0.3,0,0.5,0,0.7,0.1c0.2,0.1,0.2,0.2,0.3,0.4s0.1,0.4,0.1,0.6c0,0.4-0.1,0.6-0.2,0.8
			c-0.1,0.2-0.4,0.2-0.8,0.2c-0.3,0-0.5,0-0.7-0.1c-0.1-0.1-0.2-0.2-0.3-0.4s-0.1-0.3-0.1-0.6c0-0.4,0.1-0.7,0.2-0.8
			S812.3,4,812.7,4z M812.7,7.9c0.3,0,0.5,0,0.6,0.1c0.1,0.1,0.2,0.2,0.2,0.3s0.1,0.3,0.1,0.5v8.3c0,0.2,0,0.3-0.1,0.5
			c0,0.1-0.1,0.2-0.2,0.3S813,18,812.7,18s-0.4,0-0.6-0.1s-0.2-0.2-0.2-0.3c0-0.1-0.1-0.3-0.1-0.5V8.8c0-0.2,0-0.3,0.1-0.5
			c0-0.1,0.1-0.2,0.2-0.3C812.2,8,812.4,7.9,812.7,7.9z"/>
		<path class="st6" d="M817.3,14.2c-0.3,0-0.5,0-0.6-0.1s-0.2-0.2-0.2-0.3s-0.1-0.3-0.1-0.5V1.1c0-0.2,0-0.3,0.1-0.5
			s0.1-0.2,0.3-0.3c0.1-0.1,0.3-0.1,0.6-0.1s0.4,0,0.6,0.1c0.1,0.1,0.2,0.2,0.2,0.3s0.1,0.3,0.1,0.5v12.1c0,0.2,0,0.3-0.1,0.5
			c0,0.1-0.1,0.2-0.3,0.3C817.8,14.2,817.6,14.2,817.3,14.2z M817.4,7.9V6.2h8.4v1.7C825.8,7.9,817.4,7.9,817.4,7.9z M826.3,14.2
			c-0.3,0-0.4,0-0.6-0.1s-0.2-0.2-0.2-0.3s-0.1-0.3-0.1-0.5V1.1c0-0.2,0-0.3,0.1-0.5s0.1-0.2,0.3-0.3c0.1-0.1,0.3-0.1,0.6-0.1
			s0.5,0,0.6,0.1s0.2,0.2,0.2,0.3s0.1,0.3,0.1,0.5v12.1c0,0.2,0,0.3-0.1,0.5c0,0.1-0.1,0.2-0.3,0.3S826.6,14.2,826.3,14.2z"/>
		<path class="st6" d="M838.2,14.2c-0.3,0-0.5-0.1-0.6-0.2s-0.2-0.3-0.2-0.6l0.1-1c-0.1,0.2-0.3,0.5-0.6,0.7
			c-0.3,0.3-0.6,0.5-1.1,0.7s-1,0.3-1.7,0.3c-0.6,0-1.2-0.1-1.8-0.4s-1-0.6-1.5-1.1c-0.4-0.5-0.7-1-1-1.6s-0.4-1.2-0.4-1.9
			s0.1-1.3,0.4-1.9s0.6-1.1,1-1.5s0.9-0.8,1.5-1c0.6-0.3,1.1-0.4,1.8-0.4c0.6,0,1.1,0.1,1.5,0.2s0.8,0.4,1.1,0.6s0.6,0.5,0.8,0.8
			V5.1c0-0.3,0-0.5,0.2-0.6c0.1-0.1,0.4-0.2,0.7-0.2s0.4,0,0.5,0.1S839,4.8,839,5c0,0.1,0.1,0.3,0.1,0.5v7.7c0,0.2,0,0.4-0.1,0.5
			s-0.1,0.3-0.2,0.3S838.5,14.2,838.2,14.2z M834.4,12.5c0.5,0,1-0.1,1.5-0.4c0.4-0.3,0.8-0.7,1.1-1.1c0.3-0.5,0.4-1,0.4-1.6
			s-0.1-1.2-0.4-1.6c-0.3-0.5-0.6-0.8-1.1-1.1c-0.4-0.3-0.9-0.4-1.5-0.4s-1.2,0.1-1.6,0.4c-0.5,0.3-0.8,0.7-1.1,1.2s-0.4,1-0.4,1.6
			s0.1,1.1,0.4,1.6c0.3,0.5,0.6,0.8,1.1,1.1C833.2,12.4,833.7,12.5,834.4,12.5z"/>
		<path class="st6" d="M841.8,14.2c-0.3,0-0.5-0.1-0.6-0.2c-0.2-0.1-0.2-0.4-0.2-0.6c0-0.1,0-0.3,0.1-0.4c0-0.1,0.1-0.2,0.2-0.3
			l5.9-6.4h-4.8c-0.2,0-0.3,0-0.5,0c-0.1,0-0.2-0.1-0.3-0.2s-0.1-0.3-0.1-0.6s0-0.5,0.1-0.6s0.2-0.2,0.3-0.2s0.3-0.1,0.5-0.1h6.6
			c0.3,0,0.5,0.1,0.7,0.2c0.1,0.1,0.2,0.4,0.2,0.6c0,0.1,0,0.3-0.1,0.4c0,0.1-0.1,0.2-0.2,0.3l-5.9,6.4h5.5c0.2,0,0.3,0,0.5,0.1
			c0.1,0,0.2,0.1,0.3,0.3c0.1,0.1,0.1,0.3,0.1,0.6s0,0.4-0.1,0.6c-0.1,0.1-0.2,0.2-0.3,0.2s-0.3,0-0.5,0h-7.4V14.2z"/>
		<path class="st6" d="M857.2,4.7h1.9h2.8c0.2,0,0.3,0,0.5,0c0.1,0,0.2,0.1,0.3,0.2s0.1,0.3,0.1,0.6s0,0.4-0.1,0.6
			c-0.1,0.1-0.2,0.2-0.3,0.2s-0.3,0.1-0.5,0.1h-2.7h-2c-0.3,0-0.5-0.1-0.6-0.2s-0.1-0.4-0.1-0.7s0.1-0.5,0.2-0.6
			C856.8,4.8,857,4.7,857.2,4.7z M861.7,14.2c-0.6,0-1.2-0.1-1.6-0.2c-0.4-0.1-0.8-0.3-1.1-0.6s-0.5-0.6-0.6-1s-0.2-0.9-0.2-1.5V2.1
			c0-0.2,0-0.3,0.1-0.5c0-0.1,0.1-0.2,0.2-0.3s0.3-0.1,0.6-0.1s0.4,0,0.6,0.1c0.1,0.1,0.2,0.2,0.3,0.3c0,0.1,0.1,0.3,0.1,0.5V11
			c0,0.3,0,0.6,0.1,0.8s0.2,0.4,0.3,0.5s0.3,0.2,0.5,0.2s0.5,0,0.8,0c0.2,0,0.4,0,0.5,0.1c0.1,0,0.2,0.1,0.3,0.2s0.1,0.3,0.1,0.5
			c0,0.3,0,0.4-0.1,0.6c-0.1,0.1-0.2,0.2-0.3,0.2C862.1,14.2,861.9,14.2,861.7,14.2z"/>
		<path class="st6" d="M868.5,14.2c-0.6,0-1.1-0.1-1.6-0.3s-0.9-0.5-1.3-0.9s-0.7-0.9-0.9-1.4s-0.3-1.2-0.3-1.9V5.4
			c0-0.2,0-0.3,0.1-0.5c0-0.1,0.1-0.2,0.2-0.3s0.3-0.1,0.6-0.1s0.4,0,0.6,0.1c0.1,0.1,0.2,0.2,0.2,0.3s0.1,0.3,0.1,0.5v4.3
			c0,0.5,0.1,1,0.3,1.5c0.2,0.4,0.5,0.7,0.8,1c0.4,0.2,0.8,0.3,1.4,0.3c0.6,0,1-0.1,1.5-0.3c0.4-0.2,0.7-0.5,0.9-1s0.3-0.9,0.3-1.5
			V5.3c0-0.2,0-0.3,0.1-0.5c0-0.1,0.1-0.2,0.2-0.3s0.3-0.1,0.6-0.1s0.4,0,0.6,0.1c0.1,0.1,0.2,0.2,0.2,0.3s0.1,0.3,0.1,0.5v7.9
			c0,0.2,0,0.3-0.1,0.4s-0.1,0.2-0.2,0.3c-0.1,0.1-0.3,0.1-0.6,0.1c-0.2,0-0.3,0-0.5-0.1s-0.2-0.1-0.2-0.2c-0.1-0.1-0.1-0.1-0.1-0.2
			s0-0.2,0-0.3l0.1-0.9c-0.1,0.2-0.3,0.3-0.5,0.5s-0.4,0.4-0.6,0.5c-0.2,0.2-0.5,0.3-0.8,0.4C869.3,14.2,868.9,14.2,868.5,14.2z"/>
		<path class="st6" d="M881.4,18.1c-0.3,0-0.4,0-0.6-0.1s-0.2-0.2-0.3-0.3c0-0.1-0.1-0.3-0.1-0.5V5.4c0-0.2,0-0.3,0.1-0.5
			c0-0.1,0.1-0.2,0.2-0.3c0.1-0.1,0.3-0.1,0.6-0.1s0.5,0,0.7,0.1s0.2,0.3,0.2,0.5v12.1c0,0.2,0,0.4,0,0.5S882.1,18,882,18
			S881.6,18.1,881.4,18.1z M885.5,14.1c-0.7,0-1.2-0.1-1.8-0.4s-1-0.6-1.4-1s-0.7-0.9-0.9-1.5s-0.3-1.2-0.3-1.9s0.1-1.3,0.3-1.9
			s0.5-1.1,0.9-1.5s0.8-0.8,1.4-1s1.1-0.3,1.8-0.3c0.6,0,1.2,0.1,1.7,0.4s1,0.6,1.4,1s0.7,1,1,1.6c0.2,0.6,0.4,1.2,0.4,1.9
			s-0.1,1.3-0.4,1.9c-0.2,0.6-0.6,1.1-1,1.5s-0.9,0.8-1.4,1C886.7,14,886.1,14.1,885.5,14.1z M885.3,12.5c0.6,0,1.1-0.1,1.5-0.4
			s0.8-0.7,1.1-1.1c0.3-0.5,0.4-1,0.4-1.6s-0.1-1.2-0.4-1.6c-0.3-0.5-0.6-0.8-1.1-1.1c-0.4-0.3-1-0.4-1.5-0.4
			c-0.6,0-1.1,0.1-1.5,0.4s-0.8,0.6-1.1,1.1s-0.4,1-0.4,1.6s0.1,1.2,0.4,1.6c0.3,0.5,0.6,0.9,1.1,1.1S884.7,12.5,885.3,12.5z"/>
		<path class="st6" d="M900.3,14.2c-0.3,0-0.5-0.1-0.6-0.2s-0.2-0.3-0.2-0.6l0.1-1c-0.1,0.2-0.3,0.5-0.6,0.7
			c-0.3,0.3-0.6,0.5-1.1,0.7s-1,0.3-1.7,0.3c-0.6,0-1.2-0.1-1.8-0.4s-1-0.6-1.5-1.1c-0.4-0.5-0.7-1-1-1.6s-0.4-1.2-0.4-1.9
			s0.1-1.3,0.4-1.9s0.6-1.1,1-1.5s0.9-0.8,1.5-1c0.6-0.3,1.1-0.4,1.8-0.4c0.6,0,1.1,0.1,1.5,0.2s0.8,0.4,1.1,0.6s0.6,0.5,0.8,0.8
			V5.1c0-0.3,0-0.5,0.2-0.6c0.1-0.1,0.4-0.2,0.7-0.2s0.4,0,0.5,0.1s0.2,0.2,0.2,0.3s0.1,0.3,0.1,0.5v7.7c0,0.2,0,0.4-0.1,0.5
			s-0.1,0.3-0.2,0.3S900.6,14.2,900.3,14.2z M896.5,12.5c0.5,0,1-0.1,1.5-0.4c0.4-0.3,0.8-0.7,1.1-1.1c0.3-0.5,0.4-1,0.4-1.6
			s-0.1-1.2-0.4-1.6c-0.3-0.5-0.6-0.8-1.1-1.1c-0.4-0.3-0.9-0.4-1.5-0.4s-1.2,0.1-1.6,0.4c-0.5,0.3-0.8,0.7-1.1,1.2s-0.4,1-0.4,1.6
			s0.1,1.1,0.4,1.6c0.3,0.5,0.6,0.8,1.1,1.1C895.3,12.4,895.9,12.5,896.5,12.5z"/>
		<path class="st6" d="M904.5,14.2c-0.3,0-0.4,0-0.6-0.1s-0.2-0.2-0.2-0.3s0-0.3,0-0.5V5.4c0-0.2,0-0.4,0.1-0.5
			c0-0.1,0.1-0.2,0.2-0.3c0.1-0.1,0.3-0.1,0.6-0.1c0.2,0,0.4,0,0.5,0.1s0.2,0.1,0.3,0.3c0,0.1,0.1,0.2,0.1,0.4l-0.1,0.6
			c0.1-0.2,0.2-0.3,0.3-0.5s0.3-0.3,0.5-0.5c0.2-0.1,0.4-0.3,0.7-0.4s0.6-0.1,1-0.1c0.2,0,0.4,0,0.6,0c0.2,0,0.4,0.1,0.5,0.2
			c0.2,0.1,0.3,0.1,0.4,0.2c0.1,0.1,0.2,0.2,0.3,0.3s0.1,0.2,0.1,0.4c0,0.3-0.1,0.5-0.3,0.8c-0.2,0.2-0.4,0.3-0.6,0.3
			c-0.2,0-0.3,0-0.4-0.1c-0.1,0-0.2-0.1-0.2-0.1c-0.1-0.1-0.2-0.1-0.3-0.2c-0.1,0-0.3-0.1-0.6-0.1c-0.2,0-0.4,0-0.6,0.1
			c-0.2,0.1-0.4,0.2-0.6,0.4c-0.2,0.2-0.4,0.3-0.5,0.6c-0.1,0.2-0.2,0.5-0.2,0.8v5.4c0,0.2,0,0.3-0.1,0.5c0,0.1-0.1,0.2-0.2,0.3
			C904.9,14.2,904.7,14.2,904.5,14.2z"/>
		<path class="st6" d="M911.8,4.7h1.9h2.8c0.2,0,0.3,0,0.5,0c0.1,0,0.2,0.1,0.3,0.2s0.1,0.3,0.1,0.6s0,0.4-0.1,0.6
			c-0.1,0.1-0.2,0.2-0.3,0.2s-0.3,0.1-0.5,0.1h-2.7h-2c-0.3,0-0.5-0.1-0.6-0.2S911,5.8,911,5.5s0.1-0.5,0.2-0.6
			C911.3,4.8,911.5,4.7,911.8,4.7z M916.3,14.2c-0.6,0-1.2-0.1-1.6-0.2c-0.4-0.1-0.8-0.3-1.1-0.6s-0.5-0.6-0.6-1s-0.2-0.9-0.2-1.5
			V2.1c0-0.2,0-0.3,0.1-0.5c0-0.1,0.1-0.2,0.2-0.3c0.1-0.1,0.3-0.1,0.6-0.1s0.4,0,0.6,0.1c0.1,0.1,0.2,0.2,0.3,0.3
			c0,0.1,0.1,0.3,0.1,0.5V11c0,0.3,0,0.6,0.1,0.8s0.2,0.4,0.3,0.5s0.3,0.2,0.5,0.2s0.5,0,0.8,0c0.2,0,0.4,0,0.5,0.1
			c0.1,0,0.2,0.1,0.3,0.2s0.1,0.3,0.1,0.5c0,0.3,0,0.4-0.1,0.6c-0.1,0.1-0.2,0.2-0.3,0.2C916.6,14.2,916.4,14.2,916.3,14.2z"/>
		<path class="st6" d="M923.8,14.3c-0.8,0-1.5-0.1-2.1-0.4s-1.2-0.6-1.6-1.1c-0.4-0.5-0.8-1-1-1.6s-0.3-1.2-0.3-1.9
			c0-0.9,0.2-1.7,0.6-2.5c0.4-0.7,1-1.3,1.8-1.7s1.6-0.6,2.6-0.6c0.7,0,1.3,0.1,1.8,0.3s1,0.5,1.4,0.8s0.7,0.7,0.9,1.2
			c0.2,0.4,0.3,0.9,0.3,1.3c0,0.7-0.2,1.2-0.5,1.4s-0.7,0.4-1.2,0.4h-5.8c0,0.6,0.1,1.1,0.5,1.5c0.3,0.4,0.7,0.7,1.2,1
			s1,0.3,1.5,0.3c0.4,0,0.7,0,1-0.1s0.5-0.1,0.7-0.2s0.4-0.1,0.5-0.2s0.3-0.1,0.4-0.2c0.1-0.1,0.2-0.1,0.3-0.1s0.2,0,0.3,0
			s0.2,0.1,0.3,0.3c0.1,0.1,0.1,0.2,0.2,0.3c0,0.1,0,0.2,0,0.3c0,0.2-0.2,0.4-0.5,0.6s-0.8,0.4-1.3,0.6
			C925.2,14.2,924.5,14.3,923.8,14.3z M920.6,8.7h5c0.3,0,0.4,0,0.6-0.1s0.2-0.2,0.2-0.5c0-0.4-0.1-0.7-0.3-1s-0.5-0.5-0.9-0.7
			s-0.8-0.3-1.3-0.3c-0.6,0-1.1,0.1-1.6,0.4c-0.5,0.2-0.9,0.5-1.1,1C920.7,7.8,920.6,8.2,920.6,8.7z"/>
		<path class="st6" d="M931.1,14.2c-0.4,0-0.7-0.1-0.8-0.2c-0.1-0.2-0.2-0.4-0.2-0.8c0-0.2,0-0.4,0.1-0.6s0.2-0.3,0.3-0.4
			s0.4-0.1,0.7-0.1c0.4,0,0.7,0.1,0.9,0.2c0.1,0.2,0.2,0.4,0.2,0.8c0,0.2,0,0.4-0.1,0.6s-0.2,0.3-0.3,0.4
			C931.6,14.2,931.4,14.2,931.1,14.2z M931.1,10.3c-0.3,0-0.5,0-0.6-0.1s-0.2-0.2-0.2-0.3s-0.1-0.3-0.1-0.5V1.1c0-0.2,0-0.3,0.1-0.5
			c0-0.1,0.1-0.2,0.2-0.3c0.1-0.1,0.3-0.1,0.6-0.1s0.5,0,0.6,0.1s0.2,0.2,0.2,0.3s0.1,0.3,0.1,0.5v8.3c0,0.2,0,0.3-0.1,0.5
			c0,0.1-0.1,0.2-0.2,0.3S931.4,10.3,931.1,10.3z"/>
	</g>
	<line id="Line-2" class="st7" x1="117.5" y1="23.5" x2="117.5" y2="40.5"/>
	<line id="Line-2-Copy" class="st7" x1="374" y1="23.5" x2="374" y2="40.5"/>
	<line id="Line-2-Copy-2" class="st7" x1="627" y1="23.5" x2="627" y2="40.5"/>
	<line id="Line-2-Copy-3" class="st7" x1="868" y1="23.5" x2="868" y2="40.5"/>
	<path id="Rectangle_00000103974825227158089350000002033867204083647635_" class="st8" d="M9,41h975c4.4,0,8,3.6,8,8v4
		c0,4.4-3.6,8-8,8H9c-4.4,0-8-3.6-8-8v-4C1,44.6,4.6,41,9,41z"/>
</g>
<g>
	<path class="st6" d="M492,8.6c0.3,0,0.4,0,0.6,0.1c0.1,0.1,0.2,0.2,0.2,0.3s0,0.3,0,0.4v1.9c0,0.3-0.1,0.5-0.2,0.6
		c-0.1,0.2-0.3,0.3-0.6,0.4c-0.2,0.1-0.5,0.2-0.8,0.3s-0.5,0.3-0.8,0.5c-0.2,0.2-0.4,0.4-0.6,0.7c-0.1,0.3-0.2,0.7-0.2,1.2
		c0,0.7,0.2,1.3,0.6,1.7c0.4,0.4,1,0.6,1.8,0.6c0.4,0,0.7-0.1,1-0.2s0.6-0.3,0.8-0.5c0.2-0.2,0.4-0.5,0.5-0.8
		c0.1-0.2,0.1-0.3,0.2-0.4c0.1-0.1,0.2-0.1,0.3-0.2c0.1,0,0.3,0,0.5,0.1s0.3,0.1,0.4,0.2c0.1,0.1,0.1,0.2,0.2,0.3
		c0,0.1,0,0.3-0.1,0.4c-0.1,0.2-0.1,0.5-0.3,0.7c-0.1,0.2-0.3,0.5-0.5,0.7s-0.5,0.4-0.8,0.6s-0.6,0.3-1,0.4s-0.8,0.1-1.2,0.1
		c-0.8,0-1.6-0.2-2.2-0.5s-1.1-0.8-1.4-1.3c-0.3-0.6-0.5-1.3-0.5-2c0-0.4,0.1-0.8,0.2-1.2s0.3-0.7,0.5-1s0.4-0.6,0.7-0.8
		c0.3-0.2,0.6-0.4,0.9-0.6c0.3-0.2,0.7-0.3,1-0.4l-0.1,0.2V9.4c0-0.2,0-0.3,0.1-0.4c0-0.1,0.1-0.2,0.2-0.3
		C491.5,8.6,491.7,8.6,492,8.6z M491.9,4.6c0.4,0,0.7,0.1,0.9,0.2c0.1,0.2,0.2,0.4,0.2,0.8c0,0.2,0,0.3,0,0.5s-0.1,0.3-0.3,0.4
		c-0.1,0.1-0.4,0.2-0.8,0.2c-0.5,0-0.7-0.1-0.9-0.3c-0.1-0.2-0.2-0.4-0.2-0.8c0-0.2,0-0.3,0-0.5s0.1-0.3,0.3-0.4
		C491.3,4.7,491.6,4.6,491.9,4.6z"/>
	<path class="st6" d="M511.8,12.9c0.3,0.2,0.4,0.4,0.5,0.6c0,0.2,0,0.4-0.2,0.7c-0.1,0.2-0.3,0.3-0.4,0.4c-0.1,0.1-0.2,0.1-0.4,0.1
		c-0.1,0-0.3-0.1-0.5-0.2l-2.2-1.5c-0.6,0.6-1.3,1.1-2.1,1.4c-0.8,0.4-1.6,0.5-2.5,0.5s-1.8-0.2-2.7-0.5c-0.8-0.4-1.6-0.9-2.2-1.5
		s-1.1-1.4-1.5-2.2s-0.5-1.8-0.5-2.7c0-1,0.2-1.9,0.5-2.8s0.8-1.6,1.5-2.3c0.6-0.7,1.3-1.2,2.1-1.5c0.8-0.4,1.7-0.6,2.6-0.6
		c1,0,1.9,0.2,2.7,0.5c0.8,0.4,1.6,0.9,2.2,1.5s1.1,1.4,1.5,2.3s0.5,1.8,0.5,2.8c0,0.7-0.1,1.3-0.3,2c-0.2,0.6-0.4,1.2-0.8,1.7
		L511.8,12.9z M503.9,13c0.7,0,1.3-0.1,2-0.4c0.6-0.3,1.1-0.6,1.6-1.1s0.8-1.1,1.1-1.7c0.3-0.6,0.4-1.3,0.4-2.1c0-0.7-0.1-1.4-0.4-2
		S508,4.5,507.5,4s-1-0.9-1.6-1.1c-0.6-0.3-1.2-0.4-1.9-0.4c-0.7,0-1.3,0.1-1.9,0.4S501,3.6,500.5,4s-0.8,1-1.1,1.7
		c-0.3,0.6-0.4,1.3-0.4,2s0.1,1.4,0.4,2s0.6,1.2,1.1,1.7s1,0.9,1.6,1.1C502.6,12.9,503.3,13,503.9,13z"/>
	<path class="st6" d="M518,14.7c-0.6,0-1.1-0.1-1.6-0.3s-0.9-0.5-1.3-0.9c-0.4-0.4-0.7-0.9-0.9-1.4s-0.3-1.2-0.3-1.9V5.9
		c0-0.2,0-0.3,0.1-0.5c0-0.1,0.1-0.2,0.2-0.3c0.1-0.1,0.3-0.1,0.6-0.1s0.4,0,0.6,0.1s0.2,0.2,0.2,0.3s0.1,0.3,0.1,0.5v4.3
		c0,0.5,0.1,1,0.3,1.5s0.5,0.7,0.9,1s0.8,0.3,1.4,0.3c0.6,0,1-0.1,1.5-0.3c0.4-0.2,0.7-0.6,0.9-1s0.3-0.9,0.3-1.5V5.9
		c0-0.2,0-0.3,0.1-0.5c0-0.1,0.1-0.2,0.2-0.3c0.1-0.1,0.3-0.1,0.6-0.1s0.4,0,0.6,0.1s0.2,0.2,0.2,0.3s0.1,0.3,0.1,0.5v7.9
		c0,0.2,0,0.3-0.1,0.4c0,0.1-0.1,0.2-0.2,0.3c-0.1,0.1-0.3,0.1-0.6,0.1c-0.2,0-0.3,0-0.5-0.1s-0.2-0.1-0.2-0.2s-0.1-0.1-0.1-0.2
		c0-0.1,0-0.2,0-0.3l0.1-0.9c-0.1,0.2-0.3,0.3-0.5,0.5s-0.4,0.4-0.7,0.5c-0.2,0.2-0.5,0.3-0.8,0.4S518.3,14.7,518,14.7z"/>
	<path class="st6" d="M526,2.6c-0.3,0-0.5,0-0.7-0.1c-0.1-0.1-0.2-0.2-0.3-0.4c0-0.2-0.1-0.3-0.1-0.6s0-0.4,0.1-0.6s0.2-0.3,0.3-0.3
		c0.1-0.1,0.4-0.1,0.7-0.1s0.5,0,0.6,0.1s0.2,0.2,0.3,0.4c0,0.2,0.1,0.3,0.1,0.6s0,0.4-0.1,0.5c0,0.2-0.1,0.3-0.3,0.4
		C526.5,2.6,526.3,2.6,526,2.6z M526,14.7c-0.3,0-0.4,0-0.6-0.1s-0.2-0.2-0.2-0.3s-0.1-0.3-0.1-0.5V5.9c0-0.2,0-0.3,0.1-0.5
		c0-0.1,0.1-0.2,0.2-0.3S525.7,5,526,5s0.4,0,0.6,0.1c0.1,0.1,0.2,0.2,0.2,0.3s0.1,0.3,0.1,0.5v7.9c0,0.2,0,0.3-0.1,0.5
		c0,0.1-0.1,0.2-0.2,0.3C526.4,14.6,526.2,14.7,526,14.7z"/>
	<path class="st6" d="M534,14.8c-0.8,0-1.5-0.1-2.1-0.4s-1.2-0.6-1.6-1.1s-0.8-1-1-1.6s-0.3-1.2-0.3-1.9c0-0.9,0.2-1.7,0.6-2.5
		c0.4-0.7,1-1.3,1.8-1.7S533,5,534,5c0.7,0,1.3,0.1,1.8,0.3c0.5,0.2,1,0.5,1.4,0.8s0.7,0.7,0.9,1.2c0.2,0.4,0.3,0.9,0.3,1.3
		c0,0.7-0.2,1.2-0.5,1.4s-0.7,0.4-1.2,0.4h-5.8c0,0.6,0.1,1.1,0.5,1.5s0.7,0.7,1.2,1c0.5,0.2,1,0.3,1.5,0.3c0.4,0,0.7,0,1-0.1
		s0.5-0.1,0.7-0.2c0.2-0.1,0.4-0.1,0.5-0.2c0.1-0.1,0.3-0.1,0.4-0.2s0.2-0.1,0.3-0.1s0.2,0,0.3,0s0.2,0.1,0.3,0.3
		c0.1,0.1,0.1,0.2,0.2,0.3c0,0.1,0,0.2,0,0.3c0,0.2-0.2,0.4-0.5,0.6c-0.3,0.2-0.8,0.4-1.3,0.6S534.7,14.8,534,14.8z M530.8,9.2h5
		c0.3,0,0.4,0,0.6-0.1s0.2-0.2,0.2-0.5c0-0.4-0.1-0.7-0.3-1s-0.5-0.5-0.9-0.7s-0.8-0.3-1.3-0.3c-0.6,0-1.1,0.1-1.6,0.4
		s-0.9,0.5-1.2,0.9C530.9,8.2,530.8,8.7,530.8,9.2z M533.1,3.7c-0.2,0-0.4,0-0.5-0.1s-0.2-0.2-0.3-0.5s-0.1-0.5,0-0.6
		c0.1-0.1,0.2-0.3,0.5-0.3l3.2-1.1c0.2,0,0.4,0,0.5,0.1s0.2,0.3,0.3,0.5c0.1,0.3,0.1,0.5,0,0.6s-0.2,0.3-0.5,0.4L533.1,3.7z"/>
	<path class="st6" d="M541.1,14.7c-0.3,0-0.4,0-0.6-0.1c-0.1-0.1-0.2-0.2-0.2-0.3s0-0.3,0-0.5v-8c0-0.2,0-0.3,0.1-0.4
		s0.1-0.2,0.2-0.3s0.3-0.1,0.6-0.1c0.2,0,0.4,0,0.5,0.1c0.1,0,0.2,0.1,0.2,0.2s0.1,0.2,0.1,0.3c0,0.1,0,0.2,0,0.3v0.9
		c0.1-0.2,0.3-0.4,0.5-0.7c0.2-0.2,0.4-0.4,0.7-0.6s0.6-0.3,0.9-0.4s0.7-0.1,1-0.1c0.6,0,1.1,0.1,1.6,0.3c0.5,0.2,0.9,0.5,1.3,0.9
		c0.4,0.4,0.6,0.9,0.8,1.4c0.2,0.5,0.3,1.2,0.3,1.9v4.3c0,0.2,0,0.3,0,0.5c0,0.1-0.1,0.2-0.2,0.3c-0.1,0.1-0.3,0.1-0.6,0.1
		s-0.5,0-0.6-0.1s-0.2-0.2-0.2-0.3s-0.1-0.3-0.1-0.5V9.4c0-0.6-0.1-1-0.3-1.5c-0.2-0.4-0.5-0.7-0.8-1c-0.4-0.2-0.8-0.3-1.4-0.3
		c-0.5,0-1,0.1-1.4,0.3c-0.4,0.2-0.7,0.6-0.9,1s-0.3,0.9-0.3,1.5v4.4c0,0.2,0,0.3-0.1,0.5c0,0.1-0.1,0.2-0.2,0.3
		C541.6,14.6,541.4,14.7,541.1,14.7z"/>
	<path class="st6" d="M556.6,5.2h1.9h2.8c0.2,0,0.3,0,0.5,0c0.1,0,0.2,0.1,0.3,0.2s0.1,0.3,0.1,0.6s0,0.4-0.1,0.6
		c-0.1,0.1-0.2,0.2-0.3,0.2s-0.3,0.1-0.5,0.1h-2.7h-2c-0.3,0-0.5-0.1-0.6-0.2s-0.2-0.4-0.2-0.7c0-0.3,0.1-0.5,0.2-0.6
		S556.3,5.2,556.6,5.2z M561,14.7c-0.6,0-1.2-0.1-1.6-0.2c-0.4-0.1-0.8-0.3-1.1-0.6s-0.5-0.6-0.6-1s-0.2-0.9-0.2-1.5V2.6
		c0-0.2,0-0.3,0.1-0.5s0.1-0.2,0.2-0.3s0.3-0.1,0.6-0.1s0.4,0,0.6,0.1c0.1,0.1,0.2,0.2,0.3,0.3c0,0.1,0.1,0.3,0.1,0.5v8.9
		c0,0.3,0,0.6,0.1,0.8s0.2,0.4,0.3,0.5s0.3,0.2,0.5,0.2s0.5,0,0.8,0c0.2,0,0.4,0,0.5,0.1c0.1,0,0.2,0.1,0.3,0.2
		c0.1,0.1,0.1,0.3,0.1,0.5c0,0.3,0,0.4-0.1,0.6c-0.1,0.1-0.2,0.2-0.3,0.2S561.2,14.7,561,14.7z"/>
	<path class="st6" d="M565,2.6c-0.3,0-0.5,0-0.7-0.1c-0.1-0.1-0.2-0.2-0.3-0.4c0-0.2-0.1-0.3-0.1-0.6s0-0.4,0.1-0.6s0.2-0.3,0.3-0.3
		c0.1-0.1,0.4-0.1,0.7-0.1s0.5,0,0.6,0.1s0.2,0.2,0.3,0.4c0,0.2,0.1,0.3,0.1,0.6s0,0.4-0.1,0.5c0,0.2-0.1,0.3-0.3,0.4
		C565.5,2.6,565.3,2.6,565,2.6z M565,14.7c-0.3,0-0.4,0-0.6-0.1s-0.2-0.2-0.2-0.3s-0.1-0.3-0.1-0.5V5.9c0-0.2,0-0.3,0.1-0.5
		c0-0.1,0.1-0.2,0.2-0.3S564.7,5,565,5s0.4,0,0.6,0.1c0.1,0.1,0.2,0.2,0.2,0.3s0.1,0.3,0.1,0.5v7.9c0,0.2,0,0.3-0.1,0.5
		c0,0.1-0.1,0.2-0.2,0.3C565.4,14.6,565.2,14.7,565,14.7z"/>
	<path class="st6" d="M573,14.8c-0.8,0-1.5-0.1-2.1-0.4s-1.2-0.6-1.6-1.1s-0.8-1-1-1.6s-0.3-1.2-0.3-1.9c0-0.9,0.2-1.7,0.6-2.5
		c0.4-0.7,1-1.3,1.8-1.7S572,5,573,5c0.7,0,1.3,0.1,1.8,0.3c0.5,0.2,1,0.5,1.4,0.8s0.7,0.7,0.9,1.2c0.2,0.4,0.3,0.9,0.3,1.3
		c0,0.7-0.2,1.2-0.5,1.4s-0.7,0.4-1.2,0.4h-5.8c0,0.6,0.1,1.1,0.5,1.5s0.7,0.7,1.2,1c0.5,0.2,1,0.3,1.5,0.3c0.4,0,0.7,0,1-0.1
		s0.5-0.1,0.7-0.2c0.2-0.1,0.4-0.1,0.5-0.2c0.1-0.1,0.3-0.1,0.4-0.2s0.2-0.1,0.3-0.1s0.2,0,0.3,0s0.2,0.1,0.3,0.3
		c0.1,0.1,0.1,0.2,0.2,0.3c0,0.1,0,0.2,0,0.3c0,0.2-0.2,0.4-0.5,0.6c-0.3,0.2-0.8,0.4-1.3,0.6S573.8,14.8,573,14.8z M569.8,9.2h5
		c0.3,0,0.4,0,0.6-0.1s0.2-0.2,0.2-0.5c0-0.4-0.1-0.7-0.3-1s-0.5-0.5-0.9-0.7s-0.8-0.3-1.3-0.3c-0.6,0-1.1,0.1-1.6,0.4
		s-0.9,0.5-1.2,0.9C570,8.2,569.8,8.7,569.8,9.2z"/>
	<path class="st6" d="M580.2,14.7c-0.3,0-0.4,0-0.6-0.1c-0.1-0.1-0.2-0.2-0.2-0.3s0-0.3,0-0.5v-8c0-0.2,0-0.3,0.1-0.4
		s0.1-0.2,0.2-0.3S580,5,580.3,5c0.2,0,0.4,0,0.5,0.1c0.1,0,0.2,0.1,0.2,0.2s0.1,0.2,0.1,0.3c0,0.1,0,0.2,0,0.3v0.9
		c0.1-0.2,0.3-0.4,0.5-0.7c0.2-0.2,0.4-0.4,0.7-0.6s0.6-0.3,0.9-0.4s0.7-0.1,1-0.1c0.6,0,1.1,0.1,1.6,0.3c0.5,0.2,0.9,0.5,1.3,0.9
		c0.4,0.4,0.6,0.9,0.8,1.4s0.3,1.2,0.3,1.9v4.3c0,0.2,0,0.3,0,0.5c0,0.1-0.1,0.2-0.2,0.3c-0.1,0.1-0.3,0.1-0.6,0.1s-0.5,0-0.6-0.1
		s-0.2-0.2-0.2-0.3s-0.1-0.3-0.1-0.5V9.4c0-0.6-0.1-1-0.3-1.5c-0.2-0.4-0.5-0.7-0.8-1c-0.4-0.2-0.8-0.3-1.4-0.3
		c-0.5,0-1,0.1-1.4,0.3c-0.4,0.2-0.7,0.6-0.9,1s-0.3,0.9-0.3,1.5v4.4c0,0.2,0,0.3-0.1,0.5c0,0.1-0.1,0.2-0.2,0.3
		C580.6,14.6,580.4,14.7,580.2,14.7z"/>
	<path class="st6" d="M595,14.8c-0.8,0-1.5-0.1-2.1-0.4s-1.2-0.6-1.6-1.1s-0.8-1-1-1.6s-0.3-1.2-0.3-1.9c0-0.9,0.2-1.7,0.6-2.5
		c0.4-0.7,1-1.3,1.8-1.7S594,5,595,5c0.7,0,1.3,0.1,1.8,0.3c0.5,0.2,1,0.5,1.4,0.8s0.7,0.7,0.9,1.2c0.2,0.4,0.3,0.9,0.3,1.3
		c0,0.7-0.2,1.2-0.5,1.4s-0.7,0.4-1.2,0.4h-5.8c0,0.6,0.1,1.1,0.5,1.5s0.7,0.7,1.2,1c0.5,0.2,1,0.3,1.5,0.3c0.4,0,0.7,0,1-0.1
		s0.5-0.1,0.7-0.2c0.2-0.1,0.4-0.1,0.5-0.2c0.1-0.1,0.3-0.1,0.4-0.2s0.2-0.1,0.3-0.1s0.2,0,0.3,0s0.2,0.1,0.3,0.3
		c0.1,0.1,0.1,0.2,0.2,0.3c0,0.1,0,0.2,0,0.3c0,0.2-0.2,0.4-0.5,0.6c-0.3,0.2-0.8,0.4-1.3,0.6S595.7,14.8,595,14.8z M591.8,9.2h5
		c0.3,0,0.4,0,0.6-0.1s0.2-0.2,0.2-0.5c0-0.4-0.1-0.7-0.3-1s-0.5-0.5-0.9-0.7s-0.8-0.3-1.3-0.3c-0.6,0-1.1,0.1-1.6,0.4
		s-0.9,0.5-1.2,0.9C591.9,8.2,591.8,8.7,591.8,9.2z"/>
	<path class="st6" d="M609.3,14.7c-0.4,0-0.8,0-1.1-0.1s-0.6-0.2-0.9-0.3c-0.3-0.2-0.5-0.4-0.6-0.6s-0.3-0.6-0.4-0.9
		c-0.1-0.4-0.1-0.8-0.1-1.3v-10c0-0.2,0-0.4,0-0.5s0.1-0.2,0.2-0.3c0.1-0.1,0.3-0.1,0.6-0.1s0.5,0,0.6,0.1s0.2,0.2,0.2,0.3
		s0.1,0.3,0.1,0.5v10c0,0.3,0,0.5,0.1,0.7s0.1,0.4,0.2,0.5s0.3,0.2,0.4,0.3c0.2,0.1,0.4,0.1,0.6,0.1c0.2,0,0.3,0,0.4,0.1
		s0.2,0.1,0.3,0.2c0.1,0.1,0.1,0.3,0.1,0.6s0,0.5-0.1,0.6s-0.2,0.2-0.3,0.2S609.5,14.7,609.3,14.7z"/>
	<path class="st6" d="M620.2,14.7c-0.3,0-0.5-0.1-0.6-0.2c-0.1-0.1-0.2-0.3-0.2-0.6l0.1-1c-0.1,0.2-0.3,0.5-0.6,0.7
		c-0.3,0.3-0.6,0.5-1.1,0.7s-1,0.3-1.7,0.3c-0.6,0-1.2-0.1-1.8-0.4c-0.6-0.3-1-0.6-1.5-1.1c-0.4-0.5-0.7-1-1-1.6
		c-0.2-0.6-0.4-1.2-0.4-1.9s0.1-1.3,0.4-1.8c0.2-0.6,0.6-1.1,1-1.5s0.9-0.8,1.5-1c0.6-0.3,1.1-0.4,1.8-0.4c0.6,0,1.1,0.1,1.5,0.2
		s0.8,0.4,1.1,0.6s0.6,0.5,0.8,0.8V5.7c0-0.3,0-0.5,0.2-0.6c0.1-0.1,0.4-0.2,0.7-0.2s0.4,0,0.6,0.1s0.2,0.2,0.2,0.3
		c0,0.1,0.1,0.3,0.1,0.5v7.7c0,0.2,0,0.4-0.1,0.5c0,0.1-0.1,0.3-0.2,0.3C620.6,14.6,620.4,14.7,620.2,14.7z M616.3,13
		c0.5,0,1-0.1,1.5-0.4c0.4-0.3,0.8-0.7,1.1-1.1s0.4-1,0.4-1.6s-0.1-1.2-0.4-1.6c-0.3-0.5-0.6-0.8-1.1-1.1c-0.4-0.3-0.9-0.4-1.5-0.4
		s-1.2,0.1-1.6,0.4c-0.5,0.3-0.8,0.7-1.1,1.2c-0.3,0.5-0.4,1-0.4,1.6s0.1,1.1,0.4,1.6s0.6,0.8,1.1,1.1C615.1,12.9,615.7,13,616.3,13
		z"/>
	<path class="st6" d="M629.4,14.7c-0.3,0-0.4,0-0.6-0.1c-0.1-0.1-0.2-0.2-0.2-0.3s0-0.3,0-0.5V5.9c0-0.2,0-0.4,0.1-0.5
		c0-0.1,0.1-0.2,0.2-0.3s0.3-0.1,0.6-0.1c0.2,0,0.4,0,0.5,0.1s0.2,0.1,0.3,0.3s0.1,0.2,0.1,0.4l-0.1,0.6c0.1-0.2,0.2-0.3,0.3-0.5
		s0.3-0.3,0.5-0.5c0.2-0.1,0.4-0.3,0.7-0.4s0.6-0.1,1-0.1c0.2,0,0.4,0,0.6,0.1c0.2,0,0.4,0.1,0.5,0.1c0.2,0.1,0.3,0.1,0.4,0.2
		c0.1,0.1,0.2,0.2,0.3,0.3c0.1,0.1,0.1,0.2,0.1,0.4c0,0.3-0.1,0.5-0.3,0.8C634.2,6.9,634,7,633.8,7s-0.3,0-0.4-0.1s-0.2-0.1-0.2-0.2
		c-0.1-0.1-0.2-0.1-0.3-0.1s-0.3-0.1-0.6-0.1c-0.2,0-0.4,0-0.6,0.1c-0.2,0.1-0.4,0.2-0.6,0.3c-0.2,0.2-0.4,0.4-0.5,0.6
		s-0.2,0.5-0.2,0.8v5.4c0,0.2,0,0.3-0.1,0.5c0,0.1-0.1,0.2-0.2,0.3C629.8,14.6,629.6,14.7,629.4,14.7z"/>
	<path class="st6" d="M641.2,14.8c-0.8,0-1.5-0.1-2.1-0.4s-1.2-0.6-1.6-1.1s-0.8-1-1-1.6s-0.3-1.2-0.3-1.9c0-0.9,0.2-1.7,0.6-2.5
		c0.4-0.7,1-1.3,1.8-1.7s1.6-0.6,2.6-0.6c0.7,0,1.3,0.1,1.8,0.3c0.5,0.2,1,0.5,1.4,0.8s0.7,0.7,0.9,1.2c0.2,0.4,0.3,0.9,0.3,1.3
		c0,0.7-0.2,1.2-0.5,1.4s-0.7,0.4-1.2,0.4H638c0,0.6,0.1,1.1,0.5,1.5s0.7,0.7,1.2,1c0.5,0.2,1,0.3,1.5,0.3c0.4,0,0.7,0,1-0.1
		s0.5-0.1,0.7-0.2c0.2-0.1,0.4-0.1,0.5-0.2c0.1-0.1,0.3-0.1,0.4-0.2s0.2-0.1,0.3-0.1s0.2,0,0.3,0s0.2,0.1,0.3,0.3
		c0.1,0.1,0.1,0.2,0.2,0.3c0,0.1,0,0.2,0,0.3c0,0.2-0.2,0.4-0.5,0.6c-0.3,0.2-0.8,0.4-1.3,0.6S641.9,14.8,641.2,14.8z M638,9.2h5
		c0.3,0,0.4,0,0.6-0.1s0.2-0.2,0.2-0.5c0-0.4-0.1-0.7-0.3-1s-0.5-0.5-0.9-0.7s-0.8-0.3-1.3-0.3c-0.6,0-1.1,0.1-1.6,0.4
		s-0.9,0.5-1.2,0.9C638.1,8.2,637.9,8.7,638,9.2z"/>
	<path class="st6" d="M650.6,14.8c-0.3,0-0.7,0-1-0.1s-0.7-0.2-1-0.3s-0.6-0.3-0.9-0.5c-0.2-0.2-0.4-0.4-0.6-0.6
		c-0.1-0.1-0.1-0.3-0.1-0.4c0-0.1,0-0.2,0.1-0.3s0.1-0.2,0.2-0.3c0.1-0.2,0.3-0.2,0.4-0.2c0.1,0,0.3,0.1,0.5,0.3
		c0.1,0.1,0.3,0.2,0.5,0.3s0.4,0.2,0.6,0.3c0.2,0.1,0.4,0.2,0.6,0.2c0.2,0.1,0.4,0.1,0.7,0.1c0.6,0,1.1-0.1,1.5-0.3s0.6-0.5,0.6-0.9
		c0-0.2,0-0.4-0.1-0.6c-0.1-0.2-0.2-0.3-0.4-0.4c-0.2-0.1-0.3-0.2-0.5-0.3s-0.4-0.2-0.7-0.2c-0.2-0.1-0.5-0.1-0.7-0.2
		c-0.4-0.1-0.7-0.2-1.1-0.3s-0.7-0.3-0.9-0.5c-0.3-0.2-0.5-0.4-0.7-0.7s-0.3-0.7-0.3-1.1c0-0.5,0.1-1,0.4-1.4
		c0.3-0.4,0.7-0.7,1.2-0.9c0.5-0.2,1.1-0.3,1.8-0.3c0.3,0,0.6,0,0.8,0.1s0.5,0.1,0.7,0.2s0.5,0.2,0.7,0.3c0.2,0.1,0.4,0.2,0.6,0.4
		c0.2,0.2,0.4,0.3,0.4,0.5s-0.1,0.4-0.2,0.6c-0.1,0.2-0.3,0.3-0.4,0.3c-0.1,0-0.3,0-0.4-0.1c-0.2-0.2-0.4-0.3-0.7-0.4
		c-0.2-0.1-0.5-0.2-0.7-0.3s-0.5-0.1-0.8-0.1s-0.6,0.1-0.9,0.1c-0.3,0.1-0.5,0.2-0.6,0.4c-0.1,0.2-0.2,0.4-0.2,0.6s0.1,0.4,0.2,0.5
		s0.3,0.2,0.4,0.3c0.2,0.1,0.4,0.2,0.6,0.2c0.2,0.1,0.5,0.1,0.8,0.2c0.4,0.1,0.8,0.2,1.2,0.3s0.8,0.3,1.1,0.5s0.6,0.5,0.8,0.8
		s0.3,0.8,0.3,1.4c0,0.9-0.3,1.6-1,2.1C652.7,14.5,651.8,14.8,650.6,14.8z"/>
	<path class="st6" d="M657.3,18.6c-0.3,0-0.4,0-0.6-0.1s-0.2-0.2-0.3-0.3c0-0.1-0.1-0.3-0.1-0.5V5.9c0-0.2,0-0.3,0.1-0.5
		s0.1-0.2,0.2-0.3C656.9,5,657,5,657.3,5s0.5,0,0.6,0.1s0.2,0.3,0.2,0.5v12.1c0,0.2,0,0.3,0,0.5s-0.1,0.2-0.2,0.3
		S657.6,18.6,657.3,18.6z M661.5,14.6c-0.7,0-1.2-0.1-1.8-0.4c-0.5-0.2-1-0.6-1.4-1s-0.7-0.9-0.9-1.5s-0.3-1.2-0.3-1.9
		s0.1-1.3,0.3-1.9s0.5-1.1,0.9-1.5s0.8-0.8,1.4-1c0.5-0.2,1.1-0.4,1.8-0.4c0.6,0,1.2,0.1,1.7,0.4c0.5,0.2,1,0.6,1.4,1s0.7,0.9,1,1.5
		s0.4,1.2,0.4,1.9s-0.1,1.3-0.4,1.9c-0.2,0.6-0.6,1.1-1,1.5s-0.9,0.8-1.4,1S662.1,14.6,661.5,14.6z M661.2,13c0.6,0,1.1-0.1,1.5-0.4
		c0.5-0.3,0.8-0.6,1.1-1.1s0.4-1,0.4-1.6s-0.1-1.2-0.4-1.6c-0.3-0.5-0.6-0.8-1.1-1.1c-0.4-0.3-1-0.4-1.5-0.4c-0.6,0-1.1,0.1-1.5,0.4
		s-0.8,0.6-1.1,1.1s-0.4,1-0.4,1.6s0.1,1.2,0.4,1.6s0.6,0.9,1.1,1.1C660.2,12.8,660.7,13,661.2,13z"/>
	<path class="st6" d="M672.4,14.8c-0.7,0-1.3-0.1-1.9-0.4c-0.6-0.3-1.1-0.6-1.6-1s-0.8-1-1.1-1.6s-0.4-1.3-0.4-2s0.1-1.3,0.4-1.9
		c0.3-0.6,0.6-1.1,1.1-1.6s1-0.8,1.6-1.1c0.6-0.3,1.2-0.4,1.9-0.4c0.9,0,1.8,0.2,2.5,0.6s1.3,1,1.8,1.8c0.4,0.7,0.7,1.6,0.7,2.5
		c0,0.7-0.1,1.4-0.4,2c-0.3,0.6-0.6,1.1-1.1,1.6s-1,0.8-1.6,1C673.7,14.7,673.1,14.8,672.4,14.8z M672.4,13.1c0.6,0,1.1-0.1,1.6-0.4
		c0.5-0.3,0.9-0.7,1.2-1.2s0.4-1.1,0.4-1.7c0-0.6-0.1-1.2-0.4-1.7S674.5,7.3,674,7s-1-0.4-1.6-0.4s-1.1,0.1-1.6,0.4
		s-0.9,0.7-1.1,1.1c-0.3,0.5-0.4,1-0.4,1.6s0.1,1.2,0.4,1.7c0.3,0.5,0.7,0.9,1.2,1.1C671.3,12.9,671.8,13.1,672.4,13.1z"/>
	<path class="st6" d="M680.1,14.7c-0.3,0-0.4,0-0.6-0.1c-0.1-0.1-0.2-0.2-0.2-0.3s0-0.3,0-0.5v-8c0-0.2,0-0.3,0.1-0.4
		s0.1-0.2,0.2-0.3s0.3-0.1,0.6-0.1c0.2,0,0.4,0,0.5,0.1c0.1,0,0.2,0.1,0.2,0.2s0.1,0.2,0.1,0.3c0,0.1,0,0.2,0,0.3v0.9
		c0.1-0.2,0.3-0.4,0.5-0.7c0.2-0.2,0.4-0.4,0.7-0.6s0.6-0.3,0.9-0.4s0.7-0.1,1-0.1c0.6,0,1.1,0.1,1.6,0.3c0.5,0.2,0.9,0.5,1.3,0.9
		c0.4,0.4,0.6,0.9,0.8,1.4c0.2,0.5,0.3,1.2,0.3,1.9v4.3c0,0.2,0,0.3,0,0.5c0,0.1-0.1,0.2-0.2,0.3c-0.1,0.1-0.3,0.1-0.6,0.1
		s-0.5,0-0.6-0.1s-0.2-0.2-0.2-0.3s-0.1-0.3-0.1-0.5V9.4c0-0.6-0.1-1-0.3-1.5c-0.2-0.4-0.5-0.7-0.8-1c-0.4-0.2-0.8-0.3-1.4-0.3
		c-0.5,0-1,0.1-1.4,0.3c-0.4,0.2-0.7,0.6-0.9,1s-0.3,0.9-0.3,1.5v4.4c0,0.2,0,0.3-0.1,0.5c0,0.1-0.1,0.2-0.2,0.3
		C680.6,14.6,680.4,14.7,680.1,14.7z"/>
	<path class="st6" d="M693.6,14.8c-0.3,0-0.7,0-1-0.1s-0.7-0.2-1-0.3s-0.6-0.3-0.9-0.5c-0.2-0.2-0.4-0.4-0.6-0.6
		c-0.1-0.1-0.1-0.3-0.1-0.4c0-0.1,0-0.2,0.1-0.3s0.1-0.2,0.2-0.3c0.1-0.2,0.3-0.2,0.4-0.2c0.1,0,0.3,0.1,0.5,0.3
		c0.1,0.1,0.3,0.2,0.5,0.3s0.4,0.2,0.6,0.3c0.2,0.1,0.4,0.2,0.6,0.2c0.2,0.1,0.4,0.1,0.7,0.1c0.6,0,1.1-0.1,1.5-0.3s0.6-0.5,0.6-0.9
		c0-0.2,0-0.4-0.1-0.6c-0.1-0.2-0.2-0.3-0.4-0.4c-0.2-0.1-0.3-0.2-0.5-0.3s-0.4-0.2-0.7-0.2c-0.2-0.1-0.5-0.1-0.7-0.2
		c-0.4-0.1-0.7-0.2-1.1-0.3s-0.7-0.3-0.9-0.5c-0.3-0.2-0.5-0.4-0.7-0.7s-0.3-0.7-0.3-1.1c0-0.5,0.1-1,0.4-1.4
		c0.3-0.4,0.7-0.7,1.2-0.9c0.5-0.2,1.1-0.3,1.8-0.3c0.3,0,0.6,0,0.8,0.1s0.5,0.1,0.7,0.2s0.5,0.2,0.7,0.3c0.2,0.1,0.4,0.2,0.6,0.4
		c0.2,0.2,0.4,0.3,0.4,0.5s-0.1,0.4-0.2,0.6c-0.1,0.2-0.3,0.3-0.4,0.3c-0.1,0-0.3,0-0.4-0.1c-0.2-0.2-0.4-0.3-0.7-0.4
		c-0.2-0.1-0.5-0.2-0.7-0.3s-0.5-0.1-0.8-0.1s-0.6,0.1-0.9,0.1c-0.3,0.1-0.5,0.2-0.6,0.4c-0.1,0.2-0.2,0.4-0.2,0.6s0.1,0.4,0.2,0.5
		s0.3,0.2,0.4,0.3c0.2,0.1,0.4,0.2,0.6,0.2c0.2,0.1,0.5,0.1,0.8,0.2c0.4,0.1,0.8,0.2,1.2,0.3s0.8,0.3,1.1,0.5s0.6,0.5,0.8,0.8
		s0.3,0.8,0.3,1.4c0,0.9-0.3,1.6-1,2.1C695.7,14.5,694.8,14.8,693.6,14.8z"/>
	<path class="st6" d="M707.8,14.7c-0.3,0-0.5-0.1-0.6-0.2c-0.1-0.1-0.2-0.3-0.2-0.6l0.1-1c-0.1,0.2-0.3,0.5-0.6,0.7
		c-0.3,0.3-0.6,0.5-1.1,0.7s-1,0.3-1.7,0.3c-0.6,0-1.2-0.1-1.8-0.4c-0.6-0.3-1-0.6-1.5-1.1c-0.4-0.5-0.7-1-1-1.6
		c-0.2-0.6-0.4-1.2-0.4-1.9s0.1-1.3,0.4-1.8c0.2-0.6,0.6-1.1,1-1.5s0.9-0.8,1.5-1c0.6-0.3,1.1-0.4,1.8-0.4c0.6,0,1.1,0.1,1.5,0.2
		s0.8,0.4,1.1,0.6s0.6,0.5,0.8,0.8V5.7c0-0.3,0-0.5,0.2-0.6c0.1-0.1,0.4-0.2,0.7-0.2s0.4,0,0.6,0.1s0.2,0.2,0.2,0.3
		c0,0.1,0.1,0.3,0.1,0.5v7.7c0,0.2,0,0.4-0.1,0.5c0,0.1-0.1,0.3-0.2,0.3C708.3,14.6,708.1,14.7,707.8,14.7z M704,13
		c0.5,0,1-0.1,1.5-0.4c0.4-0.3,0.8-0.7,1.1-1.1s0.4-1,0.4-1.6s-0.1-1.2-0.4-1.6c-0.3-0.5-0.6-0.8-1.1-1.1c-0.4-0.3-0.9-0.4-1.5-0.4
		s-1.2,0.1-1.6,0.4c-0.5,0.3-0.8,0.7-1.1,1.2c-0.3,0.5-0.4,1-0.4,1.6s0.1,1.1,0.4,1.6s0.6,0.8,1.1,1.1C702.8,12.9,703.3,13,704,13z"
		/>
	<path class="st6" d="M711.8,14.7c-0.3,0-0.4,0-0.6-0.1s-0.2-0.2-0.2-0.3s0-0.3,0-0.5V1.5c0-0.2,0-0.4,0.1-0.5s0.1-0.2,0.2-0.3
		c0.1-0.1,0.3-0.1,0.6-0.1s0.4,0,0.6,0.1c0.1,0.1,0.2,0.2,0.2,0.3s0.1,0.3,0.1,0.5V14c0,0.3-0.1,0.4-0.2,0.5
		C712.3,14.6,712.1,14.7,711.8,14.7z M716,14.7c-0.7,0-1.2-0.1-1.8-0.4c-0.5-0.2-1-0.6-1.4-1s-0.7-1-0.9-1.5
		c-0.2-0.6-0.3-1.2-0.3-1.9s0.1-1.3,0.3-1.9s0.5-1.1,0.9-1.5s0.8-0.8,1.4-1c0.5-0.2,1.1-0.4,1.8-0.4c0.6,0,1.2,0.1,1.7,0.4
		c0.5,0.2,1,0.6,1.4,1s0.7,0.9,1,1.5c0.2,0.6,0.4,1.2,0.4,1.9s-0.1,1.4-0.4,2s-0.6,1.1-1,1.5s-0.9,0.8-1.4,1S716.6,14.7,716,14.7z
		 M715.7,13c0.6,0,1.1-0.1,1.5-0.4s0.8-0.6,1.1-1.1s0.4-1,0.4-1.6s-0.1-1.2-0.4-1.6c-0.3-0.5-0.6-0.8-1.1-1.1
		c-0.4-0.3-1-0.4-1.5-0.4c-0.6,0-1.1,0.1-1.5,0.4s-0.8,0.6-1.1,1.1s-0.4,1-0.4,1.6s0.1,1.2,0.4,1.6s0.6,0.8,1.1,1.1
		C714.7,12.8,715.2,13,715.7,13z"/>
	<path class="st6" d="M723.7,2.6c-0.3,0-0.5,0-0.7-0.1c-0.1-0.1-0.2-0.2-0.3-0.4c0-0.2-0.1-0.3-0.1-0.6s0-0.4,0.1-0.6
		s0.2-0.3,0.3-0.3c0.1-0.1,0.4-0.1,0.7-0.1s0.5,0,0.6,0.1s0.2,0.2,0.3,0.4c0,0.2,0.1,0.3,0.1,0.6s0,0.4-0.1,0.5
		c0,0.2-0.1,0.3-0.3,0.4C724.2,2.6,724,2.6,723.7,2.6z M723.7,14.7c-0.3,0-0.4,0-0.6-0.1s-0.2-0.2-0.2-0.3s-0.1-0.3-0.1-0.5V5.9
		c0-0.2,0-0.3,0.1-0.5c0-0.1,0.1-0.2,0.2-0.3s0.3-0.1,0.6-0.1s0.4,0,0.6,0.1c0.1,0.1,0.2,0.2,0.2,0.3s0.1,0.3,0.1,0.5v7.9
		c0,0.2,0,0.3-0.1,0.5c0,0.1-0.1,0.2-0.2,0.3C724.1,14.6,723.9,14.7,723.7,14.7z"/>
	<path class="st6" d="M730.2,14.7c-0.4,0-0.8,0-1.1-0.1s-0.6-0.2-0.9-0.3c-0.3-0.2-0.5-0.4-0.6-0.6s-0.3-0.6-0.4-0.9
		c-0.1-0.4-0.1-0.8-0.1-1.3v-10c0-0.2,0-0.4,0-0.5s0.1-0.2,0.2-0.3c0.1-0.1,0.3-0.1,0.6-0.1s0.5,0,0.6,0.1s0.2,0.2,0.2,0.3
		s0.1,0.3,0.1,0.5v10c0,0.3,0,0.5,0.1,0.7s0.1,0.4,0.2,0.5s0.3,0.2,0.4,0.3c0.2,0.1,0.4,0.1,0.6,0.1c0.2,0,0.3,0,0.4,0.1
		s0.2,0.1,0.3,0.2c0.1,0.1,0.1,0.3,0.1,0.6s0,0.5-0.1,0.6s-0.2,0.2-0.3,0.2S730.4,14.7,730.2,14.7z"/>
	<path class="st6" d="M733.8,2.6c-0.3,0-0.5,0-0.7-0.1c-0.1-0.1-0.2-0.2-0.3-0.4c0-0.2-0.1-0.3-0.1-0.6s0-0.4,0.1-0.6
		s0.2-0.3,0.3-0.3c0.1-0.1,0.4-0.1,0.7-0.1s0.5,0,0.6,0.1s0.2,0.2,0.3,0.4c0,0.2,0.1,0.3,0.1,0.6s0,0.4-0.1,0.5
		c0,0.2-0.1,0.3-0.3,0.4C734.3,2.6,734.1,2.6,733.8,2.6z M733.8,14.7c-0.3,0-0.4,0-0.6-0.1s-0.2-0.2-0.2-0.3s-0.1-0.3-0.1-0.5V5.9
		c0-0.2,0-0.3,0.1-0.5c0-0.1,0.1-0.2,0.2-0.3s0.3-0.1,0.6-0.1s0.4,0,0.6,0.1c0.1,0.1,0.2,0.2,0.2,0.3s0.1,0.3,0.1,0.5v7.9
		c0,0.2,0,0.3-0.1,0.5c0,0.1-0.1,0.2-0.2,0.3C734.2,14.6,734,14.7,733.8,14.7z"/>
	<path class="st6" d="M741.5,14.7c-0.6,0-1.2-0.1-1.7-0.4c-0.5-0.2-1-0.6-1.4-1s-0.7-1-1-1.5s-0.3-1.2-0.3-2c0-0.7,0.1-1.3,0.3-1.9
		s0.6-1.1,1-1.5s0.9-0.8,1.4-1s1.1-0.4,1.7-0.4c0.7,0,1.2,0.1,1.8,0.4c0.5,0.2,1,0.6,1.4,1s0.7,0.9,0.9,1.5s0.3,1.2,0.3,1.9
		s-0.1,1.4-0.3,1.9c-0.2,0.6-0.5,1.1-0.9,1.5s-0.8,0.8-1.3,1C742.7,14.6,742.1,14.7,741.5,14.7z M741.7,13c0.6,0,1.1-0.1,1.5-0.4
		c0.4-0.3,0.8-0.6,1.1-1.1s0.4-1,0.4-1.6s-0.1-1.2-0.4-1.6c-0.3-0.5-0.6-0.8-1.1-1.1c-0.4-0.3-1-0.4-1.5-0.4c-0.6,0-1.1,0.1-1.5,0.4
		s-0.8,0.6-1.1,1.1s-0.4,1-0.4,1.6s0.1,1.2,0.4,1.6c0.3,0.5,0.6,0.8,1.1,1.1S741.2,13,741.7,13z M745.6,14.7c-0.3,0-0.5-0.1-0.6-0.2
		c-0.1-0.1-0.2-0.3-0.2-0.5V1.5c0-0.2,0-0.4,0-0.5s0.1-0.2,0.2-0.3c0.1-0.1,0.3-0.1,0.6-0.1s0.4,0,0.6,0.1c0.1,0.1,0.2,0.2,0.2,0.3
		s0.1,0.3,0.1,0.5v12.3c0,0.2,0,0.4-0.1,0.5s-0.1,0.2-0.2,0.3S745.9,14.7,745.6,14.7z"/>
	<path class="st6" d="M757.2,14.7c-0.3,0-0.5-0.1-0.6-0.2c-0.1-0.1-0.2-0.3-0.2-0.6l0.1-1c-0.1,0.2-0.3,0.5-0.6,0.7
		c-0.3,0.3-0.6,0.5-1.1,0.7s-1,0.3-1.7,0.3c-0.6,0-1.2-0.1-1.8-0.4c-0.6-0.3-1-0.6-1.5-1.1c-0.4-0.5-0.7-1-1-1.6
		c-0.2-0.6-0.4-1.2-0.4-1.9s0.1-1.3,0.4-1.8c0.2-0.6,0.6-1.1,1-1.5s0.9-0.8,1.5-1c0.6-0.3,1.1-0.4,1.8-0.4c0.6,0,1.1,0.1,1.5,0.2
		s0.8,0.4,1.1,0.6s0.6,0.5,0.8,0.8V5.7c0-0.3,0-0.5,0.2-0.6c0.1-0.1,0.4-0.2,0.7-0.2s0.4,0,0.6,0.1s0.2,0.2,0.2,0.3
		c0,0.1,0.1,0.3,0.1,0.5v7.7c0,0.2,0,0.4-0.1,0.5c0,0.1-0.1,0.3-0.2,0.3C757.7,14.6,757.5,14.7,757.2,14.7z M753.4,13
		c0.5,0,1-0.1,1.5-0.4c0.4-0.3,0.8-0.7,1.1-1.1s0.4-1,0.4-1.6s-0.1-1.2-0.4-1.6c-0.3-0.5-0.6-0.8-1.1-1.1c-0.4-0.3-0.9-0.4-1.5-0.4
		s-1.2,0.1-1.6,0.4c-0.5,0.3-0.8,0.7-1.1,1.2c-0.3,0.5-0.4,1-0.4,1.6s0.1,1.1,0.4,1.6s0.6,0.8,1.1,1.1C752.2,12.9,752.8,13,753.4,13
		z"/>
	<path class="st6" d="M764.7,14.7c-0.6,0-1.2-0.1-1.7-0.4c-0.5-0.2-1-0.6-1.4-1s-0.7-1-1-1.5s-0.3-1.2-0.3-2c0-0.7,0.1-1.3,0.3-1.9
		s0.6-1.1,1-1.5s0.9-0.8,1.4-1s1.1-0.4,1.7-0.4c0.7,0,1.2,0.1,1.8,0.4c0.5,0.2,1,0.6,1.4,1s0.7,0.9,0.9,1.5s0.3,1.2,0.3,1.9
		s-0.1,1.4-0.3,1.9c-0.2,0.6-0.5,1.1-0.9,1.5s-0.8,0.8-1.3,1C765.9,14.6,765.3,14.7,764.7,14.7z M764.9,13c0.6,0,1.1-0.1,1.5-0.4
		c0.4-0.3,0.8-0.6,1.1-1.1s0.4-1,0.4-1.6s-0.1-1.2-0.4-1.6c-0.3-0.5-0.6-0.8-1.1-1.1c-0.4-0.3-1-0.4-1.5-0.4c-0.6,0-1.1,0.1-1.5,0.4
		s-0.8,0.6-1.1,1.1s-0.4,1-0.4,1.6s0.1,1.2,0.4,1.6c0.3,0.5,0.6,0.8,1.1,1.1S764.4,13,764.9,13z M768.8,14.7c-0.3,0-0.5-0.1-0.6-0.2
		c-0.1-0.1-0.2-0.3-0.2-0.5V1.5c0-0.2,0-0.4,0-0.5s0.1-0.2,0.2-0.3c0.1-0.1,0.3-0.1,0.6-0.1s0.4,0,0.6,0.1c0.1,0.1,0.2,0.2,0.2,0.3
		s0.1,0.3,0.1,0.5v12.3c0,0.2,0,0.4-0.1,0.5s-0.1,0.2-0.2,0.3S769.1,14.7,768.8,14.7z"/>
	<path class="st6" d="M775.9,10.8c-0.2,0-0.4,0-0.5-0.1s-0.2-0.2-0.2-0.3s-0.1-0.3-0.1-0.4V8c0-0.3,0.1-0.5,0.2-0.6
		c0.1-0.2,0.3-0.3,0.6-0.4c0.2-0.1,0.5-0.2,0.8-0.3s0.5-0.3,0.8-0.4c0.2-0.2,0.4-0.4,0.6-0.7c0.1-0.3,0.2-0.7,0.2-1.2
		c0-0.7-0.2-1.3-0.6-1.7c-0.4-0.4-1-0.6-1.8-0.6c-0.4,0-0.7,0.1-1,0.2c-0.3,0.1-0.6,0.3-0.8,0.5s-0.4,0.5-0.5,0.8
		c-0.1,0.2-0.1,0.3-0.2,0.4c-0.2,0-0.3,0-0.4,0s-0.3,0-0.5-0.1s-0.4-0.1-0.5-0.2c-0.1-0.1-0.1-0.2-0.2-0.3c0-0.1,0-0.3,0-0.4
		c0.1-0.2,0.2-0.5,0.3-0.7s0.3-0.5,0.5-0.7s0.5-0.4,0.8-0.6s0.6-0.3,1-0.4s0.8-0.2,1.3-0.2c0.8,0,1.6,0.2,2.2,0.5
		c0.6,0.3,1.1,0.8,1.4,1.3c0.3,0.6,0.5,1.3,0.5,2c0,0.4-0.1,0.8-0.2,1.2s-0.3,0.7-0.5,1s-0.4,0.6-0.7,0.8c-0.3,0.2-0.6,0.4-0.9,0.6
		c-0.3,0.2-0.7,0.3-1,0.4l0.1-0.2v2c0,0.2,0,0.3-0.1,0.4s-0.1,0.2-0.2,0.3C776.3,10.7,776.1,10.8,775.9,10.8z M775.9,14.7
		c-0.4,0-0.7-0.1-0.8-0.3s-0.2-0.4-0.2-0.8c0-0.2,0-0.3,0-0.5s0.1-0.3,0.3-0.4c0.2-0.1,0.4-0.2,0.8-0.2c0.5,0,0.8,0.1,0.9,0.2
		c0.1,0.2,0.2,0.4,0.2,0.8c0,0.2,0,0.3,0,0.5s-0.1,0.3-0.3,0.4C776.5,14.6,776.3,14.7,775.9,14.7z"/>
</g>
</svg>
